<svg xmlns="http://www.w3.org/2000/svg" viewBox="0 0 68.53 69.64"><defs><style>.cls-1{fill:#fbd0b0;}.cls-2{fill:#cc9c78;}.cls-3{fill:#8a0c11;}.cls-4,.cls-5{fill:#c1272d;}.cls-5{fill-opacity:0.2;}</style></defs><g id="Layer_2" data-name="Layer 2"><g id="objects"><path class="cls-1" d="M6.8,47.33c-5.69-19.46.9-29,19.46-35.32s26,1.2,28.73,12,11.67,6.29,13.47,20.65S38.23,83.25,13.09,60.5C8.6,58.4,6.8,47.33,6.8,47.33Z" transform="translate(0 -0.18)"/><path class="cls-1" d="M10.59,50.22c-8.58-6.78-14,3.2-8.18,8S14,63.79,14.18,58" transform="translate(0 -0.18)"/><path d="M33.74,42.44c-.13.16-.74-.19-1.7-.64a10.09,10.09,0,0,0-1.7-.64,3.29,3.29,0,0,0-1.94,0,2.41,2.41,0,0,0-1.32,1.27,7.36,7.36,0,0,0-.59,1.68c-.12.51-.2.95-.27,1.25s-.17.48-.26.48-.18-.16-.26-.48A5,5,0,0,1,25.57,44,5.77,5.77,0,0,1,26,41.91a3.39,3.39,0,0,1,2-2A4.06,4.06,0,0,1,30.7,40a7,7,0,0,1,1.82,1C33.45,41.71,33.84,42.32,33.74,42.44Z" transform="translate(0 -0.18)"/><path d="M56.09,34.26c-.09,0-.22,0-.38-.19s-.34-.39-.58-.61a1.42,1.42,0,0,0-.79-.47c-.21,0-.5.11-.83.45a7,7,0,0,0-1.27,2.28c-.24.66-.35,1.12-.54,1.13s-.4-.47-.37-1.3a4.77,4.77,0,0,1,1.23-3,2.58,2.58,0,0,1,.89-.64,1.49,1.49,0,0,1,.57-.14,1.43,1.43,0,0,1,.58.05,2.07,2.07,0,0,1,1.28,1.11,2.37,2.37,0,0,1,.3.94C56.2,34.08,56.17,34.22,56.09,34.26Z" transform="translate(0 -0.18)"/><path class="cls-2" d="M46.71,40.44c-.17.12-.57-.3-1.21-.85a4,4,0,0,0-2.59-1.22c-1,0-1.61,1-1.92,1.76s-.46,1.32-.67,1.31-.35-.58-.23-1.55a3.83,3.83,0,0,1,.66-1.66,2.78,2.78,0,0,1,2.06-1.18,3.43,3.43,0,0,1,2.19.68A5.12,5.12,0,0,1,46.2,39C46.74,39.77,46.84,40.36,46.71,40.44Z" transform="translate(0 -0.18)"/><path class="cls-2" d="M13.24,5.57c.14-.09.78.55,1.6,1.74a15.06,15.06,0,0,1,1.25,2.24A9.4,9.4,0,0,1,17,12.68,6.33,6.33,0,0,1,16.42,16a7,7,0,0,1-1.56,2.17,7.25,7.25,0,0,1-1.43,1c-.37.19-.59.26-.64.18s.53-.77,1.38-1.84a6.59,6.59,0,0,0,1.48-4.71,16.54,16.54,0,0,0-1.62-5C13.43,6.49,13.08,5.67,13.24,5.57Z" transform="translate(0 -0.18)"/><path class="cls-2" d="M18,.19c.16-.07.76,1,1.64,2.65A22.06,22.06,0,0,1,21,6a10.23,10.23,0,0,1,.54,4.3,7.41,7.41,0,0,1-.6,2.25,10.67,10.67,0,0,1-1.14,1.78,15.34,15.34,0,0,1-2.49,2.41c-1.56,1.18-2.64,1.7-2.74,1.56s.78-.95,2.12-2.26a19.28,19.28,0,0,0,2.14-2.44A11.46,11.46,0,0,0,19.78,12a6.87,6.87,0,0,0,.46-1.85,10.19,10.19,0,0,0-.39-3.81c-.32-1.18-.72-2.23-1-3.13C18.16,1.42,17.85.25,18,.19Z" transform="translate(0 -0.18)"/><path class="cls-2" d="M26.26,7.67c.13,0,.54.7.22,1.94a7.52,7.52,0,0,1-2.76,3.72c-2.85,2.21-5.76,2.77-5.84,2.42s2.42-1.43,5-3.46a9.64,9.64,0,0,0,2.71-3C26.06,8.4,26.05,7.7,26.26,7.67Z" transform="translate(0 -0.18)"/><path class="cls-2" d="M32.84,19.94c-.23,0-.29-1-1.3-2.1s-3-1.78-5.4-2a27.93,27.93,0,0,0-6.12.19c-1.57.19-2.51.46-2.59.29s.8-.76,2.4-1.21a18.15,18.15,0,0,1,6.43-.58,11.34,11.34,0,0,1,3.55.84,5.87,5.87,0,0,1,2.45,1.85A3.67,3.67,0,0,1,33,19.19C33,19.68,32.92,19.94,32.84,19.94Z" transform="translate(0 -0.18)"/><path class="cls-2" d="M25.66,19.94c-.19.08-.54-.49-1.24-1.16a7.38,7.38,0,0,0-1.36-1A8.85,8.85,0,0,0,21.14,17a10,10,0,0,0-3.8-.21c-1,.13-1.61.33-1.71.16s.41-.66,1.48-1.06a7.38,7.38,0,0,1,4.37-.16,7.49,7.49,0,0,1,2.23,1,5.5,5.5,0,0,1,1.42,1.44C25.77,19.16,25.8,19.89,25.66,19.94Z" transform="translate(0 -0.18)"/><path class="cls-3" d="M39.73,45.53c-5.09,2.86-1.3,7.68,2.59,10.48,4.94,3.54,14.17-1.65,12.52-9.43s-4-2.69-7.33-1.95S42.12,44.18,39.73,45.53Z" transform="translate(0 -0.18)"/><path class="cls-4" d="M38.33,52a16.05,16.05,0,0,0,4,4c3.23,2.31,8.27.89,10.93-2.54C50,50.05,43.51,49.62,38.33,52Z" transform="translate(0 -0.18)"/><path class="cls-2" d="M12.24,53.56c-.19.06-.51-.51-1.11-1.31a12.35,12.35,0,0,0-2.75-2.68,8.91,8.91,0,0,0-1.82-1,6,6,0,0,0-1.63-.34c-.95-.07-1.59.1-1.67-.09s.47-.65,1.63-.84a5.08,5.08,0,0,1,2,.11,7.29,7.29,0,0,1,2.22,1,8.26,8.26,0,0,1,2.8,3.3C12.39,52.81,12.4,53.52,12.24,53.56Z" transform="translate(0 -0.18)"/><path class="cls-2" d="M14.18,57.7c.18,0,.32.36.29.9a4.24,4.24,0,0,1-.72,1.92c-.89,1.32-2,1.93-2.26,1.67s.4-1.27,1.16-2.4S13.82,57.7,14.18,57.7Z" transform="translate(0 -0.18)"/><path class="cls-5" d="M35.54,54.91a6.85,6.85,0,0,1-7,6.69,6.69,6.69,0,1,1,0-13.37A6.84,6.84,0,0,1,35.54,54.91Z" transform="translate(0 -0.18)"/><path class="cls-5" d="M68.46,44.63c-.71-5.71-2.57-8.44-4.71-10.33a7.15,7.15,0,0,0-4.14,1,6.69,6.69,0,1,0,6.93,11.44A7.12,7.12,0,0,0,68.49,45C68.48,44.89,68.48,44.76,68.46,44.63Z" transform="translate(0 -0.18)"/><path class="cls-2" d="M22.56,28.67c.2.22-.66,1.16-1.67,2.23S19.23,33,19,32.86s.07-1.45,1.19-2.63S22.4,28.48,22.56,28.67Z" transform="translate(0 -0.18)"/><path class="cls-2" d="M52.9,22.28c-.25.14-.88-.59-1.93-1s-2.07-.54-2.06-.83,1.07-.59,2.43-.09a2.94,2.94,0,0,1,1.41,1.11C53,21.92,53,22.22,52.9,22.28Z" transform="translate(0 -0.18)"/></g></g></svg>