<svg xmlns="http://www.w3.org/2000/svg" viewBox="0 0 512 444.96"><defs><style>.cls-1{fill:#873f30;}.cls-2{fill:#6c3328;}.cls-3{fill:#ba5d4f;}.cls-4{fill:#a34f41;}.cls-5{fill:#fcc16d;}.cls-6{fill:#fca62f;}</style></defs><g id="Layer_2" data-name="Layer 2"><g id="Capa_1" data-name="Capa 1"><path class="cls-1" d="M205.67,264.52,180.44,239.3,8.75,397.8a27.19,27.19,0,1,0,38.42,38.42Z"/><path class="cls-2" d="M46.41,437A27.19,27.19,0,0,1,8,437a26.79,26.79,0,0,1-6.63-10.83,27.16,27.16,0,0,0,27.59-6.61c.26-.26.52-.54.77-.8l158.5-171.7,17.47,17.46L47.17,436.22l-.76.79Z"/><path class="cls-1" d="M230.5,179.53l-58.08,69.29,23.73,23.72,69.28-58.08Z"/><path class="cls-2" d="M230.5,179.53l-18.76,22.39,5.63,5.63a10.62,10.62,0,0,1,0,15l-35.6,35.6,14.38,14.38,69.28-58.08Z"/><path class="cls-3" d="M182,286l-23-23a17,17,0,0,1,24.11-24.11l23,23A17.05,17.05,0,0,1,182,286Z"/><path class="cls-4" d="M206.15,286A17,17,0,0,1,182,286l-17.46-17.46a17,17,0,0,0,24.11-24.11l17.46,17.46A17,17,0,0,1,206.15,286Z"/><path class="cls-3" d="M260.6,21.19l51.14,51.14-80.29,80.28-51.14-51.13Z"/><path class="cls-4" d="M343.46,264.7l-51.13-51.14,80.28-80.28,51.14,51.14Z"/><path class="cls-1" d="M165.93,119.1l-1.78-1.78a17.24,17.24,0,0,1,0-24.39L252,5.05a17.26,17.26,0,0,1,24.39,0l1.78,1.78a17.26,17.26,0,0,1,0,24.39L190.32,119.1a17.26,17.26,0,0,1-24.39,0Z"/><path class="cls-2" d="M325.87,279l1.77,1.78a17.27,17.27,0,0,0,24.4,0l87.87-87.88a17.25,17.25,0,0,0,0-24.4l-1.77-1.77a17.25,17.25,0,0,0-24.4,0l-87.87,87.88a17.24,17.24,0,0,0,0,24.39Z"/><path class="cls-5" d="M333.93,53.54,391.36,111,270.1,232.22,212.68,174.8Z"/><path class="cls-6" d="M241,203.22,362.25,82,391.32,111,270.07,232.29Z"/><path class="cls-1" d="M334.21,51.13l-14.07-5.75a12.92,12.92,0,0,0-14,2.82L207.3,147a12.93,12.93,0,0,0-2.83,14l5.75,14.07A8.64,8.64,0,0,0,224.31,178L337,65.21a8.62,8.62,0,0,0-2.83-14.08Z"/><path class="cls-2" d="M393.84,110.76l5.75,14.07a12.93,12.93,0,0,1-2.83,14L298,237.67a13,13,0,0,1-14.05,2.82l-14.07-5.75A8.62,8.62,0,0,1,267,220.66L379.76,107.92a8.62,8.62,0,0,1,14.08,2.84Z"/><path class="cls-3" d="M445.92,387.26H236.44v-29.4a11,11,0,0,1,11-11h187.5a11,11,0,0,1,11,11Z"/><path class="cls-4" d="M445.92,357.86v29.4h-23v-29.4a11,11,0,0,0-11-11h23A11,11,0,0,1,445.92,357.86Z"/><path class="cls-1" d="M492.09,445H190.27a11,11,0,0,1-10-15.56L191,406.1A56.75,56.75,0,0,1,242.55,373H439.81a56.75,56.75,0,0,1,51.6,33.12l10.67,23.3A11,11,0,0,1,492.09,445Z"/><path class="cls-2" d="M492.09,445H462.71a11,11,0,0,0,10-15.56L462,406.09A56.77,56.77,0,0,0,410.44,373h29.37a56.77,56.77,0,0,1,51.6,33.12l10.67,23.31A11,11,0,0,1,492.09,445Z"/><path class="cls-5" d="M476.08,328.68a7.61,7.61,0,0,1-5.36-13l8.24-8.19a7.61,7.61,0,0,1,10.73,10.8l-8.24,8.18a7.58,7.58,0,0,1-5.37,2.22Z"/><path class="cls-5" d="M452.06,311.65a7.38,7.38,0,0,1-1.85-.23,7.61,7.61,0,0,1-5.54-9.23l2.86-11.39a7.61,7.61,0,0,1,14.77,3.7l-2.86,11.39A7.61,7.61,0,0,1,452.06,311.65Z"/><path class="cls-5" d="M493,352.8a7.61,7.61,0,0,1-1.8-15L502.58,335a7.61,7.61,0,0,1,3.62,14.79l-11.41,2.79A7.61,7.61,0,0,1,493,352.8Z"/></g></g></svg>