<?xml version="1.0"?>
<svg xmlns="http://www.w3.org/2000/svg" xmlns:xlink="http://www.w3.org/1999/xlink" xmlns:svgjs="http://svgjs.com/svgjs" version="1.1" width="512" height="512" x="0" y="0" viewBox="0 0 512 512" style="enable-background:new 0 0 512 512" xml:space="preserve" class=""><g><g xmlns="http://www.w3.org/2000/svg"><g><path d="m346.086 512h-180.226c-20.65 0-38.595-13.986-43.638-34.011-18.073-71.771-33.095-131.621-47.274-188.352-1.12-4.481-.113-9.228 2.729-12.869s7.204-5.768 11.823-5.768h333c4.623 0 8.988 2.132 11.831 5.779 2.842 3.647 3.844 8.401 2.715 12.884-15.656 62.169-31.526 125.395-46.873 186.538l-.44 1.754c-5.032 20.045-22.98 34.045-43.647 34.045z" fill="#71d7ce" data-original="#d98ff8" style="" class=""/></g><path d="m434.331 276.779c-2.843-3.646-7.208-5.779-11.831-5.779h-166.5v241h90.086c20.667 0 38.615-14 43.646-34.044l.44-1.754c15.347-61.144 31.217-124.369 46.873-186.538 1.13-4.484.128-9.238-2.714-12.885z" fill="#208178" data-original="#a24bdb" style="" class=""/><g><path d="m286 271h-60c-8.284 0-15-6.716-15-15v-131c0-8.284 6.716-15 15-15h60c8.284 0 15 6.716 15 15v131c0 8.284-6.716 15-15 15z" fill="#fb5267" data-original="#ff4949" style="" class=""/></g><g><path d="m256 110c-24.813 0-45-20.187-45-45 0-10.311 5.548-23.659 16.49-39.675 17.302-25.325 24.047-25.325 28.51-25.325 4.464 0 11.208 0 28.511 25.325 10.941 16.016 16.489 29.364 16.489 39.675 0 24.813-20.187 45-45 45z" fill="#fdb833" data-original="#fdbf00" style="" class=""/></g><path clip-rule="evenodd" d="m243.907 512h78.08c5.924-40.276 16.228-110.329 21.475-146l-102.026-.192z" fill="#2aa79c" fill-rule="evenodd" data-original="#b760ea" style="" class=""/><path clip-rule="evenodd" d="m168.319 366c5.411 36.786 15.696 106.708 21.475 146h66.214c0-40.276 0-110.329 0-146z" fill="#2ec4b6" fill-rule="evenodd" data-original="#ca75f5" style="" class=""/><path d="m284.511 25.325c-17.303-25.325-24.047-25.325-28.511-25.325v110c24.813 0 45-20.187 45-45 0-10.311-5.548-23.659-16.489-39.675z" fill="#ff8f00" data-original="#ff8856" style="" class=""/><path d="m286 110h-30v161h30c8.284 0 15-6.716 15-15v-131c0-8.284-6.716-15-15-15z" fill="#e71d36" data-original="#ff0059" style="" class=""/><g><path d="m391.072 391c-16.836 0-32.858-6.398-45.023-17.434-12.165 11.036-28.189 17.434-45.025 17.434s-32.858-6.398-45.024-17.435c-12.165 11.037-28.188 17.435-45.024 17.435s-32.859-6.398-45.024-17.434c-12.166 11.036-28.189 17.434-45.025 17.434-36.904 0-66.927-30.023-66.927-66.927 0-32.831 24.021-60.419 55.408-65.924 7.872-17.1 24.859-33.483 48.195-46.123 28.403-15.384 63.348-23.856 98.397-23.856s69.994 8.472 98.396 23.856c23.337 12.64 40.324 29.023 48.195 46.123 31.388 5.504 55.409 33.093 55.409 65.924 0 36.904-30.023 66.927-66.928 66.927z" fill="#803602" data-original="#803602" style="" class=""/></g><path d="m402.592 258.148c-7.871-17.1-24.858-33.483-48.195-46.123-28.402-15.384-63.347-23.856-98.396-23.856v185.396c12.165 11.037 28.187 17.435 45.023 17.435s32.859-6.398 45.024-17.434c12.166 11.036 28.188 17.434 45.024 17.434 36.905 0 66.928-30.023 66.928-66.927 0-32.831-24.021-60.42-55.408-65.925z" fill="#6f2e01" data-original="#6f2e01" style="" class=""/></g></g></svg>
