<svg id="Capa_1" enable-background="new 0 0 512.805 512.805" height="512" viewBox="0 0 512.805 512.805" width="512" xmlns="http://www.w3.org/2000/svg"><g><g><path d="m285.813 168.729-21.094-21.357c23.027-22.72 35.684-53.042 35.684-85.371v-62.001h30v62c-.001 40.415-15.85 78.325-44.59 106.729z" fill="#443d66"/></g><g><path d="m254.446 490.858-38.936-38.965c27.039-7.236 31.014-8.375 41.309-11.323 18.164-5.918 30.645-23.086 30.645-42.612v-190.195c0-12.1-5.01-23.936-13.77-32.446l16.846-24.317c7.822 3.677 14.971 8.862 20.742 15l134.092 133.74c23.057 23.481 28.594 58.55 13.857 87.363l-.059.103c-13.799 26.396-30.352 49.321-49.189 68.159-18.867 18.853-41.807 35.405-68.174 49.189-28.991 14.889-64.056 9.215-87.363-13.696z" fill="#cfd7e6"/></g><g><g><path d="m361.166 322.92h29.997v29.997h-29.997z" fill="#a3b1cc" transform="matrix(.707 -.707 .707 .707 -128.768 364.962)"/></g><g><path d="m291.301 291.865h62.148v29.997h-62.148z" fill="#a3b1cc" transform="matrix(.707 -.707 .707 .707 -122.564 317.832)"/></g><g><path d="m287.123 378.444h67.047v29.997h-67.047z" fill="#a3b1cc" transform="matrix(.707 -.707 .707 .707 -184.291 341.968)"/></g></g><g><path d="m180.402 482c-26.455 0-54.404-4.57-83.115-13.594-31.084-10.122-51.885-38.76-51.885-71.309v-190.195c0-32.549 20.801-61.187 51.768-71.265 57.656-18.135 108.926-18.091 166.348-.044 11.133 3.721 20.801 9.507 28.916 17.256 14.648 14.238 22.969 33.896 22.969 54.053v190.195c0 32.549-20.801 61.187-51.768 71.265-9.811 2.371-40.193 13.638-83.233 13.638z" fill="#f3f5f9"/></g><path d="m263.518 135.594c-28.722-9.027-55.904-13.548-83.115-13.544v359.95c43.041 0 73.422-11.268 83.232-13.638 30.967-10.078 51.768-38.716 51.768-71.265v-190.195c0-20.156-8.32-39.814-22.969-54.053-8.116-7.748-17.784-13.535-28.916-17.255z" fill="#e1e6f0"/><g id="Dog_Tag_2_"><g><g><path d="m165.402 242h90v30h-90z" fill="#cfd7e6"/></g><g><path d="m105.402 242h30v30h-30z" fill="#cfd7e6"/></g><g><path d="m225.402 362h30v30h-30z" fill="#a3b1cc"/></g><g><path d="m105.402 302h150v30h-150z" fill="#cfd7e6"/></g><g><path d="m105.402 362h90v30h-90z" fill="#cfd7e6"/></g></g><g><path d="m195.402 182v30c-5.099 0-10.201-.3-15-.901-75.901-7.5-135-71.398-135-149.099v-62h30v62c0 61.199 45.901 111.599 105 119.099 4.8.601 9.901.901 15 .901z" fill="#4d4d80"/></g></g><path d="m195.402 182v30c-5.099 0-10.201-.3-15-.901v-30c4.8.601 9.901.901 15 .901z" fill="#443d66"/><g fill="#a3b1cc"><path d="m180.402 242h75v30h-75z"/><path d="m180.402 302h75v30h-75z"/><path d="m180.402 362h15v30h-15z"/></g></g></svg>