<svg xmlns="http://www.w3.org/2000/svg" xmlns:xlink="http://www.w3.org/1999/xlink" viewBox="0 0 16.4 9.57"><defs><style>.cls-1,.cls-2,.cls-3{fill:none;}.cls-1,.cls-2{clip-rule:evenodd;}.cls-2{clip-path:url(#clip-path);}.cls-4{clip-path:url(#clip-path-2);}.cls-5{clip-path:url(#clip-path-3);}.cls-6{fill:#fff;}</style><clipPath id="clip-path"><polygon class="cls-1" points="0 16.44 16.44 16.44 16.44 0 0 0 0 16.44 0 16.44"/></clipPath><clipPath id="clip-path-2" transform="translate(-0.03 -3.45)"><polygon class="cls-2" points="0 0 16.44 0 16.44 16.44 0 16.44 0 0 0 0"/></clipPath><clipPath id="clip-path-3" transform="translate(-0.03 -3.45)"><polygon class="cls-3" points="0 16.44 16.44 16.44 16.44 0 0 0 0 16.44 0 16.44"/></clipPath></defs><g id="Layer_2" data-name="Layer 2"><g id="Layer_1-2" data-name="Layer 1"><g class="cls-4"><g class="cls-5"><path class="cls-6" d="M16.38,8c-.13-.19-3.24-4.59-8.15-4.59C4,3.45.27,7.83.11,8a.36.36,0,0,0,0,.44C.27,8.64,4,13,8.23,13s8-4.38,8.13-4.57a.36.36,0,0,0,0-.41ZM8.23,12.33c-3.37,0-6.58-3.21-7.4-4.1.82-.88,4-4.1,7.4-4.1,3.95,0,6.74,3.22,7.42,4.09-.78.85-4,4.11-7.42,4.11Z" transform="translate(-0.03 -3.45)"/><path class="cls-6" d="M8.23,5.5A2.74,2.74,0,1,0,11,8.23,2.74,2.74,0,0,0,8.23,5.5Zm0,4.78a2,2,0,1,1,2-2,2.05,2.05,0,0,1-2,2Z" transform="translate(-0.03 -3.45)"/></g></g></g></g></svg>