<svg xmlns="http://www.w3.org/2000/svg" viewBox="0 0 647 94.81"><defs><style>.cls-1,.cls-2,.cls-4{fill:none;}.cls-1{stroke:#2ec4b6;stroke-width:2px;}.cls-1,.cls-2{stroke-miterlimit:8;}.cls-2{stroke:#e71d36;stroke-width:2.28px;}.cls-3{fill:#e71d36;}</style></defs><g id="Layer_2" data-name="Layer 2"><g id="base"><line class="cls-1" x1="51" y1="1" x2="593" y2="1"/><line class="cls-1" x1="592" x2="592" y2="11"/><line class="cls-1" x1="413.13" y1="0.38" x2="413.13" y2="11.38"/><line class="cls-2" x1="233" y1="11" x2="233" y2="1"/><line class="cls-2" x1="51" y1="11" x2="51" y2="1"/><line class="cls-2" x1="51.33" y1="57.77" x2="51.33" y2="47.77"/><line class="cls-2" x1="232.33" y1="62.77" x2="232.33" y2="52.77"/></g><g id="example_1" data-name="example 1"><path d="M553.9,28.82h-1.68V27.66h3.14v5.13H553.9Z" transform="translate(2.85)"/><path d="M561.82,30.44a1.58,1.58,0,0,0-.44-1.19,1.62,1.62,0,0,0-1.2-.43h-3.1V27.66h3.14a3.64,3.64,0,0,1,1.64.34,2.51,2.51,0,0,1,1,1,3.16,3.16,0,0,1,.36,1.56v6.31h-1.45Z" transform="translate(2.85)"/><path d="M572.5,35.75v1.11h-7.56V35.69h5V31.08a2.42,2.42,0,0,0-.53-1.73,2.43,2.43,0,0,0-1.74-.53h-2.23V27.66h2.31a3.81,3.81,0,0,1,2.72.87,3.42,3.42,0,0,1,.92,2.59v4.51Z" transform="translate(2.85)"/><path d="M580.74,27.66v5.51a4.1,4.1,0,0,1-.51,2.11,3.18,3.18,0,0,1-1.44,1.32,4.85,4.85,0,0,1-2.14.45,9.26,9.26,0,0,1-3.28-.64l.35-1.08a8.49,8.49,0,0,0,2.45.59,3.44,3.44,0,0,1-.77-1.55l-1.53-6.71h1.45l1.5,6.78a5.22,5.22,0,0,0,.21.81,2.74,2.74,0,0,0,.27.6,2.49,2.49,0,0,0,1.47-.88,2.75,2.75,0,0,0,.52-1.74V27.66Z" transform="translate(2.85)"/><path d="M590.36,36.86V27.21l-2.9,1.07V27l4.14-1.56h.22V36.86Z" transform="translate(2.85)"/><path d="M602.71,32.12a2.77,2.77,0,0,1,.52,1.66,3.19,3.19,0,0,1-.47,1.74,3.12,3.12,0,0,1-1.29,1.12,4.84,4.84,0,0,1-3.71,0,3,3,0,0,1-1.29-1.11,3.12,3.12,0,0,1-.47-1.75,3,3,0,0,1,.5-1.68A3.16,3.16,0,0,1,597.9,31a3,3,0,0,1-1.21-1,2.72,2.72,0,0,1-.44-1.51,3.22,3.22,0,0,1,.43-1.67,2.85,2.85,0,0,1,1.2-1.08,4,4,0,0,1,1.73-.36,3.87,3.87,0,0,1,1.74.37,2.87,2.87,0,0,1,1.19,1.07,3.22,3.22,0,0,1,.43,1.67,2.65,2.65,0,0,1-.45,1.51A3,3,0,0,1,601.3,31,3.21,3.21,0,0,1,602.71,32.12Zm-1.51,3.17a2,2,0,0,0,.57-1.54,2.29,2.29,0,0,0-.27-1.12,1.94,1.94,0,0,0-.77-.76,2.23,2.23,0,0,0-1.13-.28,2.18,2.18,0,0,0-1.13.28,1.77,1.77,0,0,0-.75.76,2.26,2.26,0,0,0-.26,1.12,2,2,0,0,0,.57,1.54,2.17,2.17,0,0,0,1.58.55A2.2,2.2,0,0,0,601.2,35.29Zm-2.58-8.55a1.71,1.71,0,0,0-.67.69,2.16,2.16,0,0,0-.23,1,2.08,2.08,0,0,0,.23,1,1.69,1.69,0,0,0,.67.68,2.18,2.18,0,0,0,2,0,1.73,1.73,0,0,0,.66-.68,2.35,2.35,0,0,0,0-2,1.83,1.83,0,0,0-.67-.71,1.92,1.92,0,0,0-1-.25A2,2,0,0,0,598.62,26.74Z" transform="translate(2.85)"/><path d="M615.72,28.57l-3.38,8.29h-1.55l3.33-8h-5.4v-4h1.45v2.8h5.55Z" transform="translate(2.85)"/><path d="M618.41,28.82h-1.69V27.66h3.14v5.13h-1.45Z" transform="translate(2.85)"/><path d="M621.28,36.9V35.56a3.19,3.19,0,0,0,.45,0,2.72,2.72,0,0,0,1.83-.68,3,3,0,0,0,.9-1.68V28.82h-2.08V27.66h3.51v4.75a6.46,6.46,0,0,0,.15,1.4l.64,3h-1.37l-.54-2.58h0a2.94,2.94,0,0,1-.53,1.3,3.06,3.06,0,0,1-1.1,1,3,3,0,0,1-1.44.36Z" transform="translate(2.85)"/><path d="M374.9,28.82h-1.68V27.66h3.14v5.13H374.9Z" transform="translate(2.85)"/><path d="M382.82,30.44a1.58,1.58,0,0,0-.44-1.19,1.62,1.62,0,0,0-1.2-.43h-3.1V27.66h3.14a3.64,3.64,0,0,1,1.64.34,2.51,2.51,0,0,1,1.05,1,3.16,3.16,0,0,1,.36,1.56v6.31h-1.45Z" transform="translate(2.85)"/><path d="M393.5,35.75v1.11h-7.56V35.69h5V31.08a2.42,2.42,0,0,0-.53-1.73,2.43,2.43,0,0,0-1.74-.53h-2.23V27.66h2.31a3.81,3.81,0,0,1,2.72.87,3.42,3.42,0,0,1,.92,2.59v4.51Z" transform="translate(2.85)"/><path d="M401.74,27.66v5.51a4.1,4.1,0,0,1-.51,2.11,3.18,3.18,0,0,1-1.44,1.32,4.85,4.85,0,0,1-2.14.45,9.26,9.26,0,0,1-3.28-.64l.35-1.08a8.49,8.49,0,0,0,2.45.59,3.44,3.44,0,0,1-.77-1.55l-1.53-6.71h1.45l1.5,6.78a5.22,5.22,0,0,0,.21.81,2.74,2.74,0,0,0,.27.6,2.49,2.49,0,0,0,1.47-.88,2.75,2.75,0,0,0,.52-1.74V27.66Z" transform="translate(2.85)"/><path d="M411.36,36.86V27.21l-2.9,1.07V27l4.14-1.56h.22V36.86Z" transform="translate(2.85)"/><path d="M422.48,26a3.65,3.65,0,0,1,1.2,1.69,6.58,6.58,0,0,1,.38,2.26v.54a11.31,11.31,0,0,1-.41,3.16,4.42,4.42,0,0,1-1.6,2.33,5.44,5.44,0,0,1-3.4.92h-.15V35.66h.15a3.74,3.74,0,0,0,3-1,4.46,4.46,0,0,0,.94-2.76,3.42,3.42,0,0,1-1.1.87,2.92,2.92,0,0,1-1.35.32,3,3,0,0,1-1.81-.54,3.25,3.25,0,0,1-1.09-1.41,4.75,4.75,0,0,1-.35-1.84,4.8,4.8,0,0,1,.4-2,3.24,3.24,0,0,1,1.2-1.41,3.46,3.46,0,0,1,1.93-.52A3.2,3.2,0,0,1,422.48,26Zm-.78,5.45a2.62,2.62,0,0,0,.91-1.12v-.57a4.57,4.57,0,0,0-.3-1.73,2.61,2.61,0,0,0-.8-1.11,1.76,1.76,0,0,0-1.08-.38,1.87,1.87,0,0,0-1.13.35,2.13,2.13,0,0,0-.73.95,3.68,3.68,0,0,0-.25,1.37,3.6,3.6,0,0,0,.24,1.32,2.28,2.28,0,0,0,.69,1,1.75,1.75,0,0,0,1.13.38A2.15,2.15,0,0,0,421.7,31.42Z" transform="translate(2.85)"/><path d="M436.72,28.57l-3.38,8.29h-1.55l3.33-8h-5.4v-4h1.45v2.8h5.55Z" transform="translate(2.85)"/><path d="M439.41,28.82h-1.69V27.66h3.14v5.13h-1.45Z" transform="translate(2.85)"/><path d="M442.28,36.9V35.56a3.19,3.19,0,0,0,.45,0,2.72,2.72,0,0,0,1.83-.68,3,3,0,0,0,.9-1.68V28.82h-2.08V27.66h3.51v4.75a6.46,6.46,0,0,0,.15,1.4l.64,3h-1.37l-.54-2.58h0a2.94,2.94,0,0,1-.53,1.3,3.06,3.06,0,0,1-1.1,1,3,3,0,0,1-1.44.36Z" transform="translate(2.85)"/><path d="M194.9,28.82h-1.68V27.66h3.14v5.13H194.9Z" transform="translate(2.85)"/><path d="M202.83,30.44a1.58,1.58,0,0,0-.45-1.19,1.62,1.62,0,0,0-1.2-.43h-3.1V27.66h3.14a3.64,3.64,0,0,1,1.64.34,2.45,2.45,0,0,1,1,1,3.16,3.16,0,0,1,.36,1.56v6.31h-1.44Z" transform="translate(2.85)"/><path d="M213.51,35.75v1.11h-7.57V35.69h5V31.08a2.42,2.42,0,0,0-.53-1.73,2.43,2.43,0,0,0-1.74-.53h-2.23V27.66h2.31a3.81,3.81,0,0,1,2.72.87,3.42,3.42,0,0,1,.92,2.59v4.51Z" transform="translate(2.85)"/><path d="M221.74,27.66v5.51a4.1,4.1,0,0,1-.51,2.11,3.18,3.18,0,0,1-1.44,1.32,4.85,4.85,0,0,1-2.14.45,9.26,9.26,0,0,1-3.28-.64l.35-1.08a8.56,8.56,0,0,0,2.45.59,3.44,3.44,0,0,1-.77-1.55l-1.53-6.71h1.46l1.49,6.78a6.67,6.67,0,0,0,.21.81,2.74,2.74,0,0,0,.27.6,2.46,2.46,0,0,0,1.47-.88,2.75,2.75,0,0,0,.52-1.74V27.66Z" transform="translate(2.85)"/><path d="M228.07,36.86v-1l3.72-4.15a15.07,15.07,0,0,0,1.07-1.3,3.91,3.91,0,0,0,.53-1,2.58,2.58,0,0,0,.15-.88,2.24,2.24,0,0,0-.23-1,1.77,1.77,0,0,0-.68-.73,2,2,0,0,0-1-.27,2.17,2.17,0,0,0-1.69.63,2.4,2.4,0,0,0-.58,1.7h-1.46a3.66,3.66,0,0,1,.43-1.78,3.08,3.08,0,0,1,1.27-1.26,4.14,4.14,0,0,1,2-.46,4,4,0,0,1,1.82.38,2.73,2.73,0,0,1,1.19,1.06,3,3,0,0,1,.42,1.6,3.9,3.9,0,0,1-.58,1.93,11.93,11.93,0,0,1-1.56,2.07l-3,3.32h5.7v1.17Z" transform="translate(2.85)"/><path d="M243.28,35.85A3.17,3.17,0,0,1,240.62,37,3.24,3.24,0,0,1,238,35.84,6.2,6.2,0,0,1,237,32V30.26a6,6,0,0,1,.93-3.79,3.7,3.7,0,0,1,5.34,0,6.11,6.11,0,0,1,.92,3.79V32A6.3,6.3,0,0,1,243.28,35.85Zm-1.07-8.53a1.76,1.76,0,0,0-1.6-.82,1.79,1.79,0,0,0-1.6.83,5.09,5.09,0,0,0-.54,2.69v2.21A5.33,5.33,0,0,0,239,35a1.77,1.77,0,0,0,1.6.87,1.73,1.73,0,0,0,1.6-.86,5.61,5.61,0,0,0,.52-2.75V30A5.22,5.22,0,0,0,242.21,27.32Z" transform="translate(2.85)"/><path d="M256.72,28.57l-3.38,8.29h-1.55l3.33-8h-5.4v-4h1.45v2.8h5.55Z" transform="translate(2.85)"/><path d="M259.41,28.82h-1.69V27.66h3.14v5.13h-1.45Z" transform="translate(2.85)"/><path d="M262.28,36.9V35.56a3.19,3.19,0,0,0,.45,0,2.72,2.72,0,0,0,1.83-.68,3,3,0,0,0,.9-1.68V28.82h-2.08V27.66h3.51v4.75a6.46,6.46,0,0,0,.15,1.4l.64,3h-1.37l-.54-2.58h0a2.94,2.94,0,0,1-.53,1.3,3.06,3.06,0,0,1-1.1,1,3,3,0,0,1-1.44.36Z" transform="translate(2.85)"/><path d="M12.9,28.82H11.22V27.66h3.14v5.13H12.9Z" transform="translate(2.85)"/><path d="M20.83,30.44a1.58,1.58,0,0,0-.45-1.19,1.62,1.62,0,0,0-1.2-.43h-3.1V27.66h3.14a3.64,3.64,0,0,1,1.64.34,2.45,2.45,0,0,1,1.05,1,3.16,3.16,0,0,1,.36,1.56v6.31H20.83Z" transform="translate(2.85)"/><path d="M31.51,35.75v1.11H23.94V35.69h5V31.08a2.42,2.42,0,0,0-.53-1.73,2.43,2.43,0,0,0-1.74-.53H24.44V27.66h2.31a3.81,3.81,0,0,1,2.72.87,3.42,3.42,0,0,1,.92,2.59v4.51Z" transform="translate(2.85)"/><path d="M39.74,27.66v5.51a4.1,4.1,0,0,1-.51,2.11,3.18,3.18,0,0,1-1.44,1.32,4.85,4.85,0,0,1-2.14.45,9.26,9.26,0,0,1-3.28-.64l.35-1.08a8.56,8.56,0,0,0,2.45.59,3.44,3.44,0,0,1-.77-1.55l-1.53-6.71h1.46l1.49,6.78a6.67,6.67,0,0,0,.21.81,2.74,2.74,0,0,0,.27.6A2.46,2.46,0,0,0,37.77,35a2.75,2.75,0,0,0,.52-1.74V27.66Z" transform="translate(2.85)"/><path d="M46.07,36.86v-1l3.72-4.15a15.07,15.07,0,0,0,1.07-1.3,3.91,3.91,0,0,0,.53-1,2.58,2.58,0,0,0,.15-.88,2.24,2.24,0,0,0-.23-1,1.77,1.77,0,0,0-.68-.73,2,2,0,0,0-1.05-.27,2.17,2.17,0,0,0-1.69.63,2.4,2.4,0,0,0-.58,1.7H45.85a3.66,3.66,0,0,1,.43-1.78,3.08,3.08,0,0,1,1.27-1.26,4.14,4.14,0,0,1,2-.46,4,4,0,0,1,1.82.38,2.73,2.73,0,0,1,1.19,1.06,3,3,0,0,1,.42,1.6,3.9,3.9,0,0,1-.58,1.93,11.93,11.93,0,0,1-1.56,2.07l-3,3.32h5.7v1.17Z" transform="translate(2.85)"/><path d="M58.36,36.86V27.21l-2.91,1.07V27l4.14-1.56h.23V36.86Z" transform="translate(2.85)"/><path d="M74.72,28.57l-3.38,8.29H69.79l3.33-8h-5.4v-4h1.45v2.8h5.55Z" transform="translate(2.85)"/><path d="M77.41,28.82H75.72V27.66h3.14v5.13H77.41Z" transform="translate(2.85)"/><path d="M80.28,36.9V35.56a3.19,3.19,0,0,0,.45,0,2.72,2.72,0,0,0,1.83-.68,3,3,0,0,0,.9-1.68V28.82H81.38V27.66h3.51v4.75a6.46,6.46,0,0,0,.15,1.4l.64,3H84.31l-.54-2.58h0a2.94,2.94,0,0,1-.53,1.3,3.06,3.06,0,0,1-1.1,1,3,3,0,0,1-1.44.36Z" transform="translate(2.85)"/><path class="cls-3" d="M202.16,86.86V85.24l3.68-3.89A8.91,8.91,0,0,0,207,79.89a2.29,2.29,0,0,0,.33-1.09,1.67,1.67,0,0,0-.37-1.16,1.33,1.33,0,0,0-1-.42,1.48,1.48,0,0,0-.84.24,1.44,1.44,0,0,0-.54.67,2.25,2.25,0,0,0-.19,1h-2.36a3.76,3.76,0,0,1,.49-1.9,3.69,3.69,0,0,1,1.4-1.37,4.31,4.31,0,0,1,2.09-.5,4.82,4.82,0,0,1,2,.39,2.74,2.74,0,0,1,1.26,1.11,3.4,3.4,0,0,1,.43,1.76,3.56,3.56,0,0,1-.3,1.43,6.21,6.21,0,0,1-.84,1.39c-.37.46-.84,1-1.42,1.6l-1.88,2H210v1.9Z" transform="translate(2.85)"/><path class="cls-3" d="M218.6,84.89a3.32,3.32,0,0,1-1.34,1.61,3.91,3.91,0,0,1-2,.51,4,4,0,0,1-2.05-.51,3.47,3.47,0,0,1-1.36-1.61,6.73,6.73,0,0,1-.48-2.72v-2a6.69,6.69,0,0,1,.48-2.72,3.42,3.42,0,0,1,1.35-1.6,4.36,4.36,0,0,1,4.09,0,3.42,3.42,0,0,1,1.35,1.6,6.69,6.69,0,0,1,.48,2.72v2A6.73,6.73,0,0,1,218.6,84.89Zm-2.26-7.06a1.27,1.27,0,0,0-1.14-.6,1.26,1.26,0,0,0-1.13.6,4,4,0,0,0-.38,2v2.65a3.94,3.94,0,0,0,.39,2,1.26,1.26,0,0,0,1.14.61,1.24,1.24,0,0,0,1.12-.61,4.06,4.06,0,0,0,.38-2V79.83A4,4,0,0,0,216.34,77.83Z" transform="translate(2.85)"/><path class="cls-3" d="M232.55,90.11h-2.42V79.4h-2.24a5.38,5.38,0,0,0-.33,1.9v.78a2.92,2.92,0,0,0,.83.08V83.8a4.77,4.77,0,0,1-.94.08,5.45,5.45,0,0,1-1.23-.14,3.55,3.55,0,0,1-1-.43V82.12a6.38,6.38,0,0,1,.15-1.52,3.77,3.77,0,0,1,.45-1.2h-1V77.49h7.73Z" transform="translate(2.85)"/><path class="cls-3" d="M235.69,79.4h-1.47V77.49h3.92v5.34h-2.45Z" transform="translate(2.85)"/><path class="cls-3" d="M248.07,77.49v5.37a4.45,4.45,0,0,1-.57,2.31,3.59,3.59,0,0,1-1.6,1.43,5.57,5.57,0,0,1-2.39.48,10.46,10.46,0,0,1-3.72-.68l.51-1.79a9.46,9.46,0,0,0,2.13.58,2.68,2.68,0,0,1-.49-.61,2.47,2.47,0,0,1-.29-.72l-1.45-6.37h2.47l1.38,6.61a4.3,4.3,0,0,0,.31.94,1.87,1.87,0,0,0,.93-.77,2.38,2.38,0,0,0,.33-1.29V77.49Z" transform="translate(2.85)"/><path class="cls-3" d="M252.49,86.5A3.81,3.81,0,0,1,251,85a4.86,4.86,0,0,1-.56-2.3v-.57a4.18,4.18,0,0,1,.27-1.42,3.41,3.41,0,0,1,.64-1.15l.13-.12,0,0c-.19,0-.6.13-1.21.29l-.46-1.78a15.36,15.36,0,0,1,2.19-.44,17.9,17.9,0,0,1,2.34-.17,4.58,4.58,0,0,1,3.36,1.15,4.47,4.47,0,0,1,1.17,3.33v.92a4.85,4.85,0,0,1-.52,2.3,3.75,3.75,0,0,1-1.48,1.55,4.41,4.41,0,0,1-2.2.55A4.29,4.29,0,0,1,252.49,86.5Zm3.08-1.77a1.9,1.9,0,0,0,.62-.83,3.39,3.39,0,0,0,.22-1.24v-.88A3.22,3.22,0,0,0,256,79.9a1.5,1.5,0,0,0-1.31-.65,1.43,1.43,0,0,0-1.28.69,3.58,3.58,0,0,0-.46,2v.75a3.19,3.19,0,0,0,.22,1.24,1.82,1.82,0,0,0,.62.83,1.59,1.59,0,0,0,1.83,0Z" transform="translate(2.85)"/><path class="cls-3" d="M18.58,71.61a2.59,2.59,0,0,1,.71,2V78H17.46V73.45a1.19,1.19,0,0,0-.24-.81.88.88,0,0,0-.71-.27h-.91a4.7,4.7,0,0,0-.14.71,6.4,6.4,0,0,0,0,.73v2A2.68,2.68,0,0,1,15.15,77a1.81,1.81,0,0,1-.73.77,2.33,2.33,0,0,1-1.15.26,4.81,4.81,0,0,1-.89-.08V76.57l.38,0c.57,0,.85-.3.85-.91V74a3.73,3.73,0,0,1,.11-.84,2.48,2.48,0,0,1,.29-.77H12.92V70.94h3.57A3,3,0,0,1,18.58,71.61Z" transform="translate(2.85)"/><path class="cls-3" d="M21.13,72.37h-.61V70.94H23v7H21.13Z" transform="translate(2.85)"/><path class="cls-3" d="M27.27,73.33a.94.94,0,0,0-.26-.71,1.06,1.06,0,0,0-.76-.25H24.13V70.94h2.25a3.32,3.32,0,0,1,1.47.3,2.16,2.16,0,0,1,.94.85,2.67,2.67,0,0,1,.32,1.33V78H27.27Z" transform="translate(2.85)"/><path class="cls-3" d="M31.29,72.37h-1.1V70.94h2.94v4H31.29Z" transform="translate(2.85)"/><path class="cls-3" d="M36.75,76.28a6.18,6.18,0,0,0,1.08.34,4.79,4.79,0,0,0,1.07.13,3.38,3.38,0,0,0,2-.54,1.89,1.89,0,0,0,.75-1.64V70.94h1.78v3.84a3,3,0,0,1-.59,1.87,3.61,3.61,0,0,1-1.61,1.15,6.25,6.25,0,0,1-2.27.39A9,9,0,0,1,37,78a9.53,9.53,0,0,1-2-.68V70.94h1.78Zm1.48-1.18a6.17,6.17,0,0,0,.06-.9V70.94h1.78v2.87a4.46,4.46,0,0,1-.14,1.12,2.11,2.11,0,0,1-.38.81h-1.5A1.84,1.84,0,0,0,38.23,75.1Z" transform="translate(2.85)"/><path class="cls-3" d="M45.77,74a3.52,3.52,0,0,1,.24-.9,2,2,0,0,1,.43-.67.23.23,0,0,1,.08-.07v0l-.54.13c-.21.06-.4.12-.55.18L45,71.32a8.37,8.37,0,0,1,1.59-.4,9.66,9.66,0,0,1,1.72-.16,3.37,3.37,0,0,1,2.43.82A3.23,3.23,0,0,1,51.61,74v4H48.54V76.54h1.23v-2.8a1.83,1.83,0,0,0-.29-1.09.93.93,0,0,0-.8-.39.9.9,0,0,0-.77.39,2.28,2.28,0,0,0-.36,1.13L47.14,78H45.32Z" transform="translate(2.85)"/><path class="cls-3" d="M58.73,73.33a.91.91,0,0,0-.27-.71,1,1,0,0,0-.76-.25H55.59V70.94h2.25a3.31,3.31,0,0,1,1.46.3,2.16,2.16,0,0,1,.94.85,2.57,2.57,0,0,1,.33,1.33V78H58.73Z" transform="translate(2.85)"/><path class="cls-3" d="M62.41,72.37h-.62V70.94h2.46v7H62.41Z" transform="translate(2.85)"/><path class="cls-3" d="M67.62,77.73a2.69,2.69,0,0,1-1.08-1.06,3.17,3.17,0,0,1-.38-1.59V70.94H68v4.35a1.75,1.75,0,0,0,.15.74,1.16,1.16,0,0,0,1.06.67,1.18,1.18,0,0,0,.65-.18,1.29,1.29,0,0,0,.43-.49,1.75,1.75,0,0,0,.15-.74v-2c0-.61-.27-.92-.8-.92a3,3,0,0,0-.64.09l-.17-1.17a3,3,0,0,1,1.46-.41,2,2,0,0,1,1.06.27,1.75,1.75,0,0,1,.69.78,2.81,2.81,0,0,1,.24,1.21v2a3.28,3.28,0,0,1-.38,1.59,2.69,2.69,0,0,1-1.08,1.06,3.56,3.56,0,0,1-3.2,0Z" transform="translate(2.85)"/><path class="cls-3" d="M75.16,78a7.38,7.38,0,0,1-1.31-.32l.34-1.35a8.92,8.92,0,0,0,1.14.25,8,8,0,0,0,1,.08,1.89,1.89,0,0,0,1.27-.38A1.42,1.42,0,0,0,78,75.17v-2.8H75.94a3.68,3.68,0,0,0-.25,1.33V74a2,2,0,0,0,.63.06v1.23a4.2,4.2,0,0,1-.72.06,3.93,3.93,0,0,1-.92-.11,2.66,2.66,0,0,1-.77-.32v-.65A4.7,4.7,0,0,1,74,73.23a2.86,2.86,0,0,1,.33-.86h-.72V70.94h6.23v4a3.4,3.4,0,0,1-.45,1.83,2.62,2.62,0,0,1-1.21,1,4.13,4.13,0,0,1-1.74.34A7.87,7.87,0,0,1,75.16,78Z" transform="translate(2.85)"/><path class="cls-3" d="M30.84,86.77H30.2V85.34h2.44v9.47h-1.8Z" transform="translate(2.85)"/><path class="cls-3" d="M34.66,86.77h-.61V85.34H36.5v7H34.66Z" transform="translate(2.85)"/><path class="cls-3" d="M38.42,85.34h3.06a2.94,2.94,0,0,1,2.08.67,2.69,2.69,0,0,1,.72,2v4.37H42.44V87.85c0-.72-.31-1.08-1-1.08H40.25v5.6H38.41Z" transform="translate(2.85)"/><path class="cls-3" d="M47.47,92.13a2.66,2.66,0,0,1-1.07-1.06A3.18,3.18,0,0,1,46,89.48V85.34h1.84v4.35a1.61,1.61,0,0,0,.16.74,1.14,1.14,0,0,0,.43.49,1.11,1.11,0,0,0,.63.18,1.16,1.16,0,0,0,1.07-.67,1.61,1.61,0,0,0,.16-.74v-2c0-.61-.27-.92-.8-.92a3,3,0,0,0-.64.09l-.18-1.17a3.11,3.11,0,0,1,.72-.3,3,3,0,0,1,.74-.11,2,2,0,0,1,1.07.27,1.75,1.75,0,0,1,.69.78,2.81,2.81,0,0,1,.24,1.21v2a3.28,3.28,0,0,1-.38,1.59,2.75,2.75,0,0,1-1.08,1.06,3.32,3.32,0,0,1-1.6.38A3.36,3.36,0,0,1,47.47,92.13Z" transform="translate(2.85)"/><path class="cls-3" d="M54.12,86.77H53V85.34H56v4H54.12Z" transform="translate(2.85)"/><path class="cls-3" d="M63.2,91v1.37h-6V90.93h3.38v-3.1a1.07,1.07,0,0,0-.27-.8,1.23,1.23,0,0,0-.85-.26H57.53V85.34h2a3.39,3.39,0,0,1,1.53.31,2.16,2.16,0,0,1,1,.87,2.79,2.79,0,0,1,.33,1.4v3Z" transform="translate(2.85)"/></g><g id="Layer_5" data-name="Layer 5"><line class="cls-4" y1="13" x2="647" y2="13"/></g></g></svg>