<svg xmlns="http://www.w3.org/2000/svg" viewBox="0 0 647 91.81"><defs><style>.cls-1{fill:#e71d36;}.cls-2,.cls-3,.cls-4{fill:none;}.cls-2{stroke:#2ec4b6;stroke-width:2px;}.cls-2,.cls-3{stroke-miterlimit:8;}.cls-3{stroke:#e71d36;stroke-width:2.28px;}</style></defs><g id="Layer_2" data-name="Layer 2"><g id="example_2" data-name="example 2"><path d="M555.67,26.19a3.62,3.62,0,0,1-5.33,0,6.17,6.17,0,0,1-.94-3.84V20.61a6.14,6.14,0,0,1,.92-3.8,3.7,3.7,0,0,1,5.34,0,6.07,6.07,0,0,1,.93,3.8v1.74A6.3,6.3,0,0,1,555.67,26.19Zm-1.07-8.52a2,2,0,0,0-3.21,0,5.22,5.22,0,0,0-.53,2.7v2.21a5.21,5.21,0,0,0,.55,2.73,1.89,1.89,0,0,0,3.19,0,5.44,5.44,0,0,0,.53-2.74V20.37A5.22,5.22,0,0,0,554.6,17.67Z" transform="translate(3)"/><path d="M561.73,27.2V17.55l-2.9,1.07v-1.3L563,15.76h.23V27.2Z" transform="translate(3)"/><path d="M569.18,25.81a.92.92,0,0,1,.23.63.84.84,0,0,1-.23.61.92.92,0,0,1-.67.24.89.89,0,0,1-.66-.24.82.82,0,0,1-.24-.61.83.83,0,0,1,.9-.87A.92.92,0,0,1,569.18,25.81Z" transform="translate(3)"/><path d="M577.88,26.19a3.18,3.18,0,0,1-2.66,1.17,3.21,3.21,0,0,1-2.67-1.17,6.17,6.17,0,0,1-.94-3.84V20.61a6.07,6.07,0,0,1,.93-3.8,3.21,3.21,0,0,1,2.66-1.14,3.25,3.25,0,0,1,2.68,1.14,6.14,6.14,0,0,1,.92,3.8v1.74A6.3,6.3,0,0,1,577.88,26.19Zm-1.07-8.52a1.78,1.78,0,0,0-1.61-.83,1.76,1.76,0,0,0-1.59.83,5.11,5.11,0,0,0-.54,2.7v2.21a5.21,5.21,0,0,0,.55,2.73,1.76,1.76,0,0,0,1.6.88,1.73,1.73,0,0,0,1.59-.87,5.44,5.44,0,0,0,.53-2.74V20.37A5.22,5.22,0,0,0,576.81,17.67Z" transform="translate(3)"/><path d="M584,27.2V17.55L581,18.62v-1.3l4.14-1.56h.23V27.2Z" transform="translate(3)"/><path d="M591.39,25.81a.93.93,0,0,1,.24.63.84.84,0,0,1-.24.61.92.92,0,0,1-.67.24.89.89,0,0,1-.66-.24.82.82,0,0,1-.24-.61.83.83,0,0,1,.9-.87A.92.92,0,0,1,591.39,25.81Z" transform="translate(3)"/><path d="M593.87,27.2v-1L597.59,22a13.68,13.68,0,0,0,1.07-1.3,4.05,4.05,0,0,0,.53-.95,2.68,2.68,0,0,0,.15-.89,2.2,2.2,0,0,0-.23-1,1.8,1.8,0,0,0-.68-.74,2,2,0,0,0-1-.27,2.16,2.16,0,0,0-1.69.63,2.42,2.42,0,0,0-.58,1.7h-1.46a3.62,3.62,0,0,1,.43-1.77,3.17,3.17,0,0,1,1.27-1.27,4.26,4.26,0,0,1,2-.46,4.11,4.11,0,0,1,1.82.38,2.75,2.75,0,0,1,1.19,1.07,3,3,0,0,1,.41,1.59,3.88,3.88,0,0,1-.57,1.93,11.22,11.22,0,0,1-1.56,2.07l-3,3.32h5.7V27.2Z" transform="translate(3)"/><path d="M609.08,26.19a3.18,3.18,0,0,1-2.66,1.17,3.24,3.24,0,0,1-2.67-1.17,6.24,6.24,0,0,1-.94-3.84V20.61a6.07,6.07,0,0,1,.93-3.8,3.7,3.7,0,0,1,5.34,0,6.14,6.14,0,0,1,.92,3.8v1.74A6.3,6.3,0,0,1,609.08,26.19ZM608,17.67a2,2,0,0,0-3.2,0,5.11,5.11,0,0,0-.54,2.7v2.21a5.32,5.32,0,0,0,.55,2.73,1.9,1.9,0,0,0,3.2,0,5.57,5.57,0,0,0,.52-2.74V20.37A5.22,5.22,0,0,0,608,17.67Z" transform="translate(3)"/><path d="M611.85,27.2v-1L615.58,22a15.44,15.44,0,0,0,1.07-1.3,4.46,4.46,0,0,0,.53-.95,2.68,2.68,0,0,0,.15-.89,2.2,2.2,0,0,0-.24-1,1.73,1.73,0,0,0-.68-.74,2,2,0,0,0-1-.27,2.19,2.19,0,0,0-1.69.63,2.47,2.47,0,0,0-.58,1.7h-1.46a3.74,3.74,0,0,1,.43-1.77,3.19,3.19,0,0,1,1.28-1.27,4.63,4.63,0,0,1,3.85-.08,2.81,2.81,0,0,1,1.19,1.07,3.06,3.06,0,0,1,.41,1.59,3.8,3.8,0,0,1-.58,1.93,11.6,11.6,0,0,1-1.55,2.07l-3,3.32h5.7V27.2Z" transform="translate(3)"/><path d="M624.14,27.2V17.55l-2.91,1.07v-1.3l4.15-1.56h.22V27.2Z" transform="translate(3)"/><path d="M553.05,38.36h-1.69V37.2h3.14v5.13h-1.45Z" transform="translate(3)"/><path d="M561,40a1.58,1.58,0,0,0-.44-1.18,1.65,1.65,0,0,0-1.21-.44h-3.09V37.2h3.14a3.6,3.6,0,0,1,1.63.34,2.4,2.4,0,0,1,1,1,3.1,3.1,0,0,1,.37,1.56V46.4H561Z" transform="translate(3)"/><path d="M571.65,45.29V46.4h-7.56V45.23h5v-4.6a2,2,0,0,0-2.27-2.27h-2.23V37.2h2.3a3.84,3.84,0,0,1,2.73.87,3.45,3.45,0,0,1,.92,2.6v4.5Z" transform="translate(3)"/><path d="M579.89,37.2v5.51a4.24,4.24,0,0,1-.51,2.12,3.4,3.4,0,0,1-1.44,1.32,4.86,4.86,0,0,1-2.15.45,9.23,9.23,0,0,1-3.27-.65l.35-1.08a8.17,8.17,0,0,0,2.45.59,3.41,3.41,0,0,1-.78-1.55L573,37.2h1.45L576,44a6.31,6.31,0,0,0,.22.8,2.74,2.74,0,0,0,.27.6,2.47,2.47,0,0,0,1.46-.88,2.7,2.7,0,0,0,.53-1.74V37.2Z" transform="translate(3)"/><path d="M589.51,46.4V36.75l-2.9,1.07v-1.3L590.75,35H591V46.4Z" transform="translate(3)"/><path d="M601.86,41.66a2.77,2.77,0,0,1,.52,1.66,3.2,3.2,0,0,1-.47,1.75,3,3,0,0,1-1.3,1.11,4.69,4.69,0,0,1-3.7,0,3,3,0,0,1-1.3-1.11,3.2,3.2,0,0,1-.47-1.75,2.87,2.87,0,0,1,.51-1.67,3.18,3.18,0,0,1,1.4-1.12,2.93,2.93,0,0,1-1.21-1,2.69,2.69,0,0,1-.44-1.5,3.13,3.13,0,0,1,.43-1.68A2.8,2.8,0,0,1,597,35.24a4.28,4.28,0,0,1,3.48,0,2.8,2.8,0,0,1,1.18,1.08,3.07,3.07,0,0,1,.43,1.67,2.75,2.75,0,0,1-.44,1.51,3.1,3.1,0,0,1-1.22,1A3.34,3.34,0,0,1,601.86,41.66Zm-1.52,3.17a2,2,0,0,0,.58-1.54,2.22,2.22,0,0,0-.28-1.12,1.92,1.92,0,0,0-.76-.76,2.36,2.36,0,0,0-1.13-.27,2.32,2.32,0,0,0-1.14.27,1.87,1.87,0,0,0-.74.76,2.29,2.29,0,0,0-.26,1.12,2,2,0,0,0,.57,1.54,2.51,2.51,0,0,0,3.16,0Zm-2.57-8.55a1.71,1.71,0,0,0-.67.69,2.19,2.19,0,0,0-.24,1,2.08,2.08,0,0,0,.24,1,1.57,1.57,0,0,0,.67.68,1.89,1.89,0,0,0,1,.25,1.87,1.87,0,0,0,1-.25,1.63,1.63,0,0,0,.67-.68,2.19,2.19,0,0,0,.23-1,2.12,2.12,0,0,0-.24-1,1.78,1.78,0,0,0-.66-.7,1.92,1.92,0,0,0-1-.26A2,2,0,0,0,597.77,36.28Z" transform="translate(3)"/><path d="M614.86,38.11l-3.37,8.29h-1.56l3.34-8h-5.4v-4h1.45v2.8h5.54Z" transform="translate(3)"/><path d="M617.56,38.36h-1.69V37.2H619v5.13h-1.45Z" transform="translate(3)"/><path d="M620.43,46.44V45.1a2.15,2.15,0,0,0,.45,0,2.68,2.68,0,0,0,1.83-.69,3,3,0,0,0,.9-1.67V38.36h-2.08V37.2H625V42a6.46,6.46,0,0,0,.14,1.4l.64,3h-1.36l-.54-2.58h-.06a2.85,2.85,0,0,1-.52,1.31,3.22,3.22,0,0,1-1.1,1,3,3,0,0,1-1.45.36A1.68,1.68,0,0,1,620.43,46.44Z" transform="translate(3)"/><path d="M377.14,26.19a3.18,3.18,0,0,1-2.66,1.17,3.21,3.21,0,0,1-2.67-1.17,6.17,6.17,0,0,1-.94-3.84V20.61a6.07,6.07,0,0,1,.93-3.8,3.21,3.21,0,0,1,2.66-1.14,3.25,3.25,0,0,1,2.68,1.14,6.14,6.14,0,0,1,.92,3.8v1.74A6.3,6.3,0,0,1,377.14,26.19Zm-1.07-8.52a2,2,0,0,0-3.2,0,5.11,5.11,0,0,0-.54,2.7v2.21a5.32,5.32,0,0,0,.55,2.73,1.76,1.76,0,0,0,1.6.88,1.71,1.71,0,0,0,1.59-.87,5.44,5.44,0,0,0,.53-2.74V20.37A5.22,5.22,0,0,0,376.07,17.67Z" transform="translate(3)"/><path d="M383.21,27.2V17.55l-2.91,1.07v-1.3l4.14-1.56h.23V27.2Z" transform="translate(3)"/><path d="M390.65,25.81a.88.88,0,0,1,.24.63.81.81,0,0,1-.24.61,1,1,0,0,1-1.33,0,.82.82,0,0,1-.24-.61.83.83,0,0,1,.9-.87A.9.9,0,0,1,390.65,25.81Z" transform="translate(3)"/><path d="M399.35,26.19a3.18,3.18,0,0,1-2.66,1.17A3.22,3.22,0,0,1,394,26.19a6.17,6.17,0,0,1-.94-3.84V20.61a6.07,6.07,0,0,1,.93-3.8,3.7,3.7,0,0,1,5.34,0,6.14,6.14,0,0,1,.92,3.8v1.74A6.3,6.3,0,0,1,399.35,26.19Zm-1.07-8.52a2,2,0,0,0-3.2,0,5.11,5.11,0,0,0-.54,2.7v2.21a5.32,5.32,0,0,0,.55,2.73,1.77,1.77,0,0,0,1.6.88,1.74,1.74,0,0,0,1.6-.87,5.57,5.57,0,0,0,.52-2.74V20.37A5.22,5.22,0,0,0,398.28,17.67Z" transform="translate(3)"/><path d="M405.42,27.2V17.55l-2.91,1.07v-1.3l4.14-1.56h.23V27.2Z" transform="translate(3)"/><path d="M412.86,25.81a.88.88,0,0,1,.24.63.81.81,0,0,1-.24.61,1,1,0,0,1-1.33,0,.82.82,0,0,1-.24-.61.83.83,0,0,1,.9-.87A.9.9,0,0,1,412.86,25.81Z" transform="translate(3)"/><path d="M415.34,27.2v-1L419.07,22a15.44,15.44,0,0,0,1.07-1.3,4,4,0,0,0,.52-.95,2.46,2.46,0,0,0,.16-.89,2.2,2.2,0,0,0-.24-1,1.73,1.73,0,0,0-.68-.74,2,2,0,0,0-1-.27,2.19,2.19,0,0,0-1.69.63,2.47,2.47,0,0,0-.58,1.7h-1.46a3.74,3.74,0,0,1,.43-1.77,3.23,3.23,0,0,1,1.27-1.27,4.28,4.28,0,0,1,2-.46,4.18,4.18,0,0,1,1.83.38,2.73,2.73,0,0,1,1.18,1.07,3,3,0,0,1,.42,1.59,3.8,3.8,0,0,1-.58,1.93,11.22,11.22,0,0,1-1.56,2.07l-3,3.32h5.7V27.2Z" transform="translate(3)"/><path d="M430.55,26.19a3.17,3.17,0,0,1-2.66,1.17,3.24,3.24,0,0,1-2.67-1.17,6.24,6.24,0,0,1-.93-3.84V20.61a6.07,6.07,0,0,1,.92-3.8,3.7,3.7,0,0,1,5.34,0,6.07,6.07,0,0,1,.92,3.8v1.74A6.23,6.23,0,0,1,430.55,26.19Zm-1.07-8.52a1.77,1.77,0,0,0-1.6-.83,1.79,1.79,0,0,0-1.6.83,5.22,5.22,0,0,0-.53,2.7v2.21a5.33,5.33,0,0,0,.54,2.73,1.77,1.77,0,0,0,1.6.88,1.74,1.74,0,0,0,1.6-.87,5.46,5.46,0,0,0,.52-2.74V20.37A5.12,5.12,0,0,0,429.48,17.67Z" transform="translate(3)"/><path d="M433.32,27.2v-1L437.05,22a13.68,13.68,0,0,0,1.07-1.3,4.05,4.05,0,0,0,.53-.95,2.68,2.68,0,0,0,.15-.89,2.33,2.33,0,0,0-.23-1,1.87,1.87,0,0,0-.68-.74,2,2,0,0,0-1.06-.27,2.19,2.19,0,0,0-1.69.63,2.46,2.46,0,0,0-.57,1.7h-1.46a3.62,3.62,0,0,1,.43-1.77,3.17,3.17,0,0,1,1.27-1.27,4.24,4.24,0,0,1,2-.46,4.15,4.15,0,0,1,1.83.38,2.75,2.75,0,0,1,1.19,1.07,3,3,0,0,1,.41,1.59,3.88,3.88,0,0,1-.57,1.93,11.69,11.69,0,0,1-1.56,2.07L435.08,26h5.71V27.2Z" transform="translate(3)"/><path d="M442.32,27.2v-1L446,22a13.68,13.68,0,0,0,1.07-1.3,4.05,4.05,0,0,0,.53-.95,2.68,2.68,0,0,0,.15-.89,2.33,2.33,0,0,0-.23-1,1.8,1.8,0,0,0-.68-.74,2,2,0,0,0-1.06-.27,2.17,2.17,0,0,0-1.68.63,2.42,2.42,0,0,0-.58,1.7H442.1a3.62,3.62,0,0,1,.43-1.77,3.17,3.17,0,0,1,1.27-1.27,4.24,4.24,0,0,1,2-.46,4.12,4.12,0,0,1,1.83.38,2.75,2.75,0,0,1,1.19,1.07,3,3,0,0,1,.41,1.59,3.88,3.88,0,0,1-.57,1.93,11.22,11.22,0,0,1-1.56,2.07L444.07,26h5.71V27.2Z" transform="translate(3)"/><path d="M374.52,38.36h-1.68V37.2H376v5.13h-1.46Z" transform="translate(3)"/><path d="M382.45,40A1.54,1.54,0,0,0,382,38.8a1.62,1.62,0,0,0-1.2-.44h-3.1V37.2h3.14a3.64,3.64,0,0,1,1.64.34,2.4,2.4,0,0,1,1,1,3.21,3.21,0,0,1,.36,1.56V46.4h-1.44Z" transform="translate(3)"/><path d="M393.13,45.29V46.4h-7.57V45.23h5v-4.6a1.94,1.94,0,0,0-2.27-2.27h-2.23V37.2h2.31a3.81,3.81,0,0,1,2.72.87,3.45,3.45,0,0,1,.92,2.6v4.5Z" transform="translate(3)"/><path d="M401.36,37.2v5.51a4.13,4.13,0,0,1-.51,2.12,3.29,3.29,0,0,1-1.44,1.32,4.85,4.85,0,0,1-2.14.45A9.28,9.28,0,0,1,394,46l.35-1.08a8.24,8.24,0,0,0,2.45.59,3.39,3.39,0,0,1-.77-1.55l-1.53-6.71H396L397.44,44c.07.32.14.58.21.8a2.74,2.74,0,0,0,.27.6,2.46,2.46,0,0,0,1.47-.88,2.75,2.75,0,0,0,.52-1.74V37.2Z" transform="translate(3)"/><path d="M411,46.4V36.75l-2.9,1.07v-1.3L412.22,35h.23V46.4Z" transform="translate(3)"/><path d="M422.11,35.51a3.75,3.75,0,0,1,1.19,1.69,6.62,6.62,0,0,1,.38,2.26V40a11.39,11.39,0,0,1-.41,3.17,4.44,4.44,0,0,1-1.6,2.32,5.42,5.42,0,0,1-3.4.93h-.15V45.2h.15a3.77,3.77,0,0,0,3-1,4.52,4.52,0,0,0,.93-2.76,3.59,3.59,0,0,1-1.1.88,3,3,0,0,1-1.35.32,2.91,2.91,0,0,1-1.81-.55,3.25,3.25,0,0,1-1.09-1.41,4.71,4.71,0,0,1-.35-1.84,4.83,4.83,0,0,1,.4-2,3.25,3.25,0,0,1,1.21-1.41,3.4,3.4,0,0,1,1.92-.52A3.23,3.23,0,0,1,422.11,35.51ZM421.32,41a2.74,2.74,0,0,0,.91-1.12v-.57a4.5,4.5,0,0,0-.3-1.73,2.5,2.5,0,0,0-.8-1.11,1.7,1.7,0,0,0-1.08-.38,1.89,1.89,0,0,0-1.13.34,2.17,2.17,0,0,0-.72,1,3.49,3.49,0,0,0-.25,1.37,3.59,3.59,0,0,0,.23,1.32,2.22,2.22,0,0,0,.69,1,1.75,1.75,0,0,0,1.13.38A2.2,2.2,0,0,0,421.32,41Z" transform="translate(3)"/><path d="M436.34,38.11,433,46.4h-1.55l3.33-8h-5.4v-4h1.45v2.8h5.55Z" transform="translate(3)"/><path d="M439,38.36h-1.69V37.2h3.14v5.13H439Z" transform="translate(3)"/><path d="M441.9,46.44V45.1a2.15,2.15,0,0,0,.45,0,2.68,2.68,0,0,0,1.83-.69,3,3,0,0,0,.9-1.67V38.36H443V37.2h3.51V42a6.46,6.46,0,0,0,.15,1.4l.64,3h-1.37l-.54-2.58h-.05a3,3,0,0,1-.53,1.31,3.13,3.13,0,0,1-1.1,1,3,3,0,0,1-1.44.36A1.79,1.79,0,0,1,441.9,46.44Z" transform="translate(3)"/><path d="M197.14,26.19a3.18,3.18,0,0,1-2.66,1.17,3.21,3.21,0,0,1-2.67-1.17,6.17,6.17,0,0,1-.94-3.84V20.61a6.07,6.07,0,0,1,.93-3.8,3.7,3.7,0,0,1,5.34,0,6.14,6.14,0,0,1,.92,3.8v1.74A6.3,6.3,0,0,1,197.14,26.19Zm-1.07-8.52a2,2,0,0,0-3.2,0,5.11,5.11,0,0,0-.54,2.7v2.21a5.32,5.32,0,0,0,.55,2.73,1.76,1.76,0,0,0,1.6.88,1.72,1.72,0,0,0,1.59-.87,5.44,5.44,0,0,0,.53-2.74V20.37A5.22,5.22,0,0,0,196.07,17.67Z" transform="translate(3)"/><path d="M203.21,27.2V17.55l-2.91,1.07v-1.3l4.14-1.56h.23V27.2Z" transform="translate(3)"/><path d="M210.65,25.81a.88.88,0,0,1,.24.63.81.81,0,0,1-.24.61,1,1,0,0,1-1.33,0,.82.82,0,0,1-.24-.61.83.83,0,0,1,.9-.87A.9.9,0,0,1,210.65,25.81Z" transform="translate(3)"/><path d="M219.35,26.19a3.18,3.18,0,0,1-2.66,1.17A3.24,3.24,0,0,1,214,26.19a6.24,6.24,0,0,1-.94-3.84V20.61a6.07,6.07,0,0,1,.93-3.8,3.7,3.7,0,0,1,5.34,0,6.14,6.14,0,0,1,.92,3.8v1.74A6.3,6.3,0,0,1,219.35,26.19Zm-1.07-8.52a1.77,1.77,0,0,0-1.6-.83,1.79,1.79,0,0,0-1.6.83,5.11,5.11,0,0,0-.54,2.7v2.21a5.32,5.32,0,0,0,.55,2.73,1.76,1.76,0,0,0,1.6.88,1.74,1.74,0,0,0,1.6-.87,5.57,5.57,0,0,0,.52-2.74V20.37A5.22,5.22,0,0,0,218.28,17.67Z" transform="translate(3)"/><path d="M225.42,27.2V17.55l-2.91,1.07v-1.3l4.14-1.56h.23V27.2Z" transform="translate(3)"/><path d="M232.86,25.81a.88.88,0,0,1,.24.63.81.81,0,0,1-.24.61,1,1,0,0,1-1.33,0,.82.82,0,0,1-.24-.61.83.83,0,0,1,.9-.87A.9.9,0,0,1,232.86,25.81Z" transform="translate(3)"/><path d="M235.34,27.2v-1L239.07,22a15.44,15.44,0,0,0,1.07-1.3,4,4,0,0,0,.52-.95,2.46,2.46,0,0,0,.16-.89,2.2,2.2,0,0,0-.24-1,1.73,1.73,0,0,0-.68-.74,2,2,0,0,0-1.05-.27,2.19,2.19,0,0,0-1.69.63,2.42,2.42,0,0,0-.58,1.7h-1.46a3.74,3.74,0,0,1,.43-1.77,3.23,3.23,0,0,1,1.27-1.27,4.28,4.28,0,0,1,2-.46,4.18,4.18,0,0,1,1.83.38,2.73,2.73,0,0,1,1.18,1.07,3,3,0,0,1,.42,1.59,3.8,3.8,0,0,1-.58,1.93,11.6,11.6,0,0,1-1.55,2.07L237.1,26h5.7V27.2Z" transform="translate(3)"/><path d="M250.56,26.19a3.19,3.19,0,0,1-2.66,1.17,3.24,3.24,0,0,1-2.68-1.17,6.24,6.24,0,0,1-.93-3.84V20.61a6.07,6.07,0,0,1,.92-3.8,3.7,3.7,0,0,1,5.34,0,6.07,6.07,0,0,1,.92,3.8v1.74A6.3,6.3,0,0,1,250.56,26.19Zm-1.08-8.52a1.77,1.77,0,0,0-1.6-.83,1.79,1.79,0,0,0-1.6.83,5.22,5.22,0,0,0-.53,2.7v2.21a5.33,5.33,0,0,0,.54,2.73,1.78,1.78,0,0,0,1.61.88,1.73,1.73,0,0,0,1.59-.87,5.46,5.46,0,0,0,.52-2.74V20.37A5.12,5.12,0,0,0,249.48,17.67Z" transform="translate(3)"/><path d="M253.32,27.2v-1L257.05,22a13.68,13.68,0,0,0,1.07-1.3,4.05,4.05,0,0,0,.53-.95,2.68,2.68,0,0,0,.15-.89,2.33,2.33,0,0,0-.23-1,1.87,1.87,0,0,0-.68-.74,2,2,0,0,0-1.06-.27,2.15,2.15,0,0,0-1.68.63,2.42,2.42,0,0,0-.58,1.7h-1.46a3.62,3.62,0,0,1,.43-1.77,3.17,3.17,0,0,1,1.27-1.27,4.24,4.24,0,0,1,2-.46,4.12,4.12,0,0,1,1.83.38,2.75,2.75,0,0,1,1.19,1.07,3.06,3.06,0,0,1,.41,1.59,3.88,3.88,0,0,1-.57,1.93,11.22,11.22,0,0,1-1.56,2.07l-3,3.32h5.71V27.2Z" transform="translate(3)"/><path d="M268.87,22.42a3,3,0,0,1,.45,1.61,3.34,3.34,0,0,1-.46,1.79A3.1,3.1,0,0,1,267.57,27a4.09,4.09,0,0,1-1.85.4A4.29,4.29,0,0,1,263.9,27a3,3,0,0,1-1.31-1.09,3,3,0,0,1-.48-1.7h1.46a2,2,0,0,0,.27,1,1.73,1.73,0,0,0,.74.7,2.58,2.58,0,0,0,1.14.25,2.19,2.19,0,0,0,1.58-.54,2.08,2.08,0,0,0,.56-1.59,1.91,1.91,0,0,0-.63-1.56,2.78,2.78,0,0,0-1.77-.52h-1V20.81h1a2.73,2.73,0,0,0,1.23-.25,1.8,1.8,0,0,0,.75-.69,2,2,0,0,0,.25-1,2.09,2.09,0,0,0-.49-1.5,2,2,0,0,0-1.48-.51,2.25,2.25,0,0,0-1.07.24,1.77,1.77,0,0,0-.72.69,1.93,1.93,0,0,0-.26,1h-1.46a2.9,2.9,0,0,1,.44-1.58,3.11,3.11,0,0,1,1.24-1.14,4,4,0,0,1,1.83-.41,4.12,4.12,0,0,1,1.81.37,2.75,2.75,0,0,1,1.2,1.09,3.41,3.41,0,0,1,.42,1.75,2.37,2.37,0,0,1-.19.92,2.69,2.69,0,0,1-.6.89,3,3,0,0,1-1,.67A2.62,2.62,0,0,1,268.87,22.42Z" transform="translate(3)"/><path d="M194.52,38.36h-1.68V37.2H196v5.13h-1.46Z" transform="translate(3)"/><path d="M202.45,40A1.54,1.54,0,0,0,202,38.8a1.62,1.62,0,0,0-1.2-.44h-3.1V37.2h3.14a3.64,3.64,0,0,1,1.64.34,2.4,2.4,0,0,1,1.05,1,3.21,3.21,0,0,1,.36,1.56V46.4h-1.44Z" transform="translate(3)"/><path d="M213.13,45.29V46.4h-7.57V45.23h5v-4.6a1.94,1.94,0,0,0-2.27-2.27h-2.23V37.2h2.31a3.81,3.81,0,0,1,2.72.87,3.45,3.45,0,0,1,.92,2.6v4.5Z" transform="translate(3)"/><path d="M221.36,37.2v5.51a4.13,4.13,0,0,1-.51,2.12,3.29,3.29,0,0,1-1.44,1.32,4.85,4.85,0,0,1-2.14.45A9.28,9.28,0,0,1,214,46l.35-1.08a8.24,8.24,0,0,0,2.45.59,3.39,3.39,0,0,1-.77-1.55l-1.53-6.71H216L217.44,44c.07.32.14.58.21.8a2.74,2.74,0,0,0,.27.6,2.46,2.46,0,0,0,1.47-.88,2.75,2.75,0,0,0,.52-1.74V37.2Z" transform="translate(3)"/><path d="M227.69,46.4v-1l3.72-4.15a13.68,13.68,0,0,0,1.07-1.3,4.05,4.05,0,0,0,.53-1,2.68,2.68,0,0,0,.15-.89,2.2,2.2,0,0,0-.23-1,1.8,1.8,0,0,0-.68-.74A2,2,0,0,0,231.2,36a2.17,2.17,0,0,0-1.69.63,2.42,2.42,0,0,0-.58,1.7h-1.46a3.62,3.62,0,0,1,.43-1.77,3.23,3.23,0,0,1,1.27-1.27,4.26,4.26,0,0,1,2-.46,4.11,4.11,0,0,1,1.82.38,2.7,2.7,0,0,1,1.19,1.07,3,3,0,0,1,.42,1.59,3.9,3.9,0,0,1-.58,1.93,11.22,11.22,0,0,1-1.56,2.07l-3,3.32h5.7V46.4Z" transform="translate(3)"/><path d="M242.9,45.39a3.18,3.18,0,0,1-2.66,1.17,3.24,3.24,0,0,1-2.67-1.17,6.24,6.24,0,0,1-.94-3.84V39.81a6.07,6.07,0,0,1,.93-3.8,3.7,3.7,0,0,1,5.34,0,6.14,6.14,0,0,1,.92,3.8v1.74A6.23,6.23,0,0,1,242.9,45.39Zm-1.07-8.52a1.77,1.77,0,0,0-1.6-.83,1.79,1.79,0,0,0-1.6.83,5.11,5.11,0,0,0-.54,2.7v2.21a5.32,5.32,0,0,0,.55,2.73,1.77,1.77,0,0,0,1.6.88,1.74,1.74,0,0,0,1.6-.87,5.46,5.46,0,0,0,.52-2.74V39.57A5.22,5.22,0,0,0,241.83,36.87Z" transform="translate(3)"/><path d="M256.34,38.11,253,46.4h-1.55l3.33-8h-5.4v-4h1.45v2.8h5.55Z" transform="translate(3)"/><path d="M259,38.36h-1.69V37.2h3.14v5.13H259Z" transform="translate(3)"/><path d="M261.9,46.44V45.1a2.15,2.15,0,0,0,.45,0,2.68,2.68,0,0,0,1.83-.69,3,3,0,0,0,.9-1.67V38.36H263V37.2h3.51V42a6.46,6.46,0,0,0,.15,1.4l.64,3h-1.37l-.54-2.58h-.05a3,3,0,0,1-.53,1.31,3.18,3.18,0,0,1-1.09,1,3,3,0,0,1-1.45.36A1.79,1.79,0,0,1,261.9,46.44Z" transform="translate(3)"/><path d="M14.45,26.19a3.19,3.19,0,0,1-2.66,1.17,3.24,3.24,0,0,1-2.68-1.17,6.24,6.24,0,0,1-.93-3.84V20.61a6.14,6.14,0,0,1,.92-3.8,3.25,3.25,0,0,1,2.67-1.14,3.22,3.22,0,0,1,2.67,1.14,6.07,6.07,0,0,1,.92,3.8v1.74A6.3,6.3,0,0,1,14.45,26.19Zm-1.07-8.52a1.79,1.79,0,0,0-1.61-.83,1.79,1.79,0,0,0-1.6.83,5.22,5.22,0,0,0-.53,2.7v2.21a5.21,5.21,0,0,0,.55,2.73,1.75,1.75,0,0,0,1.6.88,1.73,1.73,0,0,0,1.59-.87,5.46,5.46,0,0,0,.52-2.74V20.37A5.24,5.24,0,0,0,13.38,17.67Z" transform="translate(3)"/><path d="M20.51,27.2V17.55l-2.9,1.07v-1.3l4.14-1.56H22V27.2Z" transform="translate(3)"/><path d="M28,25.81a.88.88,0,0,1,.24.63.81.81,0,0,1-.24.61.88.88,0,0,1-.66.24.89.89,0,0,1-.66-.24.82.82,0,0,1-.24-.61A.94.94,0,0,1,28,25.81Z" transform="translate(3)"/><path d="M36.66,26.19A3.18,3.18,0,0,1,34,27.36a3.21,3.21,0,0,1-2.67-1.17,6.17,6.17,0,0,1-.94-3.84V20.61a6.14,6.14,0,0,1,.92-3.8A3.25,3.25,0,0,1,34,15.67a3.22,3.22,0,0,1,2.67,1.14,6.07,6.07,0,0,1,.93,3.8v1.74A6.3,6.3,0,0,1,36.66,26.19Zm-1.07-8.52a2,2,0,0,0-3.21,0,5.22,5.22,0,0,0-.53,2.7v2.21a5.21,5.21,0,0,0,.55,2.73,1.89,1.89,0,0,0,3.19,0,5.46,5.46,0,0,0,.52-2.74V20.37A5.24,5.24,0,0,0,35.59,17.67Z" transform="translate(3)"/><path d="M42.72,27.2V17.55l-2.9,1.07v-1.3L44,15.76h.23V27.2Z" transform="translate(3)"/><path d="M50.17,25.81a.92.92,0,0,1,.23.63.84.84,0,0,1-.23.61.92.92,0,0,1-.67.24.89.89,0,0,1-.66-.24.82.82,0,0,1-.24-.61.83.83,0,0,1,.9-.87A.92.92,0,0,1,50.17,25.81Z" transform="translate(3)"/><path d="M52.65,27.2v-1L56.37,22a13.68,13.68,0,0,0,1.07-1.3,4.05,4.05,0,0,0,.53-.95,2.68,2.68,0,0,0,.15-.89,2.33,2.33,0,0,0-.23-1,1.8,1.8,0,0,0-.68-.74,2,2,0,0,0-1.06-.27,2.15,2.15,0,0,0-1.68.63,2.42,2.42,0,0,0-.58,1.7H52.43a3.62,3.62,0,0,1,.43-1.77,3.17,3.17,0,0,1,1.27-1.27,4.24,4.24,0,0,1,2-.46,4.12,4.12,0,0,1,1.83.38,2.75,2.75,0,0,1,1.19,1.07,3,3,0,0,1,.41,1.59A3.88,3.88,0,0,1,59,20.64a11.22,11.22,0,0,1-1.56,2.07L54.4,26h5.71V27.2Z" transform="translate(3)"/><path d="M67.86,26.19a3.18,3.18,0,0,1-2.66,1.17,3.21,3.21,0,0,1-2.67-1.17,6.17,6.17,0,0,1-.94-3.84V20.61a6.07,6.07,0,0,1,.93-3.8,3.7,3.7,0,0,1,5.34,0,6.14,6.14,0,0,1,.92,3.8v1.74A6.3,6.3,0,0,1,67.86,26.19Zm-1.07-8.52a2,2,0,0,0-3.2,0,5.11,5.11,0,0,0-.54,2.7v2.21a5.21,5.21,0,0,0,.55,2.73,1.76,1.76,0,0,0,1.6.88,1.72,1.72,0,0,0,1.59-.87,5.44,5.44,0,0,0,.53-2.74V20.37A5.22,5.22,0,0,0,66.79,17.67Z" transform="translate(3)"/><path d="M70.63,27.2v-1L74.36,22a15.44,15.44,0,0,0,1.07-1.3,4,4,0,0,0,.52-.95,2.46,2.46,0,0,0,.16-.89,2.2,2.2,0,0,0-.24-1,1.73,1.73,0,0,0-.68-.74,2,2,0,0,0-1-.27,2.19,2.19,0,0,0-1.69.63,2.42,2.42,0,0,0-.58,1.7H70.41a3.74,3.74,0,0,1,.43-1.77,3.23,3.23,0,0,1,1.27-1.27,4.28,4.28,0,0,1,2-.46,4.18,4.18,0,0,1,1.83.38,2.73,2.73,0,0,1,1.18,1.07,3,3,0,0,1,.42,1.59A3.8,3.8,0,0,1,77,20.64a11.6,11.6,0,0,1-1.55,2.07l-3,3.32h5.7V27.2Z" transform="translate(3)"/><path d="M87.31,24.55H85.73V27.2H84.27V24.55H79.09v-.84l5.09-7.88h1.55v7.55h1.58Zm-3-1.17V17.79l-.17.31-3.36,5.28Z" transform="translate(3)"/><path d="M11.83,38.36H10.14V37.2h3.14v5.13H11.83Z" transform="translate(3)"/><path d="M19.75,40a1.58,1.58,0,0,0-.44-1.18,1.65,1.65,0,0,0-1.21-.44H15V37.2h3.14a3.6,3.6,0,0,1,1.63.34,2.4,2.4,0,0,1,1,1,3.1,3.1,0,0,1,.37,1.56V46.4H19.75Z" transform="translate(3)"/><path d="M30.43,45.29V46.4H22.87V45.23h5v-4.6a2.34,2.34,0,0,0-.54-1.73,2.34,2.34,0,0,0-1.73-.54H23.37V37.2h2.3a3.84,3.84,0,0,1,2.73.87,3.44,3.44,0,0,1,.91,2.6v4.5Z" transform="translate(3)"/><path d="M38.67,37.2v5.51a4.14,4.14,0,0,1-.52,2.12,3.32,3.32,0,0,1-1.43,1.32,4.89,4.89,0,0,1-2.15.45A9.19,9.19,0,0,1,31.3,46l.35-1.08a8.17,8.17,0,0,0,2.45.59,3.41,3.41,0,0,1-.78-1.55L31.8,37.2h1.45L34.74,44c.07.32.14.58.21.8a3.32,3.32,0,0,0,.28.6,2.47,2.47,0,0,0,1.46-.88,2.75,2.75,0,0,0,.53-1.74V37.2Z" transform="translate(3)"/><path d="M45,46.4v-1l3.73-4.15a15.44,15.44,0,0,0,1.07-1.3,4.05,4.05,0,0,0,.53-1,2.68,2.68,0,0,0,.15-.89,2.33,2.33,0,0,0-.23-1,1.87,1.87,0,0,0-.68-.74A2,2,0,0,0,48.5,36a2.19,2.19,0,0,0-1.69.63,2.46,2.46,0,0,0-.57,1.7H44.77a3.74,3.74,0,0,1,.43-1.77,3.26,3.26,0,0,1,1.28-1.27,4.24,4.24,0,0,1,2-.46,4.18,4.18,0,0,1,1.83.38,2.75,2.75,0,0,1,1.19,1.07,3.06,3.06,0,0,1,.41,1.59,3.88,3.88,0,0,1-.57,1.93,12.2,12.2,0,0,1-1.56,2.07l-3,3.32h5.7V46.4Z" transform="translate(3)"/><path d="M57.28,46.4V36.75l-2.9,1.07v-1.3L58.52,35h.22V46.4Z" transform="translate(3)"/><path d="M73.64,38.11,70.27,46.4H68.71l3.34-8h-5.4v-4H68.1v2.8h5.54Z" transform="translate(3)"/><path d="M76.34,38.36H74.65V37.2h3.14v5.13H76.34Z" transform="translate(3)"/><path d="M79.2,46.44V45.1a2.32,2.32,0,0,0,.46,0,2.68,2.68,0,0,0,1.83-.69,3,3,0,0,0,.89-1.67V38.36H80.31V37.2h3.5V42a6.46,6.46,0,0,0,.15,1.4l.64,3H83.24l-.54-2.58h-.06a3,3,0,0,1-.52,1.31,3.22,3.22,0,0,1-1.1,1,3,3,0,0,1-1.45.36A1.79,1.79,0,0,1,79.2,46.44Z" transform="translate(3)"/><path class="cls-1" d="M20.44,68.61a2.63,2.63,0,0,1,.71,2V75H19.31V70.45a1.24,1.24,0,0,0-.23-.81.91.91,0,0,0-.72-.27h-.91a6.46,6.46,0,0,0-.13.71,4.72,4.72,0,0,0,0,.73v2A2.68,2.68,0,0,1,17,74a1.75,1.75,0,0,1-.73.77,2.3,2.3,0,0,1-1.15.26,4.81,4.81,0,0,1-.89-.08V73.57l.39,0c.57,0,.85-.3.85-.91V71a3.69,3.69,0,0,1,.1-.84,2.48,2.48,0,0,1,.3-.77h-1.1V67.94h3.58A3,3,0,0,1,20.44,68.61Z" transform="translate(3)"/><path class="cls-1" d="M23,69.37h-.62V67.94h2.46v7H23Z" transform="translate(3)"/><path class="cls-1" d="M29.13,70.33a.91.91,0,0,0-.27-.71,1,1,0,0,0-.76-.25H26V67.94h2.25a3.31,3.31,0,0,1,1.46.3,2.11,2.11,0,0,1,.94.85A2.57,2.57,0,0,1,31,70.42V75H29.13Z" transform="translate(3)"/><path class="cls-1" d="M33.15,69.37h-1.1V67.94H35v4H33.15Z" transform="translate(3)"/><path class="cls-1" d="M38.6,73.28a6,6,0,0,0,1.09.34,4.66,4.66,0,0,0,1.07.13,3.38,3.38,0,0,0,2-.54,1.89,1.89,0,0,0,.75-1.64V67.94h1.78v3.84a3,3,0,0,1-.6,1.87A3.55,3.55,0,0,1,43.1,74.8a6.25,6.25,0,0,1-2.27.39,9,9,0,0,1-2-.24,9.25,9.25,0,0,1-2-.68V67.94H38.6Zm1.48-1.18a6.17,6.17,0,0,0,.06-.9V67.94h1.78v2.87a4.47,4.47,0,0,1-.13,1.12,2.11,2.11,0,0,1-.39.81H39.91A2.14,2.14,0,0,0,40.08,72.1Z" transform="translate(3)"/><path class="cls-1" d="M47.63,71a2.86,2.86,0,0,1,.24-.9,2.14,2.14,0,0,1,.42-.67l.09-.07v0l-.55.13-.55.18-.39-1.33a8.68,8.68,0,0,1,1.6-.4,9.47,9.47,0,0,1,1.71-.16,3.38,3.38,0,0,1,2.44.82A3.31,3.31,0,0,1,53.47,71v4H50.39V73.54h1.24v-2.8a1.83,1.83,0,0,0-.28-1.09.94.94,0,0,0-.8-.39.91.91,0,0,0-.78.39,2.39,2.39,0,0,0-.35,1.13L49,75H47.17Z" transform="translate(3)"/><path class="cls-1" d="M60.58,70.33a.94.94,0,0,0-.26-.71,1.06,1.06,0,0,0-.76-.25H57.44V67.94h2.25a3.28,3.28,0,0,1,1.46.3,2.18,2.18,0,0,1,1,.85,2.67,2.67,0,0,1,.32,1.33V75H60.58Z" transform="translate(3)"/><path class="cls-1" d="M64.26,69.37h-.61V67.94H66.1v7H64.26Z" transform="translate(3)"/><path class="cls-1" d="M69.47,74.73a2.75,2.75,0,0,1-1.08-1.06A3.28,3.28,0,0,1,68,72.08V67.94h1.84v4.35A1.75,1.75,0,0,0,70,73a1.21,1.21,0,0,0,.43.49,1.23,1.23,0,0,0,1.28,0,1.14,1.14,0,0,0,.43-.49,1.75,1.75,0,0,0,.15-.74v-2c0-.61-.26-.92-.79-.92a2.94,2.94,0,0,0-.64.09l-.18-1.17a2.94,2.94,0,0,1,.72-.3,2.89,2.89,0,0,1,.74-.11,2,2,0,0,1,1.06.27,1.75,1.75,0,0,1,.69.78,2.81,2.81,0,0,1,.24,1.21v2a3.17,3.17,0,0,1-.38,1.59,2.66,2.66,0,0,1-1.07,1.06,3.58,3.58,0,0,1-3.21,0Z" transform="translate(3)"/><path class="cls-1" d="M77,75a7.17,7.17,0,0,1-1.31-.32l.34-1.35a8.77,8.77,0,0,0,1.13.25,8.12,8.12,0,0,0,1,.08,1.87,1.87,0,0,0,1.27-.38,1.38,1.38,0,0,0,.43-1.11v-2.8H77.8a3.7,3.7,0,0,0-.26,1.33V71a2,2,0,0,0,.63.06v1.23a4.17,4.17,0,0,1-.71.06,3.93,3.93,0,0,1-.92-.11,2.55,2.55,0,0,1-.77-.32v-.65a4.7,4.7,0,0,1,.12-1.08,2.41,2.41,0,0,1,.33-.86h-.73V67.94h6.23v4a3.49,3.49,0,0,1-.44,1.83,2.62,2.62,0,0,1-1.21,1,4.19,4.19,0,0,1-1.74.34A7.87,7.87,0,0,1,77,75Z" transform="translate(3)"/><path class="cls-1" d="M32.69,83.77h-.64V82.34H34.5v9.47H32.69Z" transform="translate(3)"/><path class="cls-1" d="M36.52,83.77H35.9V82.34h2.46v7H36.52Z" transform="translate(3)"/><path class="cls-1" d="M40.27,82.34h3.06a3,3,0,0,1,2.09.67,2.64,2.64,0,0,1,.71,2v4.37H44.3V84.85c0-.72-.32-1.08-.95-1.08H42.11v5.6H40.27Z" transform="translate(3)"/><path class="cls-1" d="M49.33,89.13a2.75,2.75,0,0,1-1.08-1.06,3.28,3.28,0,0,1-.38-1.59V82.34h1.84v4.35a1.75,1.75,0,0,0,.15.74,1.14,1.14,0,0,0,.43.49,1.23,1.23,0,0,0,1.28,0,1.21,1.21,0,0,0,.43-.49,1.75,1.75,0,0,0,.15-.74v-2c0-.61-.26-.92-.8-.92a2.94,2.94,0,0,0-.63.09l-.18-1.17A3,3,0,0,1,52,82.26a2,2,0,0,1,1.06.27,1.75,1.75,0,0,1,.69.78A2.81,2.81,0,0,1,54,84.52v2a3.28,3.28,0,0,1-.38,1.59,2.63,2.63,0,0,1-1.08,1.06,3.56,3.56,0,0,1-3.2,0Z" transform="translate(3)"/><path class="cls-1" d="M56,83.77h-1.1V82.34h2.94v4H56Z" transform="translate(3)"/><path class="cls-1" d="M65.05,88v1.37H59V87.93H62.4v-3.1a1,1,0,0,0-.28-.8,1.21,1.21,0,0,0-.84-.26H59.39V82.34h2a3.45,3.45,0,0,1,1.53.31,2.14,2.14,0,0,1,1,.87,2.69,2.69,0,0,1,.34,1.4v3Z" transform="translate(3)"/><path class="cls-1" d="M202,86.86V85.24l3.68-3.89a9.71,9.71,0,0,0,1.12-1.46,2.29,2.29,0,0,0,.33-1.09,1.72,1.72,0,0,0-.37-1.16,1.33,1.33,0,0,0-1.05-.42,1.43,1.43,0,0,0-.84.24,1.53,1.53,0,0,0-.55.67,2.42,2.42,0,0,0-.18,1h-2.36a3.76,3.76,0,0,1,.49-1.9,3.62,3.62,0,0,1,1.4-1.37,4.27,4.27,0,0,1,2.08-.5,4.82,4.82,0,0,1,2,.39,2.77,2.77,0,0,1,1.27,1.11,3.5,3.5,0,0,1,.43,1.76,3.56,3.56,0,0,1-.3,1.43,6.26,6.26,0,0,1-.85,1.39,19.15,19.15,0,0,1-1.42,1.6l-1.87,2h4.78v1.9Z" transform="translate(3)"/><path class="cls-1" d="M218.46,84.89a3.43,3.43,0,0,1-1.34,1.61,4.38,4.38,0,0,1-4.1,0,3.4,3.4,0,0,1-1.35-1.61,6.72,6.72,0,0,1-.49-2.72v-2a6.69,6.69,0,0,1,.48-2.72,3.42,3.42,0,0,1,1.35-1.6,4.38,4.38,0,0,1,4.1,0,3.46,3.46,0,0,1,1.34,1.6,6.69,6.69,0,0,1,.48,2.72v2A6.91,6.91,0,0,1,218.46,84.89Zm-2.27-7.06a1.36,1.36,0,0,0-2.26,0,3.86,3.86,0,0,0-.39,2v2.65a3.94,3.94,0,0,0,.39,2,1.28,1.28,0,0,0,1.14.61,1.26,1.26,0,0,0,1.13-.61,4.08,4.08,0,0,0,.37-2V79.83A3.88,3.88,0,0,0,216.19,77.83Z" transform="translate(3)"/><path class="cls-1" d="M232.4,90.11H230V79.4h-2.23a5.17,5.17,0,0,0-.34,1.9v.78a3,3,0,0,0,.84.08V83.8a4.77,4.77,0,0,1-.94.08,5.61,5.61,0,0,1-1.24-.14,3.55,3.55,0,0,1-1-.43V82.12a6.94,6.94,0,0,1,.16-1.52,3.35,3.35,0,0,1,.45-1.2h-1V77.49h7.72Z" transform="translate(3)"/><path class="cls-1" d="M235.54,79.4h-1.47V77.49H238v5.34h-2.46Z" transform="translate(3)"/><path class="cls-1" d="M247.93,77.49v5.37a4.45,4.45,0,0,1-.57,2.31,3.64,3.64,0,0,1-1.6,1.43,5.65,5.65,0,0,1-2.4.48,10.44,10.44,0,0,1-3.71-.68l.5-1.79a9.4,9.4,0,0,0,2.14.58,2.68,2.68,0,0,1-.49-.61,2.5,2.5,0,0,1-.3-.72l-1.44-6.37h2.47l1.37,6.61a4.25,4.25,0,0,0,.32.94,2,2,0,0,0,.93-.77,2.47,2.47,0,0,0,.32-1.29V77.49Z" transform="translate(3)"/><path class="cls-1" d="M252.34,86.5A3.88,3.88,0,0,1,250.86,85a4.86,4.86,0,0,1-.55-2.3v-.57a3.93,3.93,0,0,1,.26-1.42,3.41,3.41,0,0,1,.65-1.15.62.62,0,0,1,.12-.12l0,0c-.19,0-.59.13-1.21.29l-.46-1.78a15.36,15.36,0,0,1,2.19-.44,18,18,0,0,1,2.34-.17,4.58,4.58,0,0,1,3.36,1.15,4.48,4.48,0,0,1,1.18,3.33v.92a4.85,4.85,0,0,1-.53,2.3,3.79,3.79,0,0,1-1.47,1.55,4.42,4.42,0,0,1-2.21.55A4.29,4.29,0,0,1,252.34,86.5Zm3.09-1.77a1.88,1.88,0,0,0,.61-.83,3.19,3.19,0,0,0,.22-1.24v-.88a3.31,3.31,0,0,0-.45-1.88,1.53,1.53,0,0,0-1.31-.65,1.45,1.45,0,0,0-1.29.69,3.67,3.67,0,0,0-.46,2v.75A3.39,3.39,0,0,0,253,83.9a1.9,1.9,0,0,0,.62.83,1.54,1.54,0,0,0,.91.29A1.58,1.58,0,0,0,255.43,84.73Z" transform="translate(3)"/></g><g id="base"><line class="cls-2" x1="51" y1="1.01" x2="592" y2="1.01"/><line class="cls-2" x1="592" x2="592" y2="11"/><line class="cls-2" x1="412.46" y1="0.39" x2="412.46" y2="11.37"/><line class="cls-3" x1="232.66" y1="10.99" x2="232.66" y2="1.01"/><line class="cls-3" x1="51" y1="10.99" x2="51" y2="1.01"/><line class="cls-3" x1="50.33" y1="61.77" x2="50.33" y2="51.77"/><line class="cls-3" x1="231.33" y1="63.77" x2="231.33" y2="53.77"/></g><g id="Layer_5" data-name="Layer 5"><line class="cls-4" y1="13" x2="647" y2="13"/></g></g></svg>