<svg xmlns="http://www.w3.org/2000/svg" viewBox="0 0 647 125.8"><defs><style>.cls-1,.cls-2,.cls-4{fill:none;}.cls-1{stroke:#2ec4b6;stroke-width:2px;}.cls-1,.cls-2{stroke-miterlimit:8;}.cls-2{stroke:#e71d36;stroke-width:2.28px;}.cls-3{fill:#e71d36;}</style></defs><g id="Layer_2" data-name="Layer 2"><g id="base"><line class="cls-1" x1="51" y1="1" x2="592" y2="1"/><line class="cls-1" x1="412.46" y1="0.39" x2="412.46" y2="11.37"/><line class="cls-2" x1="232.66" y1="10.98" x2="232.66" y2="1"/><line class="cls-2" x1="51" y1="10.98" x2="51" y2="1"/><line class="cls-2" x1="50.33" y1="96.76" x2="50.33" y2="86.76"/><line class="cls-2" x1="231.33" y1="98.76" x2="231.33" y2="88.76"/></g><g id="example_3" data-name="example 3"><path d="M555.59,23.68a3.18,3.18,0,0,1-2.66,1.17,3.24,3.24,0,0,1-2.67-1.17,6.24,6.24,0,0,1-.94-3.84V18.1a6.07,6.07,0,0,1,.93-3.8,3.7,3.7,0,0,1,5.34,0,6.14,6.14,0,0,1,.92,3.8v1.74A6.3,6.3,0,0,1,555.59,23.68Zm-1.07-8.52a1.77,1.77,0,0,0-1.6-.83,1.79,1.79,0,0,0-1.6.83,5.11,5.11,0,0,0-.54,2.7v2.21a5.32,5.32,0,0,0,.55,2.73,1.76,1.76,0,0,0,1.6.88,1.74,1.74,0,0,0,1.6-.87,5.57,5.57,0,0,0,.52-2.74V17.86A5.22,5.22,0,0,0,554.52,15.16Z" transform="translate(2.85)"/><path d="M561.66,24.69V15l-2.91,1.07v-1.3l4.14-1.56h.23V24.69Z" transform="translate(2.85)"/><path d="M569.1,23.3a.88.88,0,0,1,.24.63.81.81,0,0,1-.24.61,1,1,0,0,1-1.33,0,.82.82,0,0,1-.24-.61.83.83,0,0,1,.9-.87A.9.9,0,0,1,569.1,23.3Z" transform="translate(2.85)"/><path d="M577.8,23.68a3.18,3.18,0,0,1-2.66,1.17,3.24,3.24,0,0,1-2.67-1.17,6.24,6.24,0,0,1-.94-3.84V18.1a6.07,6.07,0,0,1,.93-3.8,3.7,3.7,0,0,1,5.34,0,6.14,6.14,0,0,1,.92,3.8v1.74A6.23,6.23,0,0,1,577.8,23.68Zm-1.07-8.52a1.77,1.77,0,0,0-1.6-.83,1.79,1.79,0,0,0-1.6.83,5.11,5.11,0,0,0-.54,2.7v2.21a5.32,5.32,0,0,0,.55,2.73,1.77,1.77,0,0,0,1.6.88,1.74,1.74,0,0,0,1.6-.87,5.46,5.46,0,0,0,.52-2.74V17.86A5.22,5.22,0,0,0,576.73,15.16Z" transform="translate(2.85)"/><path d="M583.22,24.69h-1.53l4.7-10.2h-6.15V13.32h7.69v.8Z" transform="translate(2.85)"/><path d="M591.31,23.3a.88.88,0,0,1,.24.63.81.81,0,0,1-.24.61,1,1,0,0,1-1.33,0,.82.82,0,0,1-.24-.61.83.83,0,0,1,.9-.87A.9.9,0,0,1,591.31,23.3Z" transform="translate(2.85)"/><path d="M593.79,24.69v-1l3.73-4.15a15.44,15.44,0,0,0,1.07-1.3,4.46,4.46,0,0,0,.53-.95,2.68,2.68,0,0,0,.15-.89,2.2,2.2,0,0,0-.24-1,1.73,1.73,0,0,0-.68-.74,2,2,0,0,0-1.05-.27,2.19,2.19,0,0,0-1.69.63,2.47,2.47,0,0,0-.58,1.7h-1.46a3.74,3.74,0,0,1,.43-1.77,3.13,3.13,0,0,1,1.28-1.27,4.63,4.63,0,0,1,3.85-.08,2.81,2.81,0,0,1,1.19,1.07,3,3,0,0,1,.41,1.59,3.8,3.8,0,0,1-.58,1.93,11.6,11.6,0,0,1-1.55,2.07l-3.05,3.32h5.7v1.17Z" transform="translate(2.85)"/><path d="M609,23.68a3.19,3.19,0,0,1-2.66,1.17,3.24,3.24,0,0,1-2.68-1.17,6.24,6.24,0,0,1-.93-3.84V18.1a6.14,6.14,0,0,1,.92-3.8,3.7,3.7,0,0,1,5.34,0,6.07,6.07,0,0,1,.92,3.8v1.74A6.3,6.3,0,0,1,609,23.68Zm-1.07-8.52a2,2,0,0,0-3.21,0,5.22,5.22,0,0,0-.53,2.7v2.21a5.33,5.33,0,0,0,.54,2.73,1.78,1.78,0,0,0,1.61.88,1.73,1.73,0,0,0,1.59-.87,5.46,5.46,0,0,0,.52-2.74V17.86A5.24,5.24,0,0,0,607.94,15.16Z" transform="translate(2.85)"/><path d="M611.78,24.69v-1l3.72-4.15a13.68,13.68,0,0,0,1.07-1.3,4.05,4.05,0,0,0,.53-.95,2.68,2.68,0,0,0,.15-.89,2.33,2.33,0,0,0-.23-1,1.8,1.8,0,0,0-.68-.74,2,2,0,0,0-1.06-.27,2.15,2.15,0,0,0-1.68.63,2.42,2.42,0,0,0-.58,1.7h-1.46a3.62,3.62,0,0,1,.43-1.77,3.11,3.11,0,0,1,1.27-1.27,4.24,4.24,0,0,1,2-.46,4.12,4.12,0,0,1,1.83.38,2.75,2.75,0,0,1,1.19,1.07,2.94,2.94,0,0,1,.41,1.59,3.88,3.88,0,0,1-.57,1.93,11.22,11.22,0,0,1-1.56,2.07l-3.05,3.32h5.71v1.17Z" transform="translate(2.85)"/><path d="M627,23.68a3.18,3.18,0,0,1-2.66,1.17,3.21,3.21,0,0,1-2.67-1.17,6.17,6.17,0,0,1-.94-3.84V18.1a6.07,6.07,0,0,1,.93-3.8,3.7,3.7,0,0,1,5.34,0,6.14,6.14,0,0,1,.92,3.8v1.74A6.3,6.3,0,0,1,627,23.68Zm-1.07-8.52a2,2,0,0,0-3.2,0,5.11,5.11,0,0,0-.54,2.7v2.21a5.21,5.21,0,0,0,.55,2.73,1.76,1.76,0,0,0,1.6.88,1.72,1.72,0,0,0,1.59-.87,5.44,5.44,0,0,0,.53-2.74V17.86A5.22,5.22,0,0,0,625.92,15.16Z" transform="translate(2.85)"/><path d="M561.3,38.12a2.34,2.34,0,0,0-.54-1.73,2.38,2.38,0,0,0-1.73-.54h-3.34V34.69h3.41a3.86,3.86,0,0,1,2.73.87,3.45,3.45,0,0,1,.92,2.6v5.73H561.3Zm-5.59,2.63a4.75,4.75,0,0,1,.1-1.12,4.52,4.52,0,0,1,.3-.82h1.19a5.36,5.36,0,0,0-.14.79,10.47,10.47,0,0,0,0,1.06v3.23h-1.4Z" transform="translate(2.85)"/><path d="M571.78,34.69V40.2a4.13,4.13,0,0,1-.51,2.12,3.29,3.29,0,0,1-1.44,1.32,4.82,4.82,0,0,1-2.14.45,9.19,9.19,0,0,1-3.27-.65l.35-1.08a8.11,8.11,0,0,0,2.44.59,3.49,3.49,0,0,1-.77-1.55l-1.52-6.71h1.45l1.49,6.79c.07.31.14.58.21.8a3.32,3.32,0,0,0,.28.6,2.47,2.47,0,0,0,1.46-.88,2.75,2.75,0,0,0,.53-1.74V34.69Z" transform="translate(2.85)"/><path d="M578.6,39.65,581,43.16v.73h-6.82V42.72h4.95l-5.5-8h1.63l2.45,3.7,2-3.7h1.64Z" transform="translate(2.85)"/><path d="M584.06,35.85h-1.69V34.69h3.14v5.13h-1.45Z" transform="translate(2.85)"/><path d="M594.81,42.78v1.11h-7.57V42.72h5v-4.6a2.34,2.34,0,0,0-.53-1.73,2.39,2.39,0,0,0-1.74-.54h-2.23V34.69h2.31a3.81,3.81,0,0,1,2.72.87,3.45,3.45,0,0,1,.92,2.6v4.5Z" transform="translate(2.85)"/><path d="M605.93,38.12a2,2,0,0,0-2.27-2.27h-3.34V34.69h3.41a3.86,3.86,0,0,1,2.73.87,3.41,3.41,0,0,1,.93,2.6v5.73h-1.46Zm-5.59,2.63a4.75,4.75,0,0,1,.1-1.12,4.52,4.52,0,0,1,.3-.82h1.19a5.36,5.36,0,0,0-.14.79,10.47,10.47,0,0,0,0,1.06v3.23h-1.4Z" transform="translate(2.85)"/><path d="M609,43.88l0-1.14a5.69,5.69,0,0,0,1.14.1,1.21,1.21,0,0,0,1-.36,1.67,1.67,0,0,0,.32-1.14V35.85h-1.8V34.69H613v6.77a2.69,2.69,0,0,1-.63,1.93,2.36,2.36,0,0,1-1.8.66A7.17,7.17,0,0,1,609,43.88Z" transform="translate(2.85)"/><path d="M622.21,34.69v1.16h-1.54v8h-1.46v-8h-4.37V34.69Z" transform="translate(2.85)"/><path d="M552.36,57.32a2.34,2.34,0,0,0-.54-1.73,2.39,2.39,0,0,0-1.74-.54h-3.33V53.89h3.4a3.87,3.87,0,0,1,2.74.87,3.45,3.45,0,0,1,.92,2.6v5.73h-1.45ZM546.76,60a4.67,4.67,0,0,1,.11-1.12,4.52,4.52,0,0,1,.3-.82h1.19a5.36,5.36,0,0,0-.14.79,10.47,10.47,0,0,0-.05,1.06v3.23h-1.41Z" transform="translate(2.85)"/><path d="M562.64,54.8l-3.38,8.29h-1.55l3.34-8h-5.4v-4h1.44v2.8h5.55Z" transform="translate(2.85)"/><path d="M571.26,62v1.11h-7.57V61.92h5v-4.6a2.34,2.34,0,0,0-.53-1.73,2.39,2.39,0,0,0-1.74-.54h-2.23V53.89h2.31a3.81,3.81,0,0,1,2.72.87,3.45,3.45,0,0,1,.92,2.6v4.51Z" transform="translate(2.85)"/><path d="M573.76,55.05h-1.68V53.89h3.14V59h-1.46Z" transform="translate(2.85)"/><path d="M581,62a2.87,2.87,0,0,0,1.35-.34,2.25,2.25,0,0,0,.9-.91,2.7,2.7,0,0,0,.32-1.37V55.05h-5.68V53.89H585v5.4a3.88,3.88,0,0,1-.5,2,3.31,3.31,0,0,1-1.41,1.31,4.7,4.7,0,0,1-2.12.49Zm-2.93-2.31a4.58,4.58,0,0,1,.11-1.11,4.81,4.81,0,0,1,.3-.82h1.19a4.15,4.15,0,0,0-.15.78c0,.29,0,.64,0,1.06v6.79h-1.41Z" transform="translate(2.85)"/><path d="M588.27,55.05H587.2V53.89h2.53v9.2h-1.46Z" transform="translate(2.85)"/><path d="M601.87,57.32a2,2,0,0,0-2.27-2.27h-3.34V53.89h3.41a3.86,3.86,0,0,1,2.73.87,3.41,3.41,0,0,1,.93,2.6v5.73h-1.46ZM596.28,60a4.67,4.67,0,0,1,.11-1.12,4.52,4.52,0,0,1,.3-.82h1.18a5.36,5.36,0,0,0-.14.79c0,.29,0,.65,0,1.06v3.23h-1.41Z" transform="translate(2.85)"/><path d="M606.63,55.05h-1.69V53.89h3.14V59h-1.45Z" transform="translate(2.85)"/><path d="M611.46,55.05h-1.69V53.89h3.14V59h-1.45Z" transform="translate(2.85)"/><path d="M621.81,54.8l-3.37,8.29h-1.56l3.34-8h-5.4v-4h1.44v2.8h5.55Z" transform="translate(2.85)"/><path d="M630.23,53.89V59.4a4.13,4.13,0,0,1-.51,2.12,3.29,3.29,0,0,1-1.44,1.32,4.82,4.82,0,0,1-2.14.45,9.19,9.19,0,0,1-3.27-.65l.35-1.08a8.11,8.11,0,0,0,2.44.59,3.49,3.49,0,0,1-.77-1.55l-1.52-6.71h1.45l1.49,6.79c.07.31.14.58.21.8a3.32,3.32,0,0,0,.28.6,2.47,2.47,0,0,0,1.46-.88,2.75,2.75,0,0,0,.53-1.74V53.89Z" transform="translate(2.85)"/><path d="M550.65,74.25H549V73.09h3.14v5.13h-1.45Z" transform="translate(2.85)"/><path d="M554.78,73.09h3.46A3.79,3.79,0,0,1,561,74a3.57,3.57,0,0,1,.91,2.65v5.68h-1.45V76.53a2.48,2.48,0,0,0-.51-1.74,2.22,2.22,0,0,0-1.66-.54h-2v8h-1.44Z" transform="translate(2.85)"/><path d="M568.28,75.87a1.54,1.54,0,0,0-.44-1.18,1.62,1.62,0,0,0-1.2-.44h-3.1V73.09h3.14a3.64,3.64,0,0,1,1.64.34,2.51,2.51,0,0,1,1,1,3.18,3.18,0,0,1,.36,1.56v6.31h-1.45Z" transform="translate(2.85)"/><path d="M572.17,74.31l-.65-.11V73.09H576v1.16H573.6l1.31,8h-1.49Z" transform="translate(2.85)"/><path d="M583.14,78.27l2.92,4h-1.62l-4.1-5.66a2,2,0,0,0-.84,1.8v3.86h-1.4V79a4.15,4.15,0,0,1,.4-2,2.58,2.58,0,0,1,1.26-1.15l-2-2.76h1.62L582.24,77l2.22-3.94h1.64Z" transform="translate(2.85)"/><path d="M598.65,73.09v1.16h-1.54v8h-1.45v-8h-4.38V73.09Z" transform="translate(2.85)"/><path d="M601.19,76.44a3.61,3.61,0,0,1,.36-1.21,2.57,2.57,0,0,1,.67-.87l.16-.11,0,0c-.23,0-.53.11-.88.2s-.67.18-1,.28l-.34-1.09a13.07,13.07,0,0,1,2-.51,12.15,12.15,0,0,1,2.07-.19,3.81,3.81,0,0,1,2.84,1,3.94,3.94,0,0,1,1,2.91v5.48h-3.79V81.13h2.35V76.64a2.74,2.74,0,0,0-.56-1.86,2,2,0,0,0-1.61-.65,1.61,1.61,0,0,0-1.26.59,2.81,2.81,0,0,0-.63,1.58l-.69,6h-1.43Z" transform="translate(2.85)"/><path d="M617.14,73.09V78.6a4.13,4.13,0,0,1-.51,2.12A3.29,3.29,0,0,1,615.19,82a4.82,4.82,0,0,1-2.14.45,9.19,9.19,0,0,1-3.27-.65l.35-1.08a8.11,8.11,0,0,0,2.44.59,3.49,3.49,0,0,1-.77-1.55l-1.52-6.71h1.45l1.49,6.79c.07.31.14.58.21.8a3.32,3.32,0,0,0,.28.6,2.47,2.47,0,0,0,1.46-.88,2.75,2.75,0,0,0,.53-1.74V73.09Z" transform="translate(2.85)"/><path d="M620.6,76.44a3.61,3.61,0,0,1,.36-1.21,2.45,2.45,0,0,1,.67-.87l.15-.11v0c-.24,0-.53.11-.88.2s-.67.18-1,.28l-.33-1.09a12.79,12.79,0,0,1,2-.51,12.15,12.15,0,0,1,2.07-.19,3.81,3.81,0,0,1,2.84,1,4,4,0,0,1,1,2.91v5.48h-3.79V81.13h2.34V76.64a2.74,2.74,0,0,0-.55-1.86,2,2,0,0,0-1.61-.65,1.62,1.62,0,0,0-1.27.59A2.81,2.81,0,0,0,622,76.3l-.7,6h-1.43Z" transform="translate(2.85)"/><path class="cls-3" d="M202.16,111.85v-1.62l3.68-3.89a8.51,8.51,0,0,0,1.11-1.46,2.29,2.29,0,0,0,.33-1.09,1.67,1.67,0,0,0-.37-1.16,1.33,1.33,0,0,0-1-.42,1.48,1.48,0,0,0-.84.24,1.49,1.49,0,0,0-.54.67,2.25,2.25,0,0,0-.19,1h-2.36a3.76,3.76,0,0,1,.49-1.9,3.69,3.69,0,0,1,1.4-1.37,4.31,4.31,0,0,1,2.09-.5,4.82,4.82,0,0,1,2,.39,2.74,2.74,0,0,1,1.26,1.11,3.4,3.4,0,0,1,.43,1.76,3.65,3.65,0,0,1-.3,1.44,6.38,6.38,0,0,1-.84,1.38c-.37.46-.84,1-1.42,1.6l-1.88,2H210v1.9Z" transform="translate(2.85)"/><path class="cls-3" d="M218.6,109.88a3.32,3.32,0,0,1-1.34,1.61,3.91,3.91,0,0,1-2,.52,4,4,0,0,1-2.05-.52,3.47,3.47,0,0,1-1.36-1.61,6.69,6.69,0,0,1-.48-2.72v-2a6.69,6.69,0,0,1,.48-2.72,3.42,3.42,0,0,1,1.35-1.6,4.36,4.36,0,0,1,4.09,0,3.42,3.42,0,0,1,1.35,1.6,6.69,6.69,0,0,1,.48,2.72v2A6.69,6.69,0,0,1,218.6,109.88Zm-2.26-7.06a1.27,1.27,0,0,0-1.14-.6,1.26,1.26,0,0,0-1.13.6,4,4,0,0,0-.38,2v2.64a3.94,3.94,0,0,0,.39,2,1.26,1.26,0,0,0,1.14.61,1.24,1.24,0,0,0,1.12-.61,4.06,4.06,0,0,0,.38-2v-2.64A4,4,0,0,0,216.34,102.82Z" transform="translate(2.85)"/><path class="cls-3" d="M232.55,115.1h-2.42V104.39h-2.24a5.38,5.38,0,0,0-.33,1.9v.78a2.92,2.92,0,0,0,.83.08v1.64a4.77,4.77,0,0,1-.94.08,5.45,5.45,0,0,1-1.23-.14,3.55,3.55,0,0,1-1-.43v-1.19a6.43,6.43,0,0,1,.15-1.52,3.77,3.77,0,0,1,.45-1.2h-1v-1.91h7.73Z" transform="translate(2.85)"/><path class="cls-3" d="M235.69,104.39h-1.47v-1.91h3.92v5.35h-2.45Z" transform="translate(2.85)"/><path class="cls-3" d="M248.07,102.48v5.37a4.4,4.4,0,0,1-.57,2.31,3.59,3.59,0,0,1-1.6,1.43,5.57,5.57,0,0,1-2.39.49,10.47,10.47,0,0,1-3.72-.69l.51-1.79a10.08,10.08,0,0,0,2.13.59,3,3,0,0,1-.49-.62,2.47,2.47,0,0,1-.29-.72l-1.45-6.37h2.47l1.38,6.61a4.3,4.3,0,0,0,.31.94,1.87,1.87,0,0,0,.93-.77,2.35,2.35,0,0,0,.33-1.29v-5.49Z" transform="translate(2.85)"/><path class="cls-3" d="M252.49,111.49a3.75,3.75,0,0,1-1.48-1.55,4.86,4.86,0,0,1-.56-2.3v-.57a4.23,4.23,0,0,1,.27-1.42,3.41,3.41,0,0,1,.64-1.15l.13-.12,0,0c-.19,0-.6.13-1.21.29l-.46-1.78a15.36,15.36,0,0,1,2.19-.44,17.9,17.9,0,0,1,2.34-.17,4.58,4.58,0,0,1,3.36,1.15,4.47,4.47,0,0,1,1.17,3.33v.92a4.85,4.85,0,0,1-.52,2.3,3.69,3.69,0,0,1-1.48,1.55,4.41,4.41,0,0,1-2.2.55A4.29,4.29,0,0,1,252.49,111.49Zm3.08-1.77a1.84,1.84,0,0,0,.62-.83,3.35,3.35,0,0,0,.22-1.24v-.88a3.22,3.22,0,0,0-.46-1.88,1.5,1.5,0,0,0-1.31-.65,1.43,1.43,0,0,0-1.28.69,3.58,3.58,0,0,0-.46,2v.75a3.16,3.16,0,0,0,.22,1.24,1.77,1.77,0,0,0,.62.83,1.59,1.59,0,0,0,1.83,0Z" transform="translate(2.85)"/><path class="cls-3" d="M18.58,102.61a2.57,2.57,0,0,1,.71,2V109H17.46v-4.52a1.19,1.19,0,0,0-.24-.81.88.88,0,0,0-.71-.27h-.91a5,5,0,0,0-.14.71,6.42,6.42,0,0,0,0,.74v2a2.67,2.67,0,0,1-.25,1.21,1.81,1.81,0,0,1-.73.77,2.33,2.33,0,0,1-1.15.27,4.88,4.88,0,0,1-.89-.09v-1.41h.38c.57,0,.85-.3.85-.91V105a3.73,3.73,0,0,1,.11-.84,2.58,2.58,0,0,1,.29-.77H12.92v-1.43h3.57A2.92,2.92,0,0,1,18.58,102.61Z" transform="translate(2.85)"/><path class="cls-3" d="M21.13,103.36h-.61v-1.43H23v7H21.13Z" transform="translate(2.85)"/><path class="cls-3" d="M27.27,104.32a.94.94,0,0,0-.26-.71,1.1,1.1,0,0,0-.76-.25H24.13v-1.43h2.25a3.32,3.32,0,0,1,1.47.3,2.16,2.16,0,0,1,.94.85,2.67,2.67,0,0,1,.32,1.33V109H27.27Z" transform="translate(2.85)"/><path class="cls-3" d="M31.29,103.36h-1.1v-1.43h2.94v4H31.29Z" transform="translate(2.85)"/><path class="cls-3" d="M36.75,107.27a6.18,6.18,0,0,0,1.08.34,4.79,4.79,0,0,0,1.07.13,3.38,3.38,0,0,0,2-.54,1.89,1.89,0,0,0,.75-1.64v-3.63h1.78v3.84a3,3,0,0,1-.59,1.87,3.61,3.61,0,0,1-1.61,1.15,6.25,6.25,0,0,1-2.27.39,9.82,9.82,0,0,1-4-.92v-6.33h1.78Zm1.48-1.18a6.17,6.17,0,0,0,.06-.9v-3.26h1.78v2.88a4.38,4.38,0,0,1-.14,1.11,2,2,0,0,1-.38.81h-1.5A1.84,1.84,0,0,0,38.23,106.09Z" transform="translate(2.85)"/><path class="cls-3" d="M45.77,105a3.52,3.52,0,0,1,.24-.9,2,2,0,0,1,.43-.67.23.23,0,0,1,.08-.07v0l-.54.13a3.87,3.87,0,0,0-.55.19L45,102.31a9.2,9.2,0,0,1,1.59-.4,9.66,9.66,0,0,1,1.72-.16,3.37,3.37,0,0,1,2.43.82,3.23,3.23,0,0,1,.84,2.41v4H48.54v-1.43h1.23v-2.79a1.84,1.84,0,0,0-.29-1.1.93.93,0,0,0-.8-.39.9.9,0,0,0-.77.39,2.28,2.28,0,0,0-.36,1.13L47.14,109H45.32Z" transform="translate(2.85)"/><path class="cls-3" d="M58.73,104.32a.91.91,0,0,0-.27-.71,1.09,1.09,0,0,0-.76-.25H55.59v-1.43h2.25a3.31,3.31,0,0,1,1.46.3,2.16,2.16,0,0,1,.94.85,2.57,2.57,0,0,1,.33,1.33V109H58.73Z" transform="translate(2.85)"/><path class="cls-3" d="M62.41,103.36h-.62v-1.43h2.46v7H62.41Z" transform="translate(2.85)"/><path class="cls-3" d="M67.62,108.72a2.63,2.63,0,0,1-1.08-1.06,3.17,3.17,0,0,1-.38-1.59v-4.14H68v4.35a1.75,1.75,0,0,0,.15.74,1.09,1.09,0,0,0,.43.49,1.13,1.13,0,0,0,.63.18,1.18,1.18,0,0,0,.65-.18,1.22,1.22,0,0,0,.43-.49,1.75,1.75,0,0,0,.15-.74v-2c0-.61-.27-.92-.8-.92a3,3,0,0,0-.64.09l-.17-1.17a3.52,3.52,0,0,1,.71-.3,3,3,0,0,1,.75-.11,2,2,0,0,1,1.06.27,1.75,1.75,0,0,1,.69.78,2.84,2.84,0,0,1,.24,1.21v2a3.28,3.28,0,0,1-.38,1.59,2.63,2.63,0,0,1-1.08,1.06,3.56,3.56,0,0,1-3.2,0Z" transform="translate(2.85)"/><path class="cls-3" d="M75.16,109a7.38,7.38,0,0,1-1.31-.32l.34-1.35a8.92,8.92,0,0,0,1.14.25,8,8,0,0,0,1,.08,1.89,1.89,0,0,0,1.27-.38,1.42,1.42,0,0,0,.43-1.11v-2.8H75.94a3.72,3.72,0,0,0-.25,1.33V105a2,2,0,0,0,.63.06v1.23a4.2,4.2,0,0,1-.72.06,3.46,3.46,0,0,1-.92-.11,2.66,2.66,0,0,1-.77-.32v-.65a4.7,4.7,0,0,1,.12-1.08,3,3,0,0,1,.33-.86h-.72v-1.43h6.23v4a3.39,3.39,0,0,1-.45,1.82,2.7,2.7,0,0,1-1.21,1.06,4.29,4.29,0,0,1-1.74.33A7.87,7.87,0,0,1,75.16,109Z" transform="translate(2.85)"/><path class="cls-3" d="M30.84,117.76H30.2v-1.43h2.44v9.47h-1.8Z" transform="translate(2.85)"/><path class="cls-3" d="M34.66,117.76h-.61v-1.43H36.5v7H34.66Z" transform="translate(2.85)"/><path class="cls-3" d="M38.42,116.33h3.06a2.89,2.89,0,0,1,2.08.68,2.64,2.64,0,0,1,.72,2v4.37H42.44v-4.52c0-.72-.31-1.08-1-1.08H40.25v5.6H38.41Z" transform="translate(2.85)"/><path class="cls-3" d="M47.47,123.12a2.6,2.6,0,0,1-1.07-1.06,3.18,3.18,0,0,1-.39-1.59v-4.14h1.84v4.35a1.61,1.61,0,0,0,.16.74,1.09,1.09,0,0,0,.43.49,1.11,1.11,0,0,0,.63.18,1.14,1.14,0,0,0,.64-.18,1.09,1.09,0,0,0,.43-.49,1.61,1.61,0,0,0,.16-.74v-2c0-.61-.27-.92-.8-.92a3,3,0,0,0-.64.09l-.18-1.17a3.62,3.62,0,0,1,.72-.3,3,3,0,0,1,.74-.11,2,2,0,0,1,1.07.27,1.75,1.75,0,0,1,.69.78,2.84,2.84,0,0,1,.24,1.21v2a3.28,3.28,0,0,1-.38,1.59,2.69,2.69,0,0,1-1.08,1.06,3.32,3.32,0,0,1-1.6.38A3.36,3.36,0,0,1,47.47,123.12Z" transform="translate(2.85)"/><path class="cls-3" d="M54.12,117.76H53v-1.43H56v4H54.12Z" transform="translate(2.85)"/><path class="cls-3" d="M63.2,122v1.37h-6v-1.44h3.38v-3.1a1,1,0,0,0-.27-.79,1.19,1.19,0,0,0-.85-.27H57.53v-1.43h2a3.53,3.53,0,0,1,1.53.31,2.13,2.13,0,0,1,1,.88,2.72,2.72,0,0,1,.33,1.39v3Z" transform="translate(2.85)"/><path d="M377.59,23.68a3.18,3.18,0,0,1-2.66,1.17,3.24,3.24,0,0,1-2.67-1.17,6.24,6.24,0,0,1-.94-3.84V18.1a6.07,6.07,0,0,1,.93-3.8,3.7,3.7,0,0,1,5.34,0,6.14,6.14,0,0,1,.92,3.8v1.74A6.3,6.3,0,0,1,377.59,23.68Zm-1.07-8.52a1.77,1.77,0,0,0-1.6-.83,1.79,1.79,0,0,0-1.6.83,5.11,5.11,0,0,0-.54,2.7v2.21a5.32,5.32,0,0,0,.55,2.73,1.76,1.76,0,0,0,1.6.88,1.74,1.74,0,0,0,1.6-.87,5.57,5.57,0,0,0,.52-2.74V17.86A5.22,5.22,0,0,0,376.52,15.16Z" transform="translate(2.85)"/><path d="M383.66,24.69V15l-2.91,1.07v-1.3l4.14-1.56h.23V24.69Z" transform="translate(2.85)"/><path d="M391.1,23.3a.88.88,0,0,1,.24.63.81.81,0,0,1-.24.61,1,1,0,0,1-1.33,0,.82.82,0,0,1-.24-.61.83.83,0,0,1,.9-.87A.9.9,0,0,1,391.1,23.3Z" transform="translate(2.85)"/><path d="M399.8,23.68a3.18,3.18,0,0,1-2.66,1.17,3.24,3.24,0,0,1-2.67-1.17,6.24,6.24,0,0,1-.94-3.84V18.1a6.07,6.07,0,0,1,.93-3.8,3.7,3.7,0,0,1,5.34,0,6.14,6.14,0,0,1,.92,3.8v1.74A6.23,6.23,0,0,1,399.8,23.68Zm-1.07-8.52a1.77,1.77,0,0,0-1.6-.83,1.79,1.79,0,0,0-1.6.83,5.11,5.11,0,0,0-.54,2.7v2.21a5.32,5.32,0,0,0,.55,2.73,1.77,1.77,0,0,0,1.6.88,1.74,1.74,0,0,0,1.6-.87,5.46,5.46,0,0,0,.52-2.74V17.86A5.22,5.22,0,0,0,398.73,15.16Z" transform="translate(2.85)"/><path d="M405.22,24.69h-1.53l4.7-10.2h-6.15V13.32h7.69v.8Z" transform="translate(2.85)"/><path d="M413.31,23.3a.88.88,0,0,1,.24.63.81.81,0,0,1-.24.61,1,1,0,0,1-1.33,0,.82.82,0,0,1-.24-.61.83.83,0,0,1,.9-.87A.9.9,0,0,1,413.31,23.3Z" transform="translate(2.85)"/><path d="M415.79,24.69v-1l3.73-4.15a15.44,15.44,0,0,0,1.07-1.3,4.46,4.46,0,0,0,.53-.95,2.68,2.68,0,0,0,.15-.89,2.2,2.2,0,0,0-.24-1,1.73,1.73,0,0,0-.68-.74,2,2,0,0,0-1.05-.27,2.19,2.19,0,0,0-1.69.63,2.47,2.47,0,0,0-.58,1.7h-1.46a3.74,3.74,0,0,1,.43-1.77,3.13,3.13,0,0,1,1.28-1.27,4.63,4.63,0,0,1,3.85-.08,2.81,2.81,0,0,1,1.19,1.07,3,3,0,0,1,.41,1.59,3.8,3.8,0,0,1-.58,1.93,11.6,11.6,0,0,1-1.55,2.07l-3.05,3.32h5.7v1.17Z" transform="translate(2.85)"/><path d="M431,23.68a3.19,3.19,0,0,1-2.66,1.17,3.24,3.24,0,0,1-2.68-1.17,6.24,6.24,0,0,1-.93-3.84V18.1a6.14,6.14,0,0,1,.92-3.8,3.7,3.7,0,0,1,5.34,0,6.07,6.07,0,0,1,.92,3.8v1.74A6.3,6.3,0,0,1,431,23.68Zm-1.07-8.52a2,2,0,0,0-3.21,0,5.22,5.22,0,0,0-.53,2.7v2.21a5.33,5.33,0,0,0,.54,2.73,1.78,1.78,0,0,0,1.61.88,1.73,1.73,0,0,0,1.59-.87,5.46,5.46,0,0,0,.52-2.74V17.86A5.24,5.24,0,0,0,429.94,15.16Z" transform="translate(2.85)"/><path d="M433.78,24.69v-1l3.72-4.15a13.68,13.68,0,0,0,1.07-1.3,4.05,4.05,0,0,0,.53-.95,2.68,2.68,0,0,0,.15-.89,2.33,2.33,0,0,0-.23-1,1.8,1.8,0,0,0-.68-.74,2,2,0,0,0-1.06-.27,2.15,2.15,0,0,0-1.68.63,2.42,2.42,0,0,0-.58,1.7h-1.46a3.62,3.62,0,0,1,.43-1.77,3.11,3.11,0,0,1,1.27-1.27,4.24,4.24,0,0,1,2-.46,4.12,4.12,0,0,1,1.83.38,2.75,2.75,0,0,1,1.19,1.07,2.94,2.94,0,0,1,.41,1.59,3.88,3.88,0,0,1-.57,1.93,11.22,11.22,0,0,1-1.56,2.07l-3.05,3.32h5.71v1.17Z" transform="translate(2.85)"/><path d="M446.07,24.69V15l-2.91,1.07v-1.3l4.14-1.56h.23V24.69Z" transform="translate(2.85)"/><path d="M381.21,34.69v1.16h-1.54v8h-1.45v-8h-4.37V34.69Z" transform="translate(2.85)"/><path d="M389.56,34.69V40.2a4.13,4.13,0,0,1-.51,2.12,3.34,3.34,0,0,1-1.44,1.32,4.86,4.86,0,0,1-2.15.45,9.27,9.27,0,0,1-3.27-.65l.35-1.08A8.17,8.17,0,0,0,385,43a3.41,3.41,0,0,1-.78-1.55l-1.52-6.71h1.45l1.5,6.79a5.38,5.38,0,0,0,.21.8,2.74,2.74,0,0,0,.27.6,2.47,2.47,0,0,0,1.46-.88,2.7,2.7,0,0,0,.53-1.74V34.69Z" transform="translate(2.85)"/><path d="M392.82,35.85h-1.07V34.69h2.53v9.2h-1.46Z" transform="translate(2.85)"/><path d="M397.73,38a3.61,3.61,0,0,1,.36-1.21,2.57,2.57,0,0,1,.67-.87l.16-.11,0,0c-.23,0-.53.11-.88.2s-.67.18-1,.28l-.34-1.09a13.07,13.07,0,0,1,2-.51,12.15,12.15,0,0,1,2.07-.19,3.85,3.85,0,0,1,2.84,1,3.94,3.94,0,0,1,1,2.91v5.48h-3.79V42.73h2.35V38.24a2.76,2.76,0,0,0-.56-1.86,2,2,0,0,0-1.61-.64,1.59,1.59,0,0,0-1.26.58,2.81,2.81,0,0,0-.63,1.58l-.69,6H397Z" transform="translate(2.85)"/><path d="M407.88,38a3.61,3.61,0,0,1,.36-1.21,2.45,2.45,0,0,1,.67-.87l.16-.11,0,0c-.23,0-.53.11-.88.2s-.67.18-1,.28l-.34-1.09a12.79,12.79,0,0,1,2-.51,12.15,12.15,0,0,1,2.07-.19,3.85,3.85,0,0,1,2.84,1,4,4,0,0,1,1,2.91v5.48H411V42.73h2.34V38.24a2.75,2.75,0,0,0-.55-1.86,2,2,0,0,0-1.61-.64,1.62,1.62,0,0,0-1.27.58,2.88,2.88,0,0,0-.62,1.58l-.7,6h-1.43Z" transform="translate(2.85)"/><path d="M426.72,38.12a2.34,2.34,0,0,0-.54-1.73,2.38,2.38,0,0,0-1.73-.54h-3.34V34.69h3.41a3.86,3.86,0,0,1,2.73.87,3.41,3.41,0,0,1,.92,2.6v5.73h-1.45Zm-5.59,2.63a4.75,4.75,0,0,1,.1-1.12,4.52,4.52,0,0,1,.3-.82h1.19a5.36,5.36,0,0,0-.14.79,10.47,10.47,0,0,0-.05,1.06v3.23h-1.4Z" transform="translate(2.85)"/><path d="M429.83,43.88l0-1.14a5.69,5.69,0,0,0,1.14.1,1.21,1.21,0,0,0,1-.36,1.67,1.67,0,0,0,.32-1.14V35.85h-1.8V34.69h3.25v6.77a2.68,2.68,0,0,1-.62,1.93,2.37,2.37,0,0,1-1.8.66A7.17,7.17,0,0,1,429.83,43.88Z" transform="translate(2.85)"/><path d="M438,42.26a9.09,9.09,0,0,0,1.58.5,7.44,7.44,0,0,0,1.58.18,5.67,5.67,0,0,0,2-.33,3,3,0,0,0,1.39-1A2.58,2.58,0,0,0,445,40V34.69h1.41v5.44a3.46,3.46,0,0,1-.7,2.19,4.16,4.16,0,0,1-1.89,1.34,7.4,7.4,0,0,1-2.65.45,11,11,0,0,1-4.64-1.06V34.69H438Zm2.65-1.75a4.58,4.58,0,0,0,.15-1.24V34.69h1.41V39a4.48,4.48,0,0,1-.2,1.39,2.6,2.6,0,0,1-.6,1l-1.2,0A2,2,0,0,0,440.63,40.51Z" transform="translate(2.85)"/><path d="M379.23,53.89v1.16h-1.54v8h-1.45v-8h-4.37V53.89Z" transform="translate(2.85)"/><path d="M381.77,57.24a3.41,3.41,0,0,1,.37-1.21,2.77,2.77,0,0,1,.66-.87l.16-.11,0,0c-.23,0-.52.11-.87.2s-.68.18-1,.28l-.34-1.09a13.21,13.21,0,0,1,2-.51,12.15,12.15,0,0,1,2.07-.19,3.87,3.87,0,0,1,2.84,1,4,4,0,0,1,1,2.91v5.48H384.9V61.93h2.35V57.44a2.76,2.76,0,0,0-.56-1.86,2,2,0,0,0-1.61-.64,1.6,1.6,0,0,0-1.26.58,2.84,2.84,0,0,0-.63,1.58l-.69,6h-1.43Z" transform="translate(2.85)"/><path d="M397.73,53.89V59.4a4.14,4.14,0,0,1-.52,2.12,3.32,3.32,0,0,1-1.43,1.32,4.89,4.89,0,0,1-2.15.45,9.19,9.19,0,0,1-3.27-.65l.35-1.08a8.18,8.18,0,0,0,2.44.59,3.49,3.49,0,0,1-.77-1.55l-1.52-6.71h1.45l1.49,6.79c.07.31.14.58.21.8a3.32,3.32,0,0,0,.28.6,2.47,2.47,0,0,0,1.46-.88,2.75,2.75,0,0,0,.53-1.74V53.89Z" transform="translate(2.85)"/><path d="M401.18,57.24a3.61,3.61,0,0,1,.36-1.21,2.65,2.65,0,0,1,.67-.87l.16-.11,0,0c-.23,0-.53.11-.88.2s-.67.18-1,.28l-.34-1.09a13.07,13.07,0,0,1,2-.51,12.15,12.15,0,0,1,2.07-.19,3.85,3.85,0,0,1,2.84,1,3.94,3.94,0,0,1,1,2.91v5.48h-3.79V61.93h2.34V57.44a2.75,2.75,0,0,0-.55-1.86,2,2,0,0,0-1.61-.64,1.59,1.59,0,0,0-1.26.58,2.84,2.84,0,0,0-.63,1.58l-.7,6h-1.42Z" transform="translate(2.85)"/><path d="M421.16,54.76a3.53,3.53,0,0,1,.9,2.65v5.68h-1.44V57.33a2.48,2.48,0,0,0-.51-1.74,2.21,2.21,0,0,0-1.66-.54h-1.3a3.64,3.64,0,0,0-.41,1.08,6.16,6.16,0,0,0-.15,1.36v3.1a2.73,2.73,0,0,1-.6,1.92,2.27,2.27,0,0,1-1.75.66,6.87,6.87,0,0,1-.9-.07V61.94a4.39,4.39,0,0,0,.54,0,1.24,1.24,0,0,0,1-.35,1.65,1.65,0,0,0,.31-1.11V57.6a5.77,5.77,0,0,1,.19-1.42,3.21,3.21,0,0,1,.52-1.13h-1.73V53.89h4.29A3.79,3.79,0,0,1,421.16,54.76Z" transform="translate(2.85)"/><path d="M430.89,54.8l-3.38,8.29H426l3.34-8h-5.4v-4h1.44v2.8h5.55Z" transform="translate(2.85)"/><path d="M439.51,62v1.11h-7.57V61.92h5v-4.6a2.34,2.34,0,0,0-.53-1.73,2.39,2.39,0,0,0-1.74-.54h-2.23V53.89h2.31a3.81,3.81,0,0,1,2.72.87,3.45,3.45,0,0,1,.92,2.6v4.51Z" transform="translate(2.85)"/><path d="M444.4,62a2.94,2.94,0,0,0,1.36-.34,2.29,2.29,0,0,0,.89-.91,2.7,2.7,0,0,0,.33-1.37V55.05H441.3V53.89h7.13v5.4a3.88,3.88,0,0,1-.5,2,3.34,3.34,0,0,1-1.4,1.31,4.78,4.78,0,0,1-2.13.49Zm-2.92-2.31a4.66,4.66,0,0,1,.1-1.11,4.81,4.81,0,0,1,.3-.82h1.19a4.15,4.15,0,0,0-.15.78c0,.29,0,.64,0,1.06v6.79h-1.4Z" transform="translate(2.85)"/><path d="M393.58,74.25h-1.69V73.09H395v5.13h-1.45Z" transform="translate(2.85)"/><path d="M397.71,73.09h3.46a3.79,3.79,0,0,1,2.73.87,3.57,3.57,0,0,1,.91,2.65v5.68h-1.45V76.53a2.48,2.48,0,0,0-.51-1.74,2.22,2.22,0,0,0-1.66-.54h-2v8h-1.44Z" transform="translate(2.85)"/><path d="M411.21,75.87a1.54,1.54,0,0,0-.44-1.18,1.62,1.62,0,0,0-1.2-.44h-3.1V73.09h3.14a3.57,3.57,0,0,1,1.63.34,2.48,2.48,0,0,1,1.06,1,3.18,3.18,0,0,1,.36,1.56v6.31h-1.45Z" transform="translate(2.85)"/><path d="M415.1,74.31l-.65-.11V73.09h4.47v1.16h-2.38l1.31,8h-1.49Z" transform="translate(2.85)"/><path d="M426.07,78.27l2.92,4h-1.62l-4.1-5.66a2,2,0,0,0-.84,1.8v3.86H421V79a4.15,4.15,0,0,1,.4-2,2.58,2.58,0,0,1,1.26-1.15l-2-2.76h1.62L425.17,77l2.22-3.94H429Z" transform="translate(2.85)"/><path d="M14.62,23A3.18,3.18,0,0,1,12,24.16,3.21,3.21,0,0,1,9.29,23a6.15,6.15,0,0,1-.94-3.84V17.41a6.14,6.14,0,0,1,.92-3.8,3.25,3.25,0,0,1,2.67-1.14,3.22,3.22,0,0,1,2.67,1.14,6.07,6.07,0,0,1,.93,3.8v1.74A6.3,6.3,0,0,1,14.62,23Zm-1.07-8.52a1.78,1.78,0,0,0-1.61-.83,1.79,1.79,0,0,0-1.6.83,5.22,5.22,0,0,0-.53,2.7v2.21a5.28,5.28,0,0,0,.55,2.74A1.77,1.77,0,0,0,12,23a1.73,1.73,0,0,0,1.59-.87,5.44,5.44,0,0,0,.53-2.74V17.17A5.22,5.22,0,0,0,13.55,14.47Z" transform="translate(2.85)"/><path d="M20.68,24V14.35l-2.9,1.07v-1.3l4.14-1.55h.23V24Z" transform="translate(2.85)"/><path d="M28.13,22.62a.84.84,0,0,1,.23.62.8.8,0,0,1-.23.61.92.92,0,0,1-.67.24.89.89,0,0,1-.66-.24.82.82,0,0,1-.24-.61.84.84,0,0,1,.24-.62.86.86,0,0,1,.66-.25A.88.88,0,0,1,28.13,22.62Z" transform="translate(2.85)"/><path d="M36.83,23a3.18,3.18,0,0,1-2.66,1.17A3.21,3.21,0,0,1,31.5,23a6.15,6.15,0,0,1-.94-3.84V17.41a6.07,6.07,0,0,1,.93-3.8,3.21,3.21,0,0,1,2.66-1.14,3.25,3.25,0,0,1,2.68,1.14,6.14,6.14,0,0,1,.92,3.8v1.74A6.3,6.3,0,0,1,36.83,23Zm-1.07-8.52a2,2,0,0,0-3.2,0,5.11,5.11,0,0,0-.54,2.7v2.21a5.28,5.28,0,0,0,.55,2.74,1.77,1.77,0,0,0,1.6.87,1.73,1.73,0,0,0,1.59-.87,5.44,5.44,0,0,0,.53-2.74V17.17A5.22,5.22,0,0,0,35.76,14.47Z" transform="translate(2.85)"/><path d="M42.25,24H40.72l4.69-10.2H39.26V12.63H47v.8Z" transform="translate(2.85)"/><path d="M50.34,22.62a.84.84,0,0,1,.24.62.81.81,0,0,1-.24.61,1,1,0,0,1-1.33,0,.82.82,0,0,1-.24-.61.84.84,0,0,1,.24-.62,1,1,0,0,1,1.33,0Z" transform="translate(2.85)"/><path d="M52.82,24V23l3.72-4.15a13.68,13.68,0,0,0,1.07-1.3,4.05,4.05,0,0,0,.53-.95,2.68,2.68,0,0,0,.15-.89,2.2,2.2,0,0,0-.23-1,1.8,1.8,0,0,0-.68-.74,2,2,0,0,0-1.05-.27,2.14,2.14,0,0,0-1.69.64A2.38,2.38,0,0,0,54.06,16H52.6A3.62,3.62,0,0,1,53,14.2a3.08,3.08,0,0,1,1.27-1.26,4.59,4.59,0,0,1,3.85-.09,2.75,2.75,0,0,1,1.19,1.07,3,3,0,0,1,.42,1.59,3.87,3.87,0,0,1-.58,1.93,11.22,11.22,0,0,1-1.56,2.07l-3,3.32h5.7V24Z" transform="translate(2.85)"/><path d="M68,23a3.18,3.18,0,0,1-2.66,1.17A3.24,3.24,0,0,1,62.7,23a6.22,6.22,0,0,1-.94-3.84V17.41a6.07,6.07,0,0,1,.93-3.8,3.7,3.7,0,0,1,5.34,0,6.14,6.14,0,0,1,.92,3.8v1.74A6.3,6.3,0,0,1,68,23ZM67,14.47a1.77,1.77,0,0,0-1.6-.83,1.79,1.79,0,0,0-1.6.83,5.11,5.11,0,0,0-.54,2.7v2.21a5.38,5.38,0,0,0,.55,2.74,1.77,1.77,0,0,0,1.6.87,1.74,1.74,0,0,0,1.6-.87,5.57,5.57,0,0,0,.52-2.74V17.17A5.22,5.22,0,0,0,67,14.47Z" transform="translate(2.85)"/><path d="M70.8,24V23l3.73-4.15a15.44,15.44,0,0,0,1.07-1.3,4.46,4.46,0,0,0,.53-.95,2.68,2.68,0,0,0,.15-.89,2.2,2.2,0,0,0-.24-1,1.73,1.73,0,0,0-.68-.74,2,2,0,0,0-1-.27,2.16,2.16,0,0,0-1.69.64A2.42,2.42,0,0,0,72,16H70.58A3.74,3.74,0,0,1,71,14.2a3.11,3.11,0,0,1,1.28-1.26,4.1,4.1,0,0,1,2-.47,4.18,4.18,0,0,1,1.83.38,2.81,2.81,0,0,1,1.19,1.07,3.06,3.06,0,0,1,.41,1.59,3.85,3.85,0,0,1-.57,1.93,12.2,12.2,0,0,1-1.56,2.07l-3,3.32h5.7V24Z" transform="translate(2.85)"/><path d="M86.34,19.22a2.91,2.91,0,0,1,.46,1.61,3.25,3.25,0,0,1-.47,1.79,3,3,0,0,1-1.28,1.14,4.12,4.12,0,0,1-1.85.4,4.37,4.37,0,0,1-1.83-.38,3.08,3.08,0,0,1-1.3-1.09,3,3,0,0,1-.48-1.7h1.46A2.1,2.1,0,0,0,81.31,22a1.81,1.81,0,0,0,.75.7A2.4,2.4,0,0,0,83.2,23a2.17,2.17,0,0,0,1.57-.54,2.09,2.09,0,0,0,.57-1.59,1.89,1.89,0,0,0-.64-1.56,2.74,2.74,0,0,0-1.77-.52h-1V17.61h1a2.74,2.74,0,0,0,1.24-.25,1.73,1.73,0,0,0,.75-.69,2,2,0,0,0,.25-1,2,2,0,0,0-.5-1.49,1.93,1.93,0,0,0-1.48-.52,2.2,2.2,0,0,0-1.07.25,1.81,1.81,0,0,0-.72.68,2,2,0,0,0-.25,1H79.68A2.93,2.93,0,0,1,80.13,14a3,3,0,0,1,1.23-1.13,3.92,3.92,0,0,1,1.83-.42,4.17,4.17,0,0,1,1.82.37,2.67,2.67,0,0,1,1.19,1.09,3.32,3.32,0,0,1,.43,1.75,2.39,2.39,0,0,1-.2.92,2.66,2.66,0,0,1-.59.89,3,3,0,0,1-1,.67A2.61,2.61,0,0,1,86.34,19.22Z" transform="translate(2.85)"/><path d="M11.15,34h7.34V43.2H11.15Zm5.9,8V35.16H12.59V42Z" transform="translate(2.85)"/><path d="M22,35.16H20.34V34h3.14v5.14H22Z" transform="translate(2.85)"/><path d="M25.2,43.18l0-1.13a5.69,5.69,0,0,0,1.14.1,1.18,1.18,0,0,0,1-.37,1.64,1.64,0,0,0,.33-1.13V35.16H25.86V34h3.26v6.78a2.68,2.68,0,0,1-.63,1.92,2.33,2.33,0,0,1-1.79.66A6.64,6.64,0,0,1,25.2,43.18Z" transform="translate(2.85)"/><path d="M33.35,41.56a8.31,8.31,0,0,0,1.58.5,7.44,7.44,0,0,0,1.58.18,5.73,5.73,0,0,0,2-.32,3,3,0,0,0,1.39-1,2.62,2.62,0,0,0,.51-1.63V34h1.4v5.45a3.44,3.44,0,0,1-.7,2.19A4.15,4.15,0,0,1,39.24,43a7.5,7.5,0,0,1-2.66.45,10.64,10.64,0,0,1-2.34-.27,10.35,10.35,0,0,1-2.29-.8V34h1.4ZM36,39.82a4.65,4.65,0,0,0,.15-1.25V34h1.41v4.32a4.41,4.41,0,0,1-.19,1.39,2.53,2.53,0,0,1-.6,1l-1.21,0A2,2,0,0,0,36,39.82Z" transform="translate(2.85)"/><path d="M50,41.56a8.31,8.31,0,0,0,1.58.5,7.44,7.44,0,0,0,1.58.18,5.73,5.73,0,0,0,2-.32,3,3,0,0,0,1.39-1,2.62,2.62,0,0,0,.51-1.63V34h1.4v5.45a3.44,3.44,0,0,1-.7,2.19A4.15,4.15,0,0,1,55.91,43a7.46,7.46,0,0,1-2.66.45,10.64,10.64,0,0,1-2.34-.27,10.53,10.53,0,0,1-2.29-.8V34H50Zm2.65-1.74a4.65,4.65,0,0,0,.15-1.25V34h1.42v4.32A4.39,4.39,0,0,1,54,39.7a2.53,2.53,0,0,1-.6,1l-1.2,0A2.08,2.08,0,0,0,52.67,39.82Z" transform="translate(2.85)"/><path d="M61.76,35.16H60.69V34h2.52V43.2H61.76Z" transform="translate(2.85)"/><path d="M72.27,34.91,68.89,43.2H67.34l3.33-8h-5.4v-4h1.45V34h5.55Z" transform="translate(2.85)"/><path d="M75.67,41.56a8.21,8.21,0,0,0,1.57.5,7.51,7.51,0,0,0,1.58.18,5.73,5.73,0,0,0,2-.32,3,3,0,0,0,1.39-1,2.62,2.62,0,0,0,.51-1.63V34h1.4v5.45a3.44,3.44,0,0,1-.7,2.19A4.15,4.15,0,0,1,81.55,43a7.46,7.46,0,0,1-2.66.45,10.64,10.64,0,0,1-2.34-.27,10.53,10.53,0,0,1-2.29-.8V34h1.41Zm2.64-1.74a4.65,4.65,0,0,0,.15-1.25V34h1.42v4.32a4.39,4.39,0,0,1-.2,1.39,2.53,2.53,0,0,1-.6,1l-1.2,0A2.08,2.08,0,0,0,78.31,39.82Z" transform="translate(2.85)"/><path d="M14,54.07a3.53,3.53,0,0,1,.9,2.65V62.4H13.42V56.64a2.48,2.48,0,0,0-.52-1.74,2.18,2.18,0,0,0-1.65-.54H10a3.36,3.36,0,0,0-.41,1.09,5.54,5.54,0,0,0-.16,1.35v3.1a2.73,2.73,0,0,1-.6,1.92A2.24,2.24,0,0,1,7,62.48a7.13,7.13,0,0,1-.9-.07V61.25a4.63,4.63,0,0,0,.54,0,1.25,1.25,0,0,0,1-.35A1.65,1.65,0,0,0,8,59.82V56.91a5.33,5.33,0,0,1,.19-1.42,3,3,0,0,1,.51-1.13H7V53.2h4.29A3.83,3.83,0,0,1,14,54.07Z" transform="translate(2.85)"/><path d="M23.7,54.11,20.32,62.4H18.77l3.33-8H16.7v-4h1.45v2.8H23.7Z" transform="translate(2.85)"/><path d="M32.31,61.29V62.4H24.75V61.23h5v-4.6a2.39,2.39,0,0,0-.53-1.73,2.39,2.39,0,0,0-1.74-.54H25.25V53.2h2.31a3.81,3.81,0,0,1,2.72.87,3.45,3.45,0,0,1,.92,2.6v4.51Z" transform="translate(2.85)"/><path d="M37.21,61.26a2.87,2.87,0,0,0,1.35-.34,2.29,2.29,0,0,0,.9-.9,2.76,2.76,0,0,0,.32-1.38V54.36H34.1V53.2h7.14v5.41a3.87,3.87,0,0,1-.5,2,3.31,3.31,0,0,1-1.41,1.31,4.7,4.7,0,0,1-2.12.49ZM34.28,59a4.58,4.58,0,0,1,.11-1.11,4.81,4.81,0,0,1,.3-.82h1.19a4.15,4.15,0,0,0-.15.78c0,.29,0,.64,0,1.06v6.79H34.28Z" transform="translate(2.85)"/><path d="M54.45,53.2v1.16H52.92v8H51.46v-8H47.09V53.2Z" transform="translate(2.85)"/><path d="M62.8,53.2v5.51a4.13,4.13,0,0,1-.51,2.12,3.29,3.29,0,0,1-1.44,1.32,4.86,4.86,0,0,1-2.15.45A9.27,9.27,0,0,1,55.43,62l.35-1.08a8.17,8.17,0,0,0,2.45.59,3.41,3.41,0,0,1-.78-1.55L55.93,53.2h1.45L58.88,60a5.07,5.07,0,0,0,.21.8,2.74,2.74,0,0,0,.27.6,2.49,2.49,0,0,0,1.47-.88,2.75,2.75,0,0,0,.52-1.74V53.2Z" transform="translate(2.85)"/><path d="M66.06,54.36H65V53.2h2.53v9.2H66.06Z" transform="translate(2.85)"/><path d="M71,56.55a3.61,3.61,0,0,1,.36-1.21,2.79,2.79,0,0,1,.67-.87l.16-.11,0,0c-.23,0-.53.11-.88.2s-.67.19-1,.28L70,53.73a13.07,13.07,0,0,1,2-.51A12.15,12.15,0,0,1,74.06,53a3.82,3.82,0,0,1,2.84,1,3.9,3.9,0,0,1,1,2.9V62.4H74.1V61.24h2.35V56.75a2.76,2.76,0,0,0-.56-1.86,2,2,0,0,0-1.61-.64,1.6,1.6,0,0,0-1.26.58,2.84,2.84,0,0,0-.63,1.58l-.69,6H70.27Z" transform="translate(2.85)"/><path d="M81.12,56.55a3.61,3.61,0,0,1,.36-1.21,2.65,2.65,0,0,1,.67-.87l.16-.11,0,0c-.23,0-.53.11-.88.2s-.67.19-1,.28l-.34-1.09a12.79,12.79,0,0,1,2-.51A12.15,12.15,0,0,1,84.21,53a3.82,3.82,0,0,1,2.84,1,3.9,3.9,0,0,1,1,2.9V62.4H84.25V61.24h2.34V56.75A2.75,2.75,0,0,0,86,54.89a2,2,0,0,0-1.61-.64,1.59,1.59,0,0,0-1.26.58,2.84,2.84,0,0,0-.63,1.58l-.7,6H80.42Z" transform="translate(2.85)"/><path d="M9.68,73.56H8V72.4h3.14v5.13H9.68Z" transform="translate(2.85)"/><path d="M13.81,72.4h3.46a3.79,3.79,0,0,1,2.73.87,3.54,3.54,0,0,1,.9,2.65V81.6H19.46V75.84a2.43,2.43,0,0,0-.52-1.74,2.18,2.18,0,0,0-1.65-.54h-2v8H13.8Z" transform="translate(2.85)"/><path d="M27.31,75.18A1.59,1.59,0,0,0,26.87,74a1.66,1.66,0,0,0-1.21-.44H22.57V72.4h3.14a3.6,3.6,0,0,1,1.63.34,2.36,2.36,0,0,1,1.05,1,3.14,3.14,0,0,1,.37,1.55V81.6H27.31Z" transform="translate(2.85)"/><path d="M31.19,73.63l-.65-.11V72.4H35v1.16H32.63l1.3,8H32.44Z" transform="translate(2.85)"/><path d="M42.17,77.58l2.91,4H43.47L39.36,76a1.94,1.94,0,0,0-.83,1.79V81.6H37.12V78.27a4.16,4.16,0,0,1,.41-2,2.58,2.58,0,0,1,1.26-1.15l-2-2.76h1.63l2.85,3.94,2.22-3.94h1.63Z" transform="translate(2.85)"/><path d="M57.68,72.4v1.16H56.14v8H54.68v-8H50.31V72.4Z" transform="translate(2.85)"/><path d="M60.22,75.75a3.61,3.61,0,0,1,.36-1.21,2.65,2.65,0,0,1,.67-.87l.15-.11v0c-.24,0-.53.11-.88.2s-.67.19-1,.28l-.33-1.09a12.79,12.79,0,0,1,2-.51,12.15,12.15,0,0,1,2.07-.19,3.82,3.82,0,0,1,2.84,1,4,4,0,0,1,1,2.9V81.6H63.35V80.44h2.34V76a2.75,2.75,0,0,0-.55-1.86,2,2,0,0,0-1.61-.64,1.61,1.61,0,0,0-1.27.58,2.84,2.84,0,0,0-.62,1.58l-.7,6H59.51Z" transform="translate(2.85)"/><path d="M76.17,72.4v5.51A4.13,4.13,0,0,1,75.66,80a3.29,3.29,0,0,1-1.44,1.32,4.85,4.85,0,0,1-2.14.45,9.28,9.28,0,0,1-3.28-.65l.35-1.08a8.24,8.24,0,0,0,2.45.59,3.39,3.39,0,0,1-.77-1.55L69.3,72.4h1.46l1.49,6.79a5.07,5.07,0,0,0,.21.8,2.74,2.74,0,0,0,.27.6,2.49,2.49,0,0,0,1.47-.88A2.75,2.75,0,0,0,74.72,78V72.4Z" transform="translate(2.85)"/><path d="M79.62,75.75A3.62,3.62,0,0,1,80,74.54a2.77,2.77,0,0,1,.66-.87l.16-.11,0,0c-.23,0-.52.11-.87.2s-.68.19-1,.28l-.34-1.09a13.21,13.21,0,0,1,2-.51,12.15,12.15,0,0,1,2.07-.19,3.83,3.83,0,0,1,2.84,1,3.94,3.94,0,0,1,1,2.9V81.6H82.76V80.44H85.1V76a2.76,2.76,0,0,0-.56-1.86,2,2,0,0,0-1.61-.64,1.6,1.6,0,0,0-1.26.58A2.84,2.84,0,0,0,81,75.61l-.69,6H78.92Z" transform="translate(2.85)"/><path d="M198.62,25.68A3.18,3.18,0,0,1,196,26.85a3.21,3.21,0,0,1-2.67-1.17,6.17,6.17,0,0,1-.94-3.84V20.1a6.14,6.14,0,0,1,.92-3.8,3.7,3.7,0,0,1,5.34,0,6.07,6.07,0,0,1,.93,3.8v1.74A6.3,6.3,0,0,1,198.62,25.68Zm-1.07-8.52a2,2,0,0,0-3.21,0,5.22,5.22,0,0,0-.53,2.7v2.21a5.21,5.21,0,0,0,.55,2.73,1.76,1.76,0,0,0,1.6.88,1.73,1.73,0,0,0,1.59-.87,5.44,5.44,0,0,0,.53-2.74V19.86A5.22,5.22,0,0,0,197.55,17.16Z" transform="translate(2.85)"/><path d="M204.68,26.69V17l-2.9,1.07v-1.3l4.14-1.56h.23V26.69Z" transform="translate(2.85)"/><path d="M212.13,25.3a.88.88,0,0,1,.23.63.8.8,0,0,1-.23.61.92.92,0,0,1-.67.24.89.89,0,0,1-.66-.24.82.82,0,0,1-.24-.61.83.83,0,0,1,.9-.87A.92.92,0,0,1,212.13,25.3Z" transform="translate(2.85)"/><path d="M220.83,25.68a3.18,3.18,0,0,1-2.66,1.17,3.21,3.21,0,0,1-2.67-1.17,6.17,6.17,0,0,1-.94-3.84V20.1a6.07,6.07,0,0,1,.93-3.8,3.21,3.21,0,0,1,2.66-1.14,3.25,3.25,0,0,1,2.68,1.14,6.14,6.14,0,0,1,.92,3.8v1.74A6.3,6.3,0,0,1,220.83,25.68Zm-1.07-8.52a2,2,0,0,0-3.2,0,5.11,5.11,0,0,0-.54,2.7v2.21a5.21,5.21,0,0,0,.55,2.73,1.76,1.76,0,0,0,1.6.88,1.73,1.73,0,0,0,1.59-.87,5.44,5.44,0,0,0,.53-2.74V19.86A5.22,5.22,0,0,0,219.76,17.16Z" transform="translate(2.85)"/><path d="M226.25,26.69h-1.53l4.69-10.2h-6.15V15.32H231v.8Z" transform="translate(2.85)"/><path d="M234.34,25.3a.88.88,0,0,1,.24.63.81.81,0,0,1-.24.61,1,1,0,0,1-1.33,0,.82.82,0,0,1-.24-.61.83.83,0,0,1,.9-.87A.9.9,0,0,1,234.34,25.3Z" transform="translate(2.85)"/><path d="M236.82,26.69v-1l3.72-4.15a13.68,13.68,0,0,0,1.07-1.3,4.05,4.05,0,0,0,.53-.95,2.68,2.68,0,0,0,.15-.89,2.2,2.2,0,0,0-.23-1,1.8,1.8,0,0,0-.68-.74,2,2,0,0,0-1-.27,2.17,2.17,0,0,0-1.69.63,2.42,2.42,0,0,0-.58,1.7H236.6a3.62,3.62,0,0,1,.43-1.77,3.11,3.11,0,0,1,1.27-1.27,4.26,4.26,0,0,1,2-.46,4.11,4.11,0,0,1,1.82.38,2.75,2.75,0,0,1,1.19,1.07,3,3,0,0,1,.42,1.59,3.9,3.9,0,0,1-.58,1.93,11.22,11.22,0,0,1-1.56,2.07l-3,3.32h5.7v1.17Z" transform="translate(2.85)"/><path d="M252,25.68a3.18,3.18,0,0,1-2.66,1.17,3.24,3.24,0,0,1-2.67-1.17,6.24,6.24,0,0,1-.94-3.84V20.1a6.07,6.07,0,0,1,.93-3.8,3.7,3.7,0,0,1,5.34,0,6.14,6.14,0,0,1,.92,3.8v1.74A6.3,6.3,0,0,1,252,25.68ZM251,17.16a1.77,1.77,0,0,0-1.6-.83,1.79,1.79,0,0,0-1.6.83,5.11,5.11,0,0,0-.54,2.7v2.21a5.32,5.32,0,0,0,.55,2.73,1.76,1.76,0,0,0,1.6.88,1.74,1.74,0,0,0,1.6-.87,5.57,5.57,0,0,0,.52-2.74V19.86A5.22,5.22,0,0,0,251,17.16Z" transform="translate(2.85)"/><path d="M254.8,26.69v-1l3.73-4.15a15.44,15.44,0,0,0,1.07-1.3,4.46,4.46,0,0,0,.53-.95,2.68,2.68,0,0,0,.15-.89,2.2,2.2,0,0,0-.24-1,1.73,1.73,0,0,0-.68-.74,2,2,0,0,0-1.05-.27,2.19,2.19,0,0,0-1.69.63,2.47,2.47,0,0,0-.58,1.7h-1.46a3.74,3.74,0,0,1,.43-1.77,3.13,3.13,0,0,1,1.28-1.27,4.63,4.63,0,0,1,3.85-.08,2.81,2.81,0,0,1,1.19,1.07,3,3,0,0,1,.41,1.59,3.88,3.88,0,0,1-.57,1.93,12.2,12.2,0,0,1-1.56,2.07l-3.05,3.32h5.7v1.17Z" transform="translate(2.85)"/><path d="M263.79,26.69v-1l3.73-4.15a15.44,15.44,0,0,0,1.07-1.3,4.05,4.05,0,0,0,.53-.95,2.68,2.68,0,0,0,.15-.89,2.33,2.33,0,0,0-.23-1,1.87,1.87,0,0,0-.68-.74,2,2,0,0,0-1.06-.27,2.19,2.19,0,0,0-1.69.63,2.46,2.46,0,0,0-.57,1.7h-1.46a3.62,3.62,0,0,1,.43-1.77,3.11,3.11,0,0,1,1.27-1.27,4.24,4.24,0,0,1,2-.46,4.15,4.15,0,0,1,1.83.38,2.75,2.75,0,0,1,1.19,1.07,3,3,0,0,1,.41,1.59,3.88,3.88,0,0,1-.57,1.93,11.69,11.69,0,0,1-1.56,2.07l-3.05,3.32h5.71v1.17Z" transform="translate(2.85)"/><path d="M192,36.69v1.16H190.5v8H189v-8h-4.37V36.69Z" transform="translate(2.85)"/><path d="M200.38,36.69V42.2a4.13,4.13,0,0,1-.51,2.12,3.29,3.29,0,0,1-1.44,1.32,4.85,4.85,0,0,1-2.14.45,9.28,9.28,0,0,1-3.28-.65l.35-1.08a8.24,8.24,0,0,0,2.45.59A3.39,3.39,0,0,1,195,43.4l-1.53-6.71H195l1.49,6.79c.07.31.14.58.21.8a2.74,2.74,0,0,0,.27.6,2.46,2.46,0,0,0,1.47-.88,2.75,2.75,0,0,0,.52-1.74V36.69Z" transform="translate(2.85)"/><path d="M203.65,37.85h-1.07V36.69h2.52v9.2h-1.45Z" transform="translate(2.85)"/><path d="M208.55,40a3.41,3.41,0,0,1,.37-1.21,2.55,2.55,0,0,1,.66-.87l.16-.11,0,0c-.23,0-.52.11-.88.2s-.67.18-1,.28l-.34-1.09a13.21,13.21,0,0,1,2-.51,12.15,12.15,0,0,1,2.07-.19,3.89,3.89,0,0,1,2.84,1,4,4,0,0,1,1,2.91v5.48h-3.79V44.73H214V40.24a2.76,2.76,0,0,0-.56-1.86,2,2,0,0,0-1.61-.64,1.6,1.6,0,0,0-1.26.58A2.81,2.81,0,0,0,210,39.9l-.69,6h-1.43Z" transform="translate(2.85)"/><path d="M218.7,40a3.61,3.61,0,0,1,.36-1.21,2.57,2.57,0,0,1,.67-.87l.16-.11,0,0c-.23,0-.53.11-.88.2s-.67.18-1,.28l-.34-1.09a13.07,13.07,0,0,1,2-.51,12.15,12.15,0,0,1,2.07-.19,3.85,3.85,0,0,1,2.84,1,3.94,3.94,0,0,1,1,2.91v5.48h-3.79V44.73h2.35V40.24a2.76,2.76,0,0,0-.56-1.86,2,2,0,0,0-1.61-.64,1.6,1.6,0,0,0-1.26.58,2.81,2.81,0,0,0-.63,1.58l-.69,6H218Z" transform="translate(2.85)"/><path d="M232.18,36.69h7.35v9.2h-7.35Zm5.9,8V37.85h-4.45v6.87Z" transform="translate(2.85)"/><path d="M243.06,37.85h-1.69V36.69h3.14v5.13h-1.45Z" transform="translate(2.85)"/><path d="M247.89,37.85H246.2V36.69h3.14v5.13h-1.45Z" transform="translate(2.85)"/><path d="M258.5,37.56a3.53,3.53,0,0,1,.9,2.65v5.68H258V40.13a2.48,2.48,0,0,0-.51-1.74,2.18,2.18,0,0,0-1.65-.54h-1.31a3.64,3.64,0,0,0-.41,1.08,6.16,6.16,0,0,0-.15,1.36v3.1a2.73,2.73,0,0,1-.6,1.92,2.25,2.25,0,0,1-1.75.66,6.87,6.87,0,0,1-.9-.07V44.74a4.63,4.63,0,0,0,.54,0,1.25,1.25,0,0,0,1-.36,1.66,1.66,0,0,0,.31-1.1V40.4a5.76,5.76,0,0,1,.18-1.42,3.21,3.21,0,0,1,.52-1.13h-1.73V36.69h4.29A3.79,3.79,0,0,1,258.5,37.56Z" transform="translate(2.85)"/><path d="M261.06,45.88l0-1.14a5.69,5.69,0,0,0,1.14.1,1.21,1.21,0,0,0,1-.36,1.72,1.72,0,0,0,.32-1.14V37.85h-1.8V36.69H265v6.77a2.68,2.68,0,0,1-.62,1.93,2.37,2.37,0,0,1-1.8.66A7.17,7.17,0,0,1,261.06,45.88Z" transform="translate(2.85)"/><path d="M269.21,44.26a8.83,8.83,0,0,0,1.58.5,7.35,7.35,0,0,0,1.57.18,5.73,5.73,0,0,0,2-.33,3,3,0,0,0,1.39-1,2.58,2.58,0,0,0,.51-1.63V36.69h1.41v5.44a3.46,3.46,0,0,1-.7,2.19,4.16,4.16,0,0,1-1.89,1.34,7.46,7.46,0,0,1-2.66.45,11,11,0,0,1-4.63-1.06V36.69h1.41Zm2.65-1.75a4.58,4.58,0,0,0,.15-1.24V36.69h1.41V41a4.48,4.48,0,0,1-.2,1.39,2.6,2.6,0,0,1-.6,1l-1.2,0A2,2,0,0,0,271.86,42.51Z" transform="translate(2.85)"/><path d="M200.26,55.89v1.16h-1.54v8h-1.45v-8h-4.38V55.89Z" transform="translate(2.85)"/><path d="M202.8,59.24a3.61,3.61,0,0,1,.36-1.21,2.65,2.65,0,0,1,.67-.87l.16-.11,0,0c-.23,0-.53.11-.88.2s-.67.18-1,.28l-.34-1.09a12.79,12.79,0,0,1,2-.51,12.15,12.15,0,0,1,2.07-.19,3.85,3.85,0,0,1,2.84,1,4,4,0,0,1,1,2.91v5.48h-3.79V63.93h2.34V59.44a2.75,2.75,0,0,0-.55-1.86,2,2,0,0,0-1.61-.64,1.62,1.62,0,0,0-1.27.58,2.91,2.91,0,0,0-.62,1.58l-.7,6h-1.43Z" transform="translate(2.85)"/><path d="M218.75,55.89V61.4a4.13,4.13,0,0,1-.51,2.12,3.29,3.29,0,0,1-1.44,1.32,4.85,4.85,0,0,1-2.14.45,9.28,9.28,0,0,1-3.28-.65l.36-1.08a8.11,8.11,0,0,0,2.44.59,3.49,3.49,0,0,1-.77-1.55l-1.53-6.71h1.46l1.49,6.79c.07.31.14.58.21.8a2.74,2.74,0,0,0,.27.6,2.46,2.46,0,0,0,1.47-.88,2.75,2.75,0,0,0,.53-1.74V55.89Z" transform="translate(2.85)"/><path d="M222.2,59.24a3.87,3.87,0,0,1,.37-1.21,2.65,2.65,0,0,1,.67-.87l.15-.11v0c-.24,0-.53.11-.88.2s-.68.18-1,.28l-.33-1.09a12.79,12.79,0,0,1,2-.51,12.15,12.15,0,0,1,2.07-.19,3.87,3.87,0,0,1,2.84,1,4,4,0,0,1,1,2.91v5.48h-3.79V63.93h2.34V59.44a2.75,2.75,0,0,0-.55-1.86,2,2,0,0,0-1.61-.64,1.61,1.61,0,0,0-1.27.58,2.77,2.77,0,0,0-.62,1.58l-.7,6H221.5Z" transform="translate(2.85)"/><path d="M242.18,56.76a3.49,3.49,0,0,1,.91,2.65v5.68h-1.45V59.33a2.48,2.48,0,0,0-.51-1.74,2.18,2.18,0,0,0-1.65-.54h-1.3a3.38,3.38,0,0,0-.41,1.08,5.62,5.62,0,0,0-.16,1.36v3.1a2.73,2.73,0,0,1-.6,1.92,2.24,2.24,0,0,1-1.75.66,7.13,7.13,0,0,1-.9-.07V63.94a4.63,4.63,0,0,0,.54,0,1.28,1.28,0,0,0,1-.35,1.65,1.65,0,0,0,.31-1.11V59.6a5.33,5.33,0,0,1,.19-1.42,3,3,0,0,1,.51-1.13h-1.72V55.89h4.28A3.79,3.79,0,0,1,242.18,56.76Z" transform="translate(2.85)"/><path d="M251.92,56.8l-3.38,8.29H247l3.33-8h-5.4v-4h1.45v2.8h5.55Z" transform="translate(2.85)"/><path d="M260.53,64v1.11H253V63.92h5v-4.6a2,2,0,0,0-2.27-2.27h-2.23V55.89h2.3a3.84,3.84,0,0,1,2.73.87,3.45,3.45,0,0,1,.92,2.6v4.51Z" transform="translate(2.85)"/><path d="M265.43,64a2.87,2.87,0,0,0,1.35-.34,2.25,2.25,0,0,0,.9-.91,2.8,2.8,0,0,0,.32-1.37V57.05h-5.68V55.89h7.13v5.4a3.88,3.88,0,0,1-.49,2,3.31,3.31,0,0,1-1.41,1.31,4.7,4.7,0,0,1-2.12.49Zm-2.93-2.31a4.58,4.58,0,0,1,.11-1.11,4.81,4.81,0,0,1,.3-.82h1.18a5.21,5.21,0,0,0-.14.78c0,.29,0,.64,0,1.06v6.79H262.5Z" transform="translate(2.85)"/><path d="M214.61,76.25h-1.69V75.09h3.14v5.13h-1.45Z" transform="translate(2.85)"/><path d="M218.74,75.09h3.46a3.79,3.79,0,0,1,2.73.87,3.53,3.53,0,0,1,.9,2.65v5.68h-1.44V78.53a2.43,2.43,0,0,0-.52-1.74,2.18,2.18,0,0,0-1.65-.54h-2v8h-1.45Z" transform="translate(2.85)"/><path d="M232.24,77.87a1.58,1.58,0,0,0-.44-1.18,1.66,1.66,0,0,0-1.21-.44H227.5V75.09h3.14a3.6,3.6,0,0,1,1.63.34,2.4,2.4,0,0,1,1,1,3.18,3.18,0,0,1,.36,1.56v6.31h-1.44Z" transform="translate(2.85)"/><path d="M236.12,76.31l-.65-.11V75.09h4.47v1.16h-2.37l1.3,8h-1.49Z" transform="translate(2.85)"/><path d="M247.1,80.27l2.91,4H248.4l-4.11-5.66a2,2,0,0,0-.83,1.8v3.86h-1.41V81a4.15,4.15,0,0,1,.41-2,2.58,2.58,0,0,1,1.26-1.15l-2-2.76h1.63L246.2,79l2.22-3.94h1.63Z" transform="translate(2.85)"/></g><g id="Layer_5" data-name="Layer 5"><line class="cls-4" y1="12.99" x2="647" y2="12.99"/></g></g></svg>