<svg xmlns="http://www.w3.org/2000/svg" viewBox="0 0 647 96.85"><defs><style>.cls-1,.cls-2,.cls-3,.cls-4,.cls-6{fill:none;}.cls-1,.cls-2{stroke:#2ec4b6;}.cls-1,.cls-2,.cls-3,.cls-4{stroke-miterlimit:8;}.cls-1{stroke-width:2px;}.cls-3,.cls-4{stroke:#e71d36;}.cls-3{stroke-width:2.28px;}.cls-4{stroke-width:0.96px;}.cls-5{fill:#e71d36;fill-rule:evenodd;}</style></defs><g id="Layer_2" data-name="Layer 2"><g id="base"><line class="cls-1" x1="592" y1="84.68" x2="592" y2="95.68"/><line class="cls-1" x1="413.13" y1="85.06" x2="413.13" y2="96.06"/><line class="cls-2" x1="83.5" y1="70.18" x2="83.5" y2="96.18"/><line class="cls-2" x1="145.5" y1="51.18" x2="83.5" y2="70.18"/><line class="cls-2" x1="207.5" y1="70.18" x2="145.5" y2="51.18"/><line class="cls-2" x1="207.5" y1="95.18" x2="207.5" y2="70.18"/><line class="cls-2" x1="256.76" y1="70.67" x2="256.76" y2="96.67"/><line class="cls-2" x1="318.76" y1="51.67" x2="256.76" y2="70.67"/><line class="cls-2" x1="380.76" y1="70.67" x2="318.76" y2="51.67"/><line class="cls-2" x1="380.76" y1="95.67" x2="380.76" y2="70.67"/><line class="cls-2" x1="443.76" y1="70.67" x2="443.76" y2="96.67"/><line class="cls-2" x1="505.76" y1="51.67" x2="443.76" y2="70.67"/><line class="cls-2" x1="567.76" y1="70.67" x2="505.76" y2="51.67"/><line class="cls-2" x1="567.76" y1="95.67" x2="567.76" y2="70.67"/><line class="cls-3" x1="233" y1="50.68" x2="233" y2="95.68"/><line class="cls-3" x1="51.13" y1="51.85" x2="51.13" y2="96.85"/><path class="cls-4" d="M52.87,98.45c-8.88-3-21.08-14.82-21.91-22C30.28,70.62,36.32,65,43.22,59.3" transform="translate(23.85 -13.32)"/><polygon class="cls-5" points="67.09 45.96 60.83 44.61 71.74 42.17 67.15 52.36 67.09 45.96 67.09 45.96"/></g><g id="example_1" data-name="example 1"><path d="M457.12,98.26V88.61l-2.9,1.08V88.38l4.14-1.55h.22V98.26Z" transform="translate(23.85 -13.32)"/><path d="M472.61,92.49a2.36,2.36,0,0,0-.54-1.73,2.39,2.39,0,0,0-1.74-.54H467V89.06h3.4a3.82,3.82,0,0,1,2.74.88,3.41,3.41,0,0,1,.92,2.59v5.73h-1.45ZM467,95.12a4.67,4.67,0,0,1,.11-1.12,4.52,4.52,0,0,1,.3-.82h1.19a5.61,5.61,0,0,0-.14.79c0,.3-.05.65-.05,1.06v3.23H467Z" transform="translate(23.85 -13.32)"/><path d="M478.35,98.29a9.76,9.76,0,0,1-1.55-.39l.28-1.09a9.77,9.77,0,0,0,1.4.32,8.61,8.61,0,0,0,1.27.1,2.88,2.88,0,0,0,2-.65,2.32,2.32,0,0,0,.69-1.81V90.22h-3.69a4.16,4.16,0,0,0-.4,1.09,5.94,5.94,0,0,0-.15,1.32v.7a1.29,1.29,0,0,0,.46.11,7.56,7.56,0,0,0,.76,0v1.25a7.73,7.73,0,0,1-1.53-.11,3.85,3.85,0,0,1-1.11-.41l0-1.19a6.14,6.14,0,0,1,.2-1.54,4.13,4.13,0,0,1,.55-1.25h-1.12V89.06h7.51V94.5a4.25,4.25,0,0,1-.51,2.17A3.21,3.21,0,0,1,482,98a4.92,4.92,0,0,1-2.1.43A9.13,9.13,0,0,1,478.35,98.29Z" transform="translate(23.85 -13.32)"/><path d="M487.13,90.22h-1.07V89.06h2.52v9.2h-1.45Z" transform="translate(23.85 -13.32)"/><path d="M494.51,97.12a2.93,2.93,0,0,0,1.35-.34,2.36,2.36,0,0,0,.9-.9,2.87,2.87,0,0,0,.32-1.38V90.22H491.4V89.06h7.13v5.41a3.87,3.87,0,0,1-.5,2,3.28,3.28,0,0,1-1.4,1.31,4.77,4.77,0,0,1-2.12.49Zm-2.93-2.31a4.66,4.66,0,0,1,.1-1.11,4.81,4.81,0,0,1,.3-.82h1.19a3.61,3.61,0,0,0-.14.78,10.32,10.32,0,0,0,0,1.06v6.79h-1.4Z" transform="translate(23.85 -13.32)"/><path d="M507.85,89.93a3.54,3.54,0,0,1,.9,2.65v5.68H507.3V92.5a2.48,2.48,0,0,0-.52-1.74,2.18,2.18,0,0,0-1.65-.54h-1.3a3.55,3.55,0,0,0-.41,1.09,6.08,6.08,0,0,0-.16,1.35v3.1a2.77,2.77,0,0,1-.6,1.93,2.27,2.27,0,0,1-1.75.65,7.13,7.13,0,0,1-.9-.07V97.11a4.63,4.63,0,0,0,.54,0,1.25,1.25,0,0,0,1-.35,1.65,1.65,0,0,0,.31-1.11V92.77a5.33,5.33,0,0,1,.19-1.42,3.12,3.12,0,0,1,.51-1.13h-1.72V89.06h4.29A3.83,3.83,0,0,1,507.85,89.93Z" transform="translate(23.85 -13.32)"/><path d="M267,97.86v-1l3.72-4.15a15.07,15.07,0,0,0,1.07-1.3,3.91,3.91,0,0,0,.53-1,2.58,2.58,0,0,0,.15-.88,2.37,2.37,0,0,0-.23-1,1.77,1.77,0,0,0-.68-.73,2,2,0,0,0-1.06-.27,2.15,2.15,0,0,0-1.68.63,2.4,2.4,0,0,0-.58,1.7h-1.46a3.66,3.66,0,0,1,.43-1.78,3.08,3.08,0,0,1,1.27-1.26,4.13,4.13,0,0,1,2-.46,4,4,0,0,1,1.83.38,2.73,2.73,0,0,1,1.19,1.06,3,3,0,0,1,.41,1.6,3.88,3.88,0,0,1-.57,1.93,11.93,11.93,0,0,1-1.56,2.07l-3,3.32h5.71v1.17Z" transform="translate(23.85 -13.32)"/><path d="M285.75,92.08a2.38,2.38,0,0,0-.54-1.73,2.43,2.43,0,0,0-1.74-.53h-3.33V88.66h3.4a3.83,3.83,0,0,1,2.73.87,3.39,3.39,0,0,1,.93,2.59v5.74h-1.45Zm-5.6,2.64a4,4,0,0,1,.41-2h1.19a4.58,4.58,0,0,0-.14.8,10.26,10.26,0,0,0-.05,1.05v3.24h-1.41Z" transform="translate(23.85 -13.32)"/><path d="M291.49,97.88a9.76,9.76,0,0,1-1.55-.39l.28-1.08a9.73,9.73,0,0,0,1.4.31,8.72,8.72,0,0,0,1.27.11,2.88,2.88,0,0,0,2-.65,2.31,2.31,0,0,0,.7-1.81V89.82h-3.69a4.16,4.16,0,0,0-.4,1.09,5.94,5.94,0,0,0-.15,1.32v.7a1.55,1.55,0,0,0,.46.11,7.56,7.56,0,0,0,.76,0v1.25a8.59,8.59,0,0,1-1.53-.11,4.54,4.54,0,0,1-1.11-.41l0-1.19a6.08,6.08,0,0,1,.2-1.54,3.8,3.8,0,0,1,.54-1.25H289.5V88.66H297v5.43a4.29,4.29,0,0,1-.51,2.18,3.24,3.24,0,0,1-1.41,1.31A4.77,4.77,0,0,1,293,98,9.13,9.13,0,0,1,291.49,97.88Z" transform="translate(23.85 -13.32)"/><path d="M300.27,89.82H299.2V88.66h2.52v9.2h-1.45Z" transform="translate(23.85 -13.32)"/><path d="M307.65,96.72a2.94,2.94,0,0,0,1.35-.35,2.29,2.29,0,0,0,.9-.9,2.87,2.87,0,0,0,.32-1.38V89.82h-5.68V88.66h7.13v5.4a3.91,3.91,0,0,1-.5,2,3.41,3.41,0,0,1-1.4,1.31,4.9,4.9,0,0,1-2.12.49Zm-2.93-2.31a4.66,4.66,0,0,1,.1-1.11,4.52,4.52,0,0,1,.3-.82h1.19a4.15,4.15,0,0,0-.15.78c0,.28,0,.64,0,1.06v6.79h-1.4Z" transform="translate(23.85 -13.32)"/><path d="M321,89.53a3.49,3.49,0,0,1,.91,2.65v5.68h-1.45V92.09a2.47,2.47,0,0,0-.51-1.73,2.18,2.18,0,0,0-1.65-.54H317a3.38,3.38,0,0,0-.41,1.08,5.56,5.56,0,0,0-.16,1.36v3.1a2.76,2.76,0,0,1-.6,1.92,2.24,2.24,0,0,1-1.75.66c-.22,0-.52,0-.9-.07V96.7a4.63,4.63,0,0,0,.54,0,1.23,1.23,0,0,0,1-.35,1.62,1.62,0,0,0,.31-1.11v-2.9a5.28,5.28,0,0,1,.19-1.42,3,3,0,0,1,.51-1.13H314V88.66h4.28A3.79,3.79,0,0,1,321,89.53Z" transform="translate(23.85 -13.32)"/><path d="M97.52,93.07A3,3,0,0,1,98,94.69a3.34,3.34,0,0,1-.46,1.79,3.1,3.1,0,0,1-1.29,1.14,4.22,4.22,0,0,1-1.85.39,4.37,4.37,0,0,1-1.83-.37,3.08,3.08,0,0,1-1.3-1.09,3,3,0,0,1-.48-1.7h1.46a2,2,0,0,0,.27,1.05,1.79,1.79,0,0,0,.74.7,2.52,2.52,0,0,0,1.14.24A2.21,2.21,0,0,0,96,96.3a2.1,2.1,0,0,0,.56-1.58,1.91,1.91,0,0,0-.63-1.56,2.72,2.72,0,0,0-1.77-.52h-1V91.47h1a2.87,2.87,0,0,0,1.23-.25,1.76,1.76,0,0,0,.75-.7,2,2,0,0,0,.25-1,2,2,0,0,0-.5-1.5,2,2,0,0,0-1.48-.51,2.31,2.31,0,0,0-1.07.24,1.79,1.79,0,0,0-.71.68,2,2,0,0,0-.26,1H90.86a2.93,2.93,0,0,1,.44-1.59,3.16,3.16,0,0,1,1.24-1.13,4,4,0,0,1,1.82-.41,4.28,4.28,0,0,1,1.82.36,2.81,2.81,0,0,1,1.2,1.09,3.47,3.47,0,0,1,.42,1.76,2.44,2.44,0,0,1-.19.92A2.9,2.9,0,0,1,96,92,2.71,2.71,0,0,1,97.52,93.07Z" transform="translate(23.85 -13.32)"/><path d="M109.75,92.08a2.38,2.38,0,0,0-.54-1.73,2.43,2.43,0,0,0-1.74-.53h-3.33V88.66h3.4a3.83,3.83,0,0,1,2.73.87,3.39,3.39,0,0,1,.93,2.59v5.74h-1.45Zm-5.6,2.64a4,4,0,0,1,.41-2h1.19a4.58,4.58,0,0,0-.14.8,10.26,10.26,0,0,0,0,1.05v3.24h-1.41Z" transform="translate(23.85 -13.32)"/><path d="M115.49,97.88a9.76,9.76,0,0,1-1.55-.39l.28-1.08a9.73,9.73,0,0,0,1.4.31,8.72,8.72,0,0,0,1.27.11,2.88,2.88,0,0,0,2-.65,2.31,2.31,0,0,0,.7-1.81V89.82h-3.69a4.16,4.16,0,0,0-.4,1.09,5.94,5.94,0,0,0-.15,1.32v.7a1.55,1.55,0,0,0,.46.11,7.56,7.56,0,0,0,.76,0v1.25a8.59,8.59,0,0,1-1.53-.11,4.54,4.54,0,0,1-1.11-.41l0-1.19a6.08,6.08,0,0,1,.2-1.54,3.8,3.8,0,0,1,.54-1.25H113.5V88.66H121v5.43a4.29,4.29,0,0,1-.51,2.18,3.24,3.24,0,0,1-1.41,1.31A4.77,4.77,0,0,1,117,98,9.13,9.13,0,0,1,115.49,97.88Z" transform="translate(23.85 -13.32)"/><path d="M124.27,89.82H123.2V88.66h2.52v9.2h-1.45Z" transform="translate(23.85 -13.32)"/><path d="M131.65,96.72a2.94,2.94,0,0,0,1.35-.35,2.29,2.29,0,0,0,.9-.9,2.87,2.87,0,0,0,.32-1.38V89.82h-5.68V88.66h7.13v5.4a3.91,3.91,0,0,1-.5,2,3.41,3.41,0,0,1-1.4,1.31,4.9,4.9,0,0,1-2.12.49Zm-2.93-2.31a4.66,4.66,0,0,1,.1-1.11,4.52,4.52,0,0,1,.3-.82h1.19a3.5,3.5,0,0,0-.14.78,10.17,10.17,0,0,0,0,1.06v6.79h-1.4Z" transform="translate(23.85 -13.32)"/><path d="M145,89.53a3.53,3.53,0,0,1,.9,2.65v5.68h-1.45V92.09a2.47,2.47,0,0,0-.51-1.73,2.18,2.18,0,0,0-1.65-.54H141a3.38,3.38,0,0,0-.41,1.08,5.56,5.56,0,0,0-.16,1.36v3.1a2.76,2.76,0,0,1-.6,1.92,2.24,2.24,0,0,1-1.75.66c-.22,0-.52,0-.9-.07V96.7a4.63,4.63,0,0,0,.54,0,1.23,1.23,0,0,0,1-.35,1.62,1.62,0,0,0,.31-1.11v-2.9a5.28,5.28,0,0,1,.19-1.42,3,3,0,0,1,.51-1.13H138V88.66h4.29A3.83,3.83,0,0,1,145,89.53Z" transform="translate(23.85 -13.32)"/><path d="M74,23.67A3.59,3.59,0,0,1,73,25l-.83-.56a4.39,4.39,0,0,0,.58-1.08,3.35,3.35,0,0,0,.2-1.15V21h1.43v1.15A3.65,3.65,0,0,1,74,23.67Z" transform="translate(23.85 -13.32)"/><path d="M80.28,16.28a1.58,1.58,0,0,0-.44-1.19,1.62,1.62,0,0,0-1.2-.43h-3.1V13.49h3.14a3.64,3.64,0,0,1,1.64.35,2.51,2.51,0,0,1,1.05,1,3.16,3.16,0,0,1,.36,1.56V22.7H80.28Z" transform="translate(23.85 -13.32)"/><path d="M88.32,18.46,90.75,22v.74H83.94V21.53h5l-5.5-8H85l2.45,3.71,2-3.71h1.63Z" transform="translate(23.85 -13.32)"/><path d="M96.17,21.56a3,3,0,0,0,1.36-.35,2.2,2.2,0,0,0,.89-.9,2.76,2.76,0,0,0,.33-1.38V14.66H93.07V13.49h7.13V18.9a3.91,3.91,0,0,1-.5,2,3.41,3.41,0,0,1-1.4,1.31,4.91,4.91,0,0,1-2.13.49Zm-2.92-2.32a3.89,3.89,0,0,1,.4-1.93h1.19a4.44,4.44,0,0,0-.15.79c0,.28,0,.64,0,1.06V26h-1.4Z" transform="translate(23.85 -13.32)"/><path d="M109.51,14.37a3.49,3.49,0,0,1,.91,2.65V22.7H109V16.93a2.47,2.47,0,0,0-.51-1.73,2.18,2.18,0,0,0-1.65-.54h-1.3a3.38,3.38,0,0,0-.41,1.08,5.56,5.56,0,0,0-.16,1.36v3.1a2.76,2.76,0,0,1-.6,1.92,2.24,2.24,0,0,1-1.75.66c-.22,0-.52,0-.9-.07V21.54a4.63,4.63,0,0,0,.54,0,1.25,1.25,0,0,0,1-.35,1.62,1.62,0,0,0,.31-1.11v-2.9a5.28,5.28,0,0,1,.19-1.42,3,3,0,0,1,.51-1.13H102.5V13.49h4.28A3.79,3.79,0,0,1,109.51,14.37Z" transform="translate(23.85 -13.32)"/><path d="M113.64,16.85a3.87,3.87,0,0,1,.37-1.21,2.55,2.55,0,0,1,.66-.87l.16-.11v0c-.24,0-.53.1-.88.19s-.68.19-1,.29L112.64,14a12.79,12.79,0,0,1,2-.51,12.23,12.23,0,0,1,2.07-.2,3.83,3.83,0,0,1,2.84,1,4,4,0,0,1,1,2.9V22.7h-3.79V21.53h2.34V17.05a2.78,2.78,0,0,0-.55-1.87,2,2,0,0,0-1.61-.64,1.64,1.64,0,0,0-1.27.58,2.8,2.8,0,0,0-.62,1.59l-.7,6h-1.43Z" transform="translate(23.85 -13.32)"/><path d="M133.62,14.37a3.49,3.49,0,0,1,.91,2.65V22.7h-1.45V16.93a2.47,2.47,0,0,0-.51-1.73,2.18,2.18,0,0,0-1.65-.54H129.6a3.93,3.93,0,0,0-.41,1.08A6.1,6.1,0,0,0,129,17.1v3.1a2.76,2.76,0,0,1-.6,1.92,2.24,2.24,0,0,1-1.75.66c-.22,0-.52,0-.9-.07V21.54a4.63,4.63,0,0,0,.54,0,1.25,1.25,0,0,0,1-.35,1.62,1.62,0,0,0,.31-1.11v-2.9a5.28,5.28,0,0,1,.19-1.42,3,3,0,0,1,.51-1.13H126.6V13.49h4.29A3.79,3.79,0,0,1,133.62,14.37Z" transform="translate(23.85 -13.32)"/><path d="M137.57,14.66H136.5V13.49H139V22.7h-1.45Z" transform="translate(23.85 -13.32)"/><path d="M145.64,16.28a1.58,1.58,0,0,0-.44-1.19,1.62,1.62,0,0,0-1.2-.43h-3.1V13.49H144a3.57,3.57,0,0,1,1.63.35,2.48,2.48,0,0,1,1.06,1,3.16,3.16,0,0,1,.36,1.56V22.7h-1.45Z" transform="translate(23.85 -13.32)"/><path d="M150.4,14.66h-1.69V13.49h3.14v5.14H150.4Z" transform="translate(23.85 -13.32)"/><path d="M155.93,21.06a7.65,7.65,0,0,0,1.58.5,6.84,6.84,0,0,0,1.58.18,5.73,5.73,0,0,0,2-.32,3,3,0,0,0,1.39-1,2.6,2.6,0,0,0,.51-1.63V13.49h1.4v5.45a3.42,3.42,0,0,1-.7,2.19,4.15,4.15,0,0,1-1.88,1.34,7.5,7.5,0,0,1-2.66.45,10.64,10.64,0,0,1-2.34-.27,10.35,10.35,0,0,1-2.29-.8V13.49h1.4Zm2.65-1.74a4.65,4.65,0,0,0,.15-1.25V13.49h1.41v4.32A4.41,4.41,0,0,1,160,19.2a2.57,2.57,0,0,1-.6,1l-1.21-.05A1.86,1.86,0,0,0,158.58,19.32Z" transform="translate(23.85 -13.32)"/><path d="M172.58,16.92a2.38,2.38,0,0,0-.54-1.73,2.42,2.42,0,0,0-1.73-.53H167V13.49h3.41a3.86,3.86,0,0,1,2.73.88A3.39,3.39,0,0,1,174,17V22.7h-1.45ZM167,19.56a4.7,4.7,0,0,1,.1-1.12,4.61,4.61,0,0,1,.3-.83h1.19a5.76,5.76,0,0,0-.14.8,10.26,10.26,0,0,0-.05,1.05V22.7H167Z" transform="translate(23.85 -13.32)"/><path d="M22.59,35.48a1.58,1.58,0,0,0-.44-1.19,1.63,1.63,0,0,0-1.21-.43H17.85V32.69H21a3.57,3.57,0,0,1,1.63.35,2.4,2.4,0,0,1,1.05,1A3,3,0,0,1,24,35.58V41.9H22.59Z" transform="translate(23.85 -13.32)"/><path d="M27.09,33.86H26V32.69h2.53V41.9H27.09Z" transform="translate(23.85 -13.32)"/><path d="M33.12,41.61a3.23,3.23,0,0,1-1.29-1.3,3.92,3.92,0,0,1-.46-1.94V32.69h1.44v5.79a2.7,2.7,0,0,0,.28,1.27,2,2,0,0,0,.78.86,2.26,2.26,0,0,0,1.17.3,2.23,2.23,0,0,0,1.16-.3,2,2,0,0,0,.78-.86,2.83,2.83,0,0,0,.28-1.27V35.39a1.75,1.75,0,0,0-.34-1.16,1.14,1.14,0,0,0-.94-.41,2.58,2.58,0,0,0-1.12.3l-.23-1a3.46,3.46,0,0,1,.87-.4,3.25,3.25,0,0,1,.91-.14,2.35,2.35,0,0,1,1.23.32,2,2,0,0,1,.79.92,3.3,3.3,0,0,1,.28,1.42v3.1a3.92,3.92,0,0,1-.46,1.94A3.2,3.2,0,0,1,37,41.61a3.84,3.84,0,0,1-1.92.46A3.88,3.88,0,0,1,33.12,41.61Z" transform="translate(23.85 -13.32)"/><path d="M42.92,41.92a9.76,9.76,0,0,1-1.55-.39l.29-1.09a9.34,9.34,0,0,0,1.39.32,8.72,8.72,0,0,0,1.27.11,2.93,2.93,0,0,0,2-.65A2.34,2.34,0,0,0,47,38.41V33.86H43.3A4.16,4.16,0,0,0,42.9,35a5.92,5.92,0,0,0-.15,1.31V37a1.55,1.55,0,0,0,.46.11c.19,0,.45,0,.76,0v1.25a8.59,8.59,0,0,1-1.53-.11,4.14,4.14,0,0,1-1.1-.42l0-1.18a6.22,6.22,0,0,1,.2-1.55,4.07,4.07,0,0,1,.55-1.24H40.93V32.69h7.51v5.44a4.29,4.29,0,0,1-.51,2.18,3.24,3.24,0,0,1-1.41,1.31,4.77,4.77,0,0,1-2.1.43A9.13,9.13,0,0,1,42.92,41.92Z" transform="translate(23.85 -13.32)"/><path d="M60.59,36.12a2.38,2.38,0,0,0-.54-1.73,2.43,2.43,0,0,0-1.74-.53H55V32.69h3.4a3.83,3.83,0,0,1,2.73.88A3.39,3.39,0,0,1,62,36.16V41.9H60.59ZM55,38.76a4,4,0,0,1,.41-1.95h1.19a5.7,5.7,0,0,0-.15.8c0,.29,0,.64,0,1V41.9H55Z" transform="translate(23.85 -13.32)"/><path d="M71.13,33.57a3.53,3.53,0,0,1,.9,2.65V41.9H70.59V36.13a2.45,2.45,0,0,0-.51-1.73,2.22,2.22,0,0,0-1.66-.54h-1.3a3.64,3.64,0,0,0-.41,1.08,6.1,6.1,0,0,0-.15,1.36v3.1a2.72,2.72,0,0,1-.61,1.92,2.24,2.24,0,0,1-1.75.66c-.22,0-.52,0-.89-.07V40.74a4.39,4.39,0,0,0,.54,0,1.21,1.21,0,0,0,1-.35,1.62,1.62,0,0,0,.31-1.11v-2.9A5.28,5.28,0,0,1,65.32,35a3,3,0,0,1,.52-1.13H64.11V32.69H68.4A3.75,3.75,0,0,1,71.13,33.57Z" transform="translate(23.85 -13.32)"/><path d="M75.07,33.86H74V32.69h2.52V41.9H75.07Z" transform="translate(23.85 -13.32)"/><path d="M85.78,32.69v5.52a4.1,4.1,0,0,1-.51,2.11,3.29,3.29,0,0,1-1.44,1.32,4.85,4.85,0,0,1-2.14.45,9.06,9.06,0,0,1-3.28-.65l.35-1.07a8.56,8.56,0,0,0,2.45.59,3.49,3.49,0,0,1-.77-1.55l-1.53-6.72h1.46l1.49,6.79q.11.48.21.81a2.74,2.74,0,0,0,.27.6A2.46,2.46,0,0,0,83.81,40a2.76,2.76,0,0,0,.53-1.75V32.69Z" transform="translate(23.85 -13.32)"/><path d="M89.23,36.05a3.87,3.87,0,0,1,.37-1.21,2.55,2.55,0,0,1,.66-.87l.16-.11v0c-.24.05-.53.11-.88.2s-.68.19-1,.29l-.33-1.09a12.79,12.79,0,0,1,2-.51,12.23,12.23,0,0,1,2.07-.2,3.83,3.83,0,0,1,2.84,1,4,4,0,0,1,1,2.9V41.9H92.37V40.73h2.34V36.25a2.78,2.78,0,0,0-.55-1.87,2,2,0,0,0-1.61-.64,1.64,1.64,0,0,0-1.27.58,2.8,2.8,0,0,0-.62,1.59l-.7,6H88.53Z" transform="translate(23.85 -13.32)"/><path d="M100.16,40.26a7.65,7.65,0,0,0,1.58.5,7.44,7.44,0,0,0,1.58.18,5.73,5.73,0,0,0,2-.32,3,3,0,0,0,1.39-1,2.6,2.6,0,0,0,.51-1.63V32.69h1.4v5.45a3.44,3.44,0,0,1-.7,2.19,4.15,4.15,0,0,1-1.88,1.34,7.5,7.5,0,0,1-2.66.45,10.64,10.64,0,0,1-2.34-.27,10.35,10.35,0,0,1-2.29-.8V32.69h1.4Zm2.65-1.74a4.65,4.65,0,0,0,.15-1.25V32.69h1.41V37a4.41,4.41,0,0,1-.19,1.39,2.64,2.64,0,0,1-.6,1l-1.21,0A1.86,1.86,0,0,0,102.81,38.52Z" transform="translate(23.85 -13.32)"/><path d="M112.09,36.05a3.61,3.61,0,0,1,.36-1.21,2.45,2.45,0,0,1,.67-.87l.15-.11v0c-.24.05-.53.11-.88.2s-.67.19-1,.29l-.33-1.09a12.79,12.79,0,0,1,2-.51,12.23,12.23,0,0,1,2.07-.2,3.82,3.82,0,0,1,2.84,1,4,4,0,0,1,1,2.9V41.9h-3.79V40.73h2.34V36.25a2.78,2.78,0,0,0-.55-1.87,2,2,0,0,0-1.61-.64,1.64,1.64,0,0,0-1.27.58,2.87,2.87,0,0,0-.62,1.59l-.7,6h-1.43Z" transform="translate(23.85 -13.32)"/><path d="M130.93,36.12a2.38,2.38,0,0,0-.54-1.73,2.42,2.42,0,0,0-1.73-.53h-3.34V32.69h3.41a3.86,3.86,0,0,1,2.73.88,3.42,3.42,0,0,1,.92,2.59V41.9h-1.45Zm-5.59,2.64a4.7,4.7,0,0,1,.1-1.12,4.61,4.61,0,0,1,.3-.83h1.19a5.76,5.76,0,0,0-.14.8,10.26,10.26,0,0,0-.05,1V41.9h-1.4Z" transform="translate(23.85 -13.32)"/><path d="M136.67,41.92a9.76,9.76,0,0,1-1.55-.39l.29-1.09a9.34,9.34,0,0,0,1.39.32,8.72,8.72,0,0,0,1.27.11,2.93,2.93,0,0,0,2-.65,2.34,2.34,0,0,0,.69-1.81V33.86h-3.69a4.16,4.16,0,0,0-.4,1.09,5.92,5.92,0,0,0-.15,1.31V37a1.55,1.55,0,0,0,.46.11c.19,0,.45,0,.76,0v1.25a8.59,8.59,0,0,1-1.53-.11,4.14,4.14,0,0,1-1.1-.42l0-1.18a6.22,6.22,0,0,1,.2-1.55,4.07,4.07,0,0,1,.55-1.24h-1.12V32.69h7.51v5.44a4.29,4.29,0,0,1-.51,2.18,3.24,3.24,0,0,1-1.41,1.31,4.77,4.77,0,0,1-2.1.43A9.13,9.13,0,0,1,136.67,41.92Z" transform="translate(23.85 -13.32)"/><path d="M145.45,33.86h-1.07V32.69h2.53V41.9h-1.46Z" transform="translate(23.85 -13.32)"/><path d="M152.83,40.76a2.94,2.94,0,0,0,1.35-.35,2.29,2.29,0,0,0,.9-.9,2.87,2.87,0,0,0,.32-1.38V33.86h-5.68V32.69h7.13V38.1a3.81,3.81,0,0,1-.5,2,3.41,3.41,0,0,1-1.4,1.31,4.9,4.9,0,0,1-2.12.49Zm-2.93-2.32a3.82,3.82,0,0,1,.4-1.93h1.19a4.46,4.46,0,0,0-.14.79,10.17,10.17,0,0,0,0,1.06v6.79h-1.4Z" transform="translate(23.85 -13.32)"/><path d="M166.17,33.57a3.53,3.53,0,0,1,.9,2.65V41.9h-1.45V36.13a2.4,2.4,0,0,0-.52-1.73,2.18,2.18,0,0,0-1.65-.54h-1.3a3.64,3.64,0,0,0-.41,1.08,6.1,6.1,0,0,0-.15,1.36v3.1a2.76,2.76,0,0,1-.61,1.92,2.24,2.24,0,0,1-1.75.66c-.22,0-.52,0-.89-.07V40.74a4.33,4.33,0,0,0,.53,0,1.22,1.22,0,0,0,1-.35,1.62,1.62,0,0,0,.31-1.11v-2.9a5.28,5.28,0,0,1,.19-1.42,3.21,3.21,0,0,1,.51-1.13h-1.72V32.69h4.29A3.75,3.75,0,0,1,166.17,33.57Z" transform="translate(23.85 -13.32)"/><path d="M175,36.12a2.38,2.38,0,0,0-.54-1.73,2.4,2.4,0,0,0-1.73-.53h-3.34V32.69h3.41a3.86,3.86,0,0,1,2.73.88,3.39,3.39,0,0,1,.93,2.59V41.9H175Zm-5.59,2.64a3.76,3.76,0,0,1,.41-1.95H171a5.76,5.76,0,0,0-.14.8c0,.29,0,.64,0,1V41.9h-1.41Z" transform="translate(23.85 -13.32)"/><path d="M179.7,36.05a3.62,3.62,0,0,1,.37-1.21,2.55,2.55,0,0,1,.66-.87l.16-.11,0,0L180,34c-.36.1-.68.19-1,.29l-.34-1.09a13.21,13.21,0,0,1,2-.51,12.23,12.23,0,0,1,2.07-.2,3.83,3.83,0,0,1,2.84,1,4,4,0,0,1,1,2.9V41.9h-3.78V40.73h2.34V36.25a2.78,2.78,0,0,0-.56-1.87,2,2,0,0,0-1.61-.64,1.63,1.63,0,0,0-1.26.58,2.88,2.88,0,0,0-.63,1.59l-.69,6H179Z" transform="translate(23.85 -13.32)"/><path d="M198.55,36.12a2.38,2.38,0,0,0-.54-1.73,2.43,2.43,0,0,0-1.74-.53h-3.33V32.69h3.4a3.83,3.83,0,0,1,2.73.88,3.39,3.39,0,0,1,.93,2.59V41.9h-1.45ZM193,38.76a4,4,0,0,1,.41-1.95h1.19a4.58,4.58,0,0,0-.14.8,8,8,0,0,0,0,1V41.9H193Z" transform="translate(23.85 -13.32)"/><path d="M201.34,41.94V40.6a3.23,3.23,0,0,0,.46,0,2.68,2.68,0,0,0,1.82-.68,3,3,0,0,0,.9-1.68V33.86h-2.08V32.69H206v4.75a6.48,6.48,0,0,0,.15,1.41l.64,3h-1.37l-.53-2.58h-.06a2.93,2.93,0,0,1-.52,1.3,3.34,3.34,0,0,1-1.1,1,3,3,0,0,1-1.45.36Z" transform="translate(23.85 -13.32)"/><path d="M209.49,33.86H207.8V32.69h3.14v5.14h-1.45Z" transform="translate(23.85 -13.32)"/><path d="M217.41,35.48a1.58,1.58,0,0,0-.44-1.19,1.63,1.63,0,0,0-1.21-.43h-3.09V32.69h3.14a3.57,3.57,0,0,1,1.63.35,2.48,2.48,0,0,1,1.06,1,3.14,3.14,0,0,1,.36,1.55V41.9h-1.45Z" transform="translate(23.85 -13.32)"/><path d="M221.48,32.69h3.46a3.72,3.72,0,0,1,2.72.88,3.57,3.57,0,0,1,.91,2.65V41.9h-1.45V36.13a2.45,2.45,0,0,0-.51-1.73,2.22,2.22,0,0,0-1.66-.54h-2v8h-1.44Z" transform="translate(23.85 -13.32)"/></g><g id="Layer_5" data-name="Layer 5"><line class="cls-6" y1="36.68" x2="647" y2="36.68"/></g></g></svg>