<svg xmlns="http://www.w3.org/2000/svg" xmlns:xlink="http://www.w3.org/1999/xlink" viewBox="0 0 16.4 9.63"><defs><style>.cls-1,.cls-2,.cls-3,.cls-4,.cls-6{fill:none;}.cls-1,.cls-2{clip-rule:evenodd;}.cls-2{clip-path:url(#clip-path);}.cls-4,.cls-5{fill-rule:evenodd;}.cls-10,.cls-5{fill:#fdb833;}.cls-6{stroke:#fdb833;stroke-miterlimit:8;stroke-width:0.96px;}.cls-7{clip-path:url(#clip-path-3);}.cls-8{clip-path:url(#clip-path-4);}.cls-9{clip-path:url(#clip-path-5);}.cls-11{clip-path:url(#clip-path-7);}.cls-12{clip-path:url(#clip-path-8);}.cls-13{fill:#fff;}</style><clipPath id="clip-path"><polygon class="cls-1" points="0 16.44 16.44 16.44 16.44 0 0 0 0 16.44 0 16.44"/></clipPath><clipPath id="clip-path-3" transform="translate(-0.03 -3.39)"><polygon class="cls-1" points="0 16.44 16.44 16.44 16.44 0 0 0 0 16.44 0 16.44"/></clipPath><clipPath id="clip-path-4" transform="translate(-0.03 -3.39)"><polygon class="cls-2" points="0.24 0.12 16.32 0.12 16.32 16.2 0.24 16.2 0.24 0.12 0.24 0.12"/></clipPath><clipPath id="clip-path-5" transform="translate(-0.03 -3.39)"><polygon class="cls-3" points="0.24 16.2 16.32 16.2 16.32 0.12 0.24 0.12 0.24 16.2 0.24 16.2"/></clipPath><clipPath id="clip-path-7" transform="translate(-0.03 -3.39)"><polygon class="cls-2" points="0 0 16.44 0 16.44 16.44 0 16.44 0 0 0 0"/></clipPath><clipPath id="clip-path-8" transform="translate(-0.03 -3.39)"><polygon class="cls-3" points="0 16.44 16.44 16.44 16.44 0 0 0 0 16.44 0 16.44"/></clipPath></defs><g id="Layer_2" data-name="Layer 2"><g id="Layer_1-2" data-name="Layer 1"><path class="cls-5" d="M4.92,8.22a3.73,3.73,0,0,1,3.9-3.54,3.73,3.73,0,0,1,3.9,3.54,3.73,3.73,0,0,1-3.9,3.54,3.73,3.73,0,0,1-3.9-3.54Z" transform="translate(-0.03 -3.39)"/><path class="cls-6" d="M4.92,8.22a3.73,3.73,0,0,1,3.9-3.54,3.73,3.73,0,0,1,3.9,3.54,3.73,3.73,0,0,1-3.9,3.54,3.73,3.73,0,0,1-3.9-3.54Z" transform="translate(-0.03 -3.39)"/><g class="cls-7"><g class="cls-8"><g class="cls-9"><path class="cls-10" d="M8.29,3.39A10,10,0,0,0,.4,7.79a.63.63,0,0,0,0,.76A10,10,0,0,0,8.29,13a10,10,0,0,0,7.9-4.41.62.62,0,0,0,0-.75,10,10,0,0,0-7.9-4.41Zm.22,8.15a3.37,3.37,0,1,1,3.15-3.15,3.37,3.37,0,0,1-3.15,3.15ZM8.41,10a1.81,1.81,0,1,1,1.7-1.69A1.81,1.81,0,0,1,8.41,10Z" transform="translate(-0.03 -3.39)"/></g></g><g class="cls-7"><g class="cls-11"><g class="cls-12"><path class="cls-13" d="M16.38,8c-.13-.19-3.24-4.59-8.15-4.59C4,3.45.27,7.83.11,8a.36.36,0,0,0,0,.44C.27,8.64,4,13,8.23,13s8-4.38,8.13-4.57a.36.36,0,0,0,0-.41ZM8.23,12.33c-3.37,0-6.58-3.21-7.4-4.1.82-.88,4-4.1,7.4-4.1,3.95,0,6.74,3.22,7.42,4.09-.78.85-4,4.11-7.42,4.11Z" transform="translate(-0.03 -3.39)"/><path class="cls-13" d="M8.23,5.5A2.74,2.74,0,1,0,11,8.23,2.74,2.74,0,0,0,8.23,5.5Zm0,4.78a2,2,0,1,1,2-2,2.05,2.05,0,0,1-2,2Z" transform="translate(-0.03 -3.39)"/></g></g></g></g></g></g></svg>