<?xml version="1.0" encoding="utf-8"?>
<!-- Generator: Adobe Illustrator 25.2.1, SVG Export Plug-In . SVG Version: 6.00 Build 0)  -->
<svg version="1.1" id="Layer_2" xmlns="http://www.w3.org/2000/svg" xmlns:xlink="http://www.w3.org/1999/xlink" x="0px" y="0px"
	 viewBox="0 0 512 512" style="enable-background:new 0 0 512 512;" xml:space="preserve">
<style type="text/css">
	.st0{fill:#FDB833;}
	.st1{fill:none;stroke:#FFFFFF;stroke-width:7;stroke-miterlimit:10;}
	.st2{fill:#344A5E;}
	.st3{fill:#415A6B;}
</style>
<path class="st0" d="M376.2,311.2c0,0-74.4,56.2-67.8,123.9H205.8c0,0,3-83.4-74.8-132.9L376.2,311.2z"/>
<ellipse class="st0" cx="256.5" cy="224.3" rx="146.7" ry="150.4"/>
<path class="st0" d="M79.6,234.5H44.7c-6.1,0-11-4.9-11-11v0c0-6.1,4.9-11,11-11h34.9c6.1,0,11,4.9,11,11v0
	C90.6,229.6,85.7,234.5,79.6,234.5z"/>
<path class="st0" d="M138.1,356.2l-24.7,24.7c-4.3,4.3-11.2,4.3-15.5,0l0,0c-4.3-4.3-4.3-11.2,0-15.5l24.7-24.7
	c4.3-4.3,11.2-4.3,15.5,0l0,0C142.4,344.9,142.4,351.9,138.1,356.2z"/>
<path class="st0" d="M122.4,105.2L97.7,80.5c-4.3-4.3-4.3-11.2,0-15.5l0,0c4.3-4.3,11.2-4.3,15.5,0l24.7,24.7
	c4.3,4.3,4.3,11.2,0,15.5l0,0C133.6,109.5,126.7,109.5,122.4,105.2z"/>
<path class="st0" d="M398.9,380.8l-24.7-24.7c-4.3-4.3-4.3-11.2,0-15.5l0,0c4.3-4.3,11.2-4.3,15.5,0l24.7,24.7
	c4.3,4.3,4.3,11.2,0,15.5v0C410.1,385.1,403.2,385.1,398.9,380.8z"/>
<path class="st0" d="M468.3,234.3h-34.9c-6.1,0-11-4.9-11-11v0c0-6.1,4.9-11,11-11h34.9c6.1,0,11,4.9,11,11v0
	C479.3,229.4,474.4,234.3,468.3,234.3z"/>
<path class="st0" d="M414,81.6l-25.9,23.4c-4.5,4.1-11.5,3.7-15.5-0.8l0,0c-4.1-4.5-3.7-11.5,0.8-15.5l25.9-23.4
	c4.5-4.1,11.5-3.7,15.5,0.8v0C418.8,70.5,418.5,77.5,414,81.6z"/>
<path class="st0" d="M267.5,11.8v34.9c0,6.1-4.9,11-11,11h0c-6.1,0-11-4.9-11-11V11.8c0-6.1,4.9-11,11-11h0
	C262.6,0.8,267.5,5.7,267.5,11.8z"/>
<path class="st1" d="M262.5,408.6L311,227.3c0.1-0.4-0.4-0.7-0.7-0.4c-2.7,2.3-10.2,7.2-18.8-0.2c-17.3-14.8-24.1,3.8-33,3.6
	c-11.4-0.2-14.6-10.6-20.8-10.4c-10.7,0.3-13.6,16.8-33.3,7c-0.3-0.2-0.7,0.1-0.6,0.4l47.2,181.2c0,0.1,0.2,0.2,0.3,0.2h10.6
	C262.3,408.8,262.4,408.7,262.5,408.6z"/>
<path class="st2" d="M293.5,489.6h-75c-11.3,0-20.5-9.2-20.5-20.5v-78.8h116v78.8C313.9,480.5,304.8,489.6,293.5,489.6z"/>
<path class="st2" d="M259.7,454.5h-8c-15.6,0-28.2,12.6-28.2,28.2v0c0,15.6,12.6,28.2,28.2,28.2h8c15.6,0,28.2-12.6,28.2-28.2v0
	C287.9,467.2,275.3,454.5,259.7,454.5z"/>
<path class="st3" d="M313.5,430.5H198.3c-6.5,0-11.7-5.3-11.7-11.7v0c0-6.5,5.3-11.7,11.7-11.7h115.2c6.5,0,11.7,5.3,11.7,11.7v0
	C325.3,425.3,320,430.5,313.5,430.5z"/>
<path class="st3" d="M313.5,467.7H198.3c-6.5,0-11.7-5.3-11.7-11.7v0c0-6.5,5.3-11.7,11.7-11.7h115.2c6.5,0,11.7,5.3,11.7,11.7v0
	C325.3,462.4,320,467.7,313.5,467.7z"/>
</svg>
