<?xml version="1.0"?>
<svg xmlns="http://www.w3.org/2000/svg" xmlns:xlink="http://www.w3.org/1999/xlink" xmlns:svgjs="http://svgjs.com/svgjs" version="1.1" width="512" height="512" x="0" y="0" viewBox="0 0 511.999 511.999" style="enable-background:new 0 0 512 512" xml:space="preserve" class=""><g>
<path xmlns="http://www.w3.org/2000/svg" style="" d="M279.948,7.379c-14.45-9.838-33.448-9.838-47.897,0L22.785,149.858  c-9.864,6.716-15.767,17.877-15.767,29.809v307.231c-0.001,13.863,11.237,25.101,25.1,25.101h447.763  c13.863,0,25.1-11.238,25.1-25.1V179.668c0-11.934-5.903-23.094-15.767-29.809L279.948,7.379z" fill="#54d1c6" data-original="#96c8ef" class=""/>
<path xmlns="http://www.w3.org/2000/svg" style="" d="M479.88,511.999c13.863,0,25.1-11.238,25.1-25.1V179.668c0-11.933-5.903-23.094-15.767-29.81  l-42.065-28.64L269.174,228.934c-3.975,2.4-8.532,3.671-13.176,3.671c-4.601,0-9.114-1.245-13.064-3.603L65.809,120.565  l-43.024,29.293c-9.864,6.716-15.767,17.877-15.767,29.81v307.231c-0.001,13.862,11.237,25.1,25.1,25.1H479.88z" fill="#2ec4b6" data-original="#78b9eb" class=""/>
<path xmlns="http://www.w3.org/2000/svg" style="" d="M441.582,430.859H70.416V101.983c0-23.355,18.934-42.289,42.289-42.289h286.588  c23.355,0,42.289,18.934,42.289,42.289L441.582,430.859L441.582,430.859z" fill="#fff5cc" data-original="#fff5cc"/>
<path xmlns="http://www.w3.org/2000/svg" style="" d="M269.175,228.935c-3.975,2.4-8.532,3.671-13.176,3.671c-4.601,0-9.114-1.245-13.064-3.603  L70.416,123.385v307.474h371.165V124.588L269.175,228.935z" fill="#ffeb99" data-original="#ffeb99" class=""/>
<path xmlns="http://www.w3.org/2000/svg" style="" d="M210.871,281.846L12.579,160.451c-3.575,5.675-5.561,12.314-5.561,19.217v307.231  c-0.001,13.862,11.237,25.1,25.1,25.1h447.763c13.863,0,25.1-11.238,25.1-25.1V179.668c0-6.498-1.762-12.76-4.949-18.207  L301.127,281.846C273.375,298.605,238.623,298.605,210.871,281.846z" fill="#aae7e1" data-original="#b9d8f4" class=""/>
<path xmlns="http://www.w3.org/2000/svg" style="" d="M213.301,283.365L17.908,507.719c4.004,2.702,8.83,4.28,14.023,4.28h447.763  c5.358,0,10.319-1.684,14.396-4.544L299.044,282.947C272.492,298.088,239.96,298.233,213.301,283.365z" fill="#bbefea" data-original="#d1e7f8" class=""/>
<g xmlns="http://www.w3.org/2000/svg">
	<path style="" d="M369.614,120.204H142.385c-4.267,0-7.726-3.458-7.726-7.726c0-4.268,3.459-7.726,7.726-7.726   h227.228c4.267,0,7.726,3.458,7.726,7.726C377.339,116.746,373.881,120.204,369.614,120.204z" fill="#57565c" data-original="#57565c" class=""/>
	<path style="" d="M369.614,160.304H142.385c-4.267,0-7.726-3.458-7.726-7.726c0-4.268,3.459-7.726,7.726-7.726   h227.228c4.267,0,7.726,3.458,7.726,7.726C377.339,156.846,373.881,160.304,369.614,160.304z" fill="#57565c" data-original="#57565c" class=""/>
	<path style="" d="M249.002,200.402H142.385c-4.267,0-7.726-3.458-7.726-7.726c0-4.268,3.459-7.726,7.726-7.726   h106.618c4.267,0,7.726,3.458,7.726,7.726C256.729,196.943,253.269,200.402,249.002,200.402z" fill="#57565c" data-original="#57565c" class=""/>
</g>
<path xmlns="http://www.w3.org/2000/svg" style="" d="M142.385,200.402h53.834l-25.242-15.453h-28.593c-4.267,0-7.726,3.458-7.726,7.726  C134.658,196.943,138.118,200.402,142.385,200.402z" fill="#3e3d42" data-original="#3e3d42" class=""/>
<g xmlns="http://www.w3.org/2000/svg">
</g>
<g xmlns="http://www.w3.org/2000/svg">
</g>
<g xmlns="http://www.w3.org/2000/svg">
</g>
<g xmlns="http://www.w3.org/2000/svg">
</g>
<g xmlns="http://www.w3.org/2000/svg">
</g>
<g xmlns="http://www.w3.org/2000/svg">
</g>
<g xmlns="http://www.w3.org/2000/svg">
</g>
<g xmlns="http://www.w3.org/2000/svg">
</g>
<g xmlns="http://www.w3.org/2000/svg">
</g>
<g xmlns="http://www.w3.org/2000/svg">
</g>
<g xmlns="http://www.w3.org/2000/svg">
</g>
<g xmlns="http://www.w3.org/2000/svg">
</g>
<g xmlns="http://www.w3.org/2000/svg">
</g>
<g xmlns="http://www.w3.org/2000/svg">
</g>
<g xmlns="http://www.w3.org/2000/svg">
</g>
</g></svg>
