<svg xmlns="http://www.w3.org/2000/svg" viewBox="0 0 127.86 378.64"><defs><style>.cls-1{fill:#c0c0ce;}.cls-2{fill:#e69680;}.cls-3{fill:#2e505b;}.cls-4{fill:#1c323e;}.cls-5{fill:#42717c;}.cls-6{fill:#f4f5f5;}.cls-7{fill:#428596;}.cls-8{fill:#e06c5c;}.cls-9{fill:#182118;}</style></defs><g id="Layer_2" data-name="Layer 2"><g id="OBJECTS"><path class="cls-1" d="M127.86,373.87c0,2.63-27.75,4.77-62,4.77s-62-2.14-62-4.77,27.75-4.77,62-4.77S127.86,371.23,127.86,373.87Z"/><path class="cls-2" d="M79.15,346.08,80.61,359a14.55,14.55,0,0,0,10.62-1.73v-12.9S81.25,343.39,79.15,346.08Z"/><path class="cls-3" d="M79.16,343.51l10.75.75,3.75-56,2.75-107.5L64,179.4c1.6,45.94,1.9,68.61,8.65,101.11C70.51,287.45,75.41,327.76,79.16,343.51Z"/><path class="cls-4" d="M83.05,344.56a.75.75,0,0,1-.74-.63c0-.3-4.77-30.4-5.65-41.31a166.9,166.9,0,0,1,0-22.64c-7-22.76-8.5-80.15-8.52-80.73a.75.75,0,0,1,.73-.77.76.76,0,0,1,.77.73c0,.58,1.54,58,8.49,80.46a.67.67,0,0,1,0,.28,168.48,168.48,0,0,0,0,22.55c.89,10.85,5.59,40.89,5.64,41.2a.73.73,0,0,1-.62.85Z"/><path class="cls-5" d="M94.17,341.06a13.32,13.32,0,0,1-.39,8.28L76.41,349a22,22,0,0,1-.75-8.25Z"/><path class="cls-4" d="M75.71,372.27c0,1.68.15,2.82.15,2.82h42.73a7.23,7.23,0,0,0-.19-2.82c-2.35-8.59-20.78-8.77-22.34-12.8-3.34-8.67-5.88-3.57-5.88-3.57s-9.71-2-12.23,2.7C76.59,361.14,75.62,368.47,75.71,372.27Z"/><path class="cls-6" d="M102.13,366.77l-.14,0a.52.52,0,0,1-.37-.65,4.28,4.28,0,0,1,2.2-3,4.37,4.37,0,0,1,3.4.11.53.53,0,0,1,.25.71.54.54,0,0,1-.71.25h0a2.78,2.78,0,0,0-4.12,2.19A.52.52,0,0,1,102.13,366.77Z"/><path class="cls-6" d="M99.54,365.66l-.14,0A.53.53,0,0,1,99,365a4.21,4.21,0,0,1,2.2-3,4.33,4.33,0,0,1,3.4.11.51.51,0,0,1,.25.7.53.53,0,0,1-.71.25h0a3.32,3.32,0,0,0-2.51-.1,3.29,3.29,0,0,0-1.61,2.3A.53.53,0,0,1,99.54,365.66Z"/><path class="cls-6" d="M96.88,364.94h-.14a.53.53,0,0,1-.37-.65,4.21,4.21,0,0,1,2.2-3,4.33,4.33,0,0,1,3.4.11.53.53,0,0,1,.25.7.55.55,0,0,1-.71.25,3.33,3.33,0,0,0-2.51-.1,3.29,3.29,0,0,0-1.61,2.29A.52.52,0,0,1,96.88,364.94Z"/><path class="cls-3" d="M75.71,372.27c0,1.68.15,2.82.15,2.82h42.73a7.23,7.23,0,0,0-.19-2.82Z"/><path class="cls-2" d="M25.9,345.33l-.61,13.28s7,3.21,12,0l.74-15S28,342.64,25.9,345.33Z"/><path class="cls-5" d="M39.16,342.76l11.5-63.5,10.25-67.5c19.25-20.25,15.75-34.5,15.75-34.5l-43.21,2.07L27.41,292c-2.25,28.75-2,34.75-2.25,50.25Z"/><path class="cls-4" d="M15.72,375H44.18a16.27,16.27,0,0,0,.33-3,15.91,15.91,0,0,0-.33-3.62c-.73-3.5-3.76-2.62-6.34-9.82A10.13,10.13,0,0,0,35,355a6.35,6.35,0,0,0-9.31,0c-4.13,4.23-5.22,9.53-7.8,11.68A7.35,7.35,0,0,0,15.55,372,11.9,11.9,0,0,0,15.72,375Z"/><path class="cls-6" d="M35.53,363.31a.51.51,0,0,1-.47-.29c-.05-.08-1.21-2.22-5-2.22S25,363,25,363a.53.53,0,1,1-.94-.47c.06-.12,1.47-2.81,6-2.81s5.92,2.69,6,2.81a.53.53,0,0,1-.23.71A.52.52,0,0,1,35.53,363.31Z"/><path class="cls-6" d="M35.53,360.8a.53.53,0,0,1-.47-.29c-.05-.09-1.21-2.23-5-2.23s-5,2.2-5.05,2.23A.53.53,0,0,1,24,360c.06-.12,1.47-2.81,6-2.81s5.92,2.69,6,2.81a.53.53,0,0,1-.47.77Z"/><path class="cls-6" d="M35.53,358.48a.51.51,0,0,1-.47-.29C35,358.1,33.85,356,30,356s-5,2.2-5.05,2.22a.53.53,0,0,1-.71.24.54.54,0,0,1-.23-.72c.06-.11,1.47-2.8,6-2.8s5.92,2.69,6,2.8a.54.54,0,0,1-.23.72A.69.69,0,0,1,35.53,358.48Z"/><path class="cls-3" d="M15.72,375H44.18a16.27,16.27,0,0,0,.33-3h-29A11.9,11.9,0,0,0,15.72,375Z"/><path class="cls-7" d="M41.45,340.88a13.47,13.47,0,0,1-.39,8.28l-18.5-.35a21.14,21.14,0,0,1-.38-8.11Z"/><path class="cls-4" d="M97.14,189.65C95.52,196.85,31,202.34,31,187.26c0-10.35,3.1-48.35,3.71-64.71a47.36,47.36,0,0,0-.4-6.76c0-.2,0-.4-.07-.61a.68.68,0,0,1,0-.14c-.09-.72-.19-1.46-.3-2.23a.13.13,0,0,0,0-.06.5.5,0,0,0,0-.12c-.21-1.47-.45-3-.71-4.59-.13-.8-.26-1.62-.4-2.44C30.2,90.39,26.34,72,30,68.77c5.69-5.12,24.66-12.12,24.66-12.12L70,56.87s21,4.62,23.49,10.08c1.63,3.62,1.25,17.21.76,30.85,0,1-.07,1.93-.1,2.89-.22,6-.43,11.8-.48,16.67,0,2.77.06,5.84.21,9.11,0,1,.09,1.91.15,2.88C95.31,151.22,99.25,180.31,97.14,189.65Z"/><path class="cls-3" d="M32.19,102.1h0c.5-1,1.09-2,1.77-3.24h0q.65-1.11,1.38-2.31c1-1.69,2.22-3.47,3.53-5.25a.74.74,0,0,0-1.19-.88,82,82,0,0,0-4.86,7.48l-.06.1a0,0,0,0,1,0,0c-.35.6-.67,1.18-1,1.74Z"/><path class="cls-3" d="M33.43,99a.73.73,0,0,1-.34-1.38c2-1.07,6.11-2.89,6.28-3A.73.73,0,1,1,40,96s-4.21,1.89-6.2,2.93A.68.68,0,0,1,33.43,99Z"/><path class="cls-3" d="M94.29,97.8c0,1-.07,1.93-.1,2.89-.49-.92-1-2-1.7-3.09q-.63-1.11-1.38-2.31c-1-1.69-2.21-3.47-3.53-5.25a.74.74,0,0,1,.16-1,.73.73,0,0,1,1,.15,84.07,84.07,0,0,1,4.86,7.46.31.31,0,0,0,.05.1C93.89,97.09,94.1,97.45,94.29,97.8Z"/><path class="cls-3" d="M93,97.78a.73.73,0,0,0,.34-1.38c-2-1.07-6.11-2.89-6.28-3a.74.74,0,0,0-1,.37.73.73,0,0,0,.38,1s4.21,1.89,6.19,2.93A.72.72,0,0,0,93,97.78Z"/><path class="cls-3" d="M86.48,160.27h-.13c-10.49-1.81-19.26-11.09-24.77-18.55a99.71,99.71,0,0,1-9.5-15.83.74.74,0,0,1,1.34-.61,98.18,98.18,0,0,0,9.36,15.58c5.35,7.24,13.82,16.23,23.82,18a.74.74,0,0,1-.12,1.47Z"/><path class="cls-3" d="M67.15,72.54a24.59,24.59,0,0,1-9.8-2.13A28.74,28.74,0,0,1,50.16,66a.68.68,0,1,1,.91-1c.11.09,10.71,9.42,22.84,5a.68.68,0,0,1,.88.41.67.67,0,0,1-.41.87A21,21,0,0,1,67.15,72.54Z"/><path class="cls-3" d="M81.42,180c-8.47,0-16.52-3-22.28-5.92a74.26,74.26,0,0,1-13.47-8.68.68.68,0,0,1,.89-1,73.21,73.21,0,0,0,13.22,8.52c7.16,3.59,17.91,7.38,28.45,5a.69.69,0,0,1,.3,1.34A32.63,32.63,0,0,1,81.42,180Z"/><path class="cls-3" d="M71.66,184.25a35,35,0,0,1-14.18-3,.67.67,0,0,1-.31-.91.69.69,0,0,1,.92-.32c.09.05,9.41,4.51,19.86,2.21a.7.7,0,0,1,.82.52.69.69,0,0,1-.52.82A30.81,30.81,0,0,1,71.66,184.25Z"/><path class="cls-4" d="M44.94,20.74s-6.53-3.48-5.78-7.48S43.41,12,43.41,12s-3.56-7-1.5-8c3-1.5,5.5,4,5.5,4s-.75-6,2.75-5.5A5.62,5.62,0,0,1,54.66,6s1.5-5.75,4.5-6,2,5.25,2,5.25,4.75-6.75,8.75-4.5,0,5.75,0,5.75,7.5-4.25,8.75-.25-1.5,5-1.5,5,6.75-1.25,7.25,2S80.91,17,80.91,17s2.63,4.28-2.31,4.76S44.94,20.74,44.94,20.74Z"/><path class="cls-2" d="M47.14,31S43,29.32,42,34.19s4.1,10,8.2,8.33C50.18,42.52,49.22,33.06,47.14,31Z"/><path class="cls-8" d="M49.11,40.69a.55.55,0,0,1-.52-.45,9,9,0,0,0-3.41-5.5A.55.55,0,0,1,45,34a.54.54,0,0,1,.75-.14,9.94,9.94,0,0,1,3.87,6.21.54.54,0,0,1-.44.63Z"/><path class="cls-8" d="M45,38.06a.55.55,0,0,1-.24-1A6.18,6.18,0,0,1,48,36.35a.54.54,0,1,1-.19,1.07,5,5,0,0,0-2.56.57A.48.48,0,0,1,45,38.06Z"/><path class="cls-2" d="M76.35,31s4.13-1.68,5.15,3.19-4.1,10-8.2,8.33C73.3,42.52,74.26,33.06,76.35,31Z"/><path class="cls-8" d="M74.37,40.69a.54.54,0,0,0,.52-.45,9,9,0,0,1,3.41-5.5.54.54,0,1,0-.6-.9,9.89,9.89,0,0,0-3.87,6.21.54.54,0,0,0,.44.63Z"/><path class="cls-8" d="M78.54,38.06a.53.53,0,0,0,.46-.3.54.54,0,0,0-.22-.73,6.2,6.2,0,0,0-3.26-.68.55.55,0,0,0-.43.63.54.54,0,0,0,.63.44,4.94,4.94,0,0,1,2.55.57A.54.54,0,0,0,78.54,38.06Z"/><path class="cls-2" d="M71.49,60.35a14,14,0,0,1-17.9,0L53.8,58l1.05-12.07H70l.72,7Z"/><path class="cls-4" d="M70.72,52.87C69,55,64.12,59.35,53.8,58l1.05-12.07H70Z"/><path class="cls-2" d="M77,31.94c-.18,1.25-.41,2.56-.7,3.91-.36,1.69-.81,3.43-1.34,5.14-2.55,8.08-7.14,15.49-14.38,14-6-1.21-9.7-7.46-11.9-14.07-.57-1.71-1-3.43-1.43-5.1-.25-1.08-.47-2.13-.66-3.13-.46-2.45-.74-4.64-.92-6.25a5.23,5.23,0,0,1,2.17-4.84C59.94,13,76.17,18.69,77.28,23.58A28.63,28.63,0,0,1,77,31.94Z"/><path class="cls-4" d="M66,29.79s.27-2.5,2.25-2.64S73.13,28,73,30.54Z"/><path class="cls-4" d="M59.05,29.79s-.27-2.5-2.24-2.64S51.89,28,52,30.54Z"/><path class="cls-3" d="M78.59,22.43C78.46,27.35,76.3,37,75.53,36.57s0-6.48,0-8.31l-.61-5,.92-2A24.34,24.34,0,0,0,62.08,18c-8.41.46-13.16,3.35-13.16,3.35l1,1.91c-.14,1.52-1.48,7.45-1.48,7.45-.12.69-.4,5.61-.81,5.48C46.79,35.93,45.54,27,45,25.43a10.79,10.79,0,0,1-.48-4.07c.21-3.46,2-8.28,9.27-11.55,8.84-4,23.3-1.47,24.77,11.07A10.62,10.62,0,0,1,78.59,22.43Z"/><path class="cls-4" d="M78.59,22.43l-3.71.84.92-2A24.34,24.34,0,0,0,62.08,18c-8.41.46-13.16,3.35-13.16,3.35l1,1.91L44.5,21.36C44,18.17,46,12.07,53.25,8.8c8.84-4,24.22-1.56,25.29,12.08A12.25,12.25,0,0,1,78.59,22.43Z"/><path class="cls-8" d="M55.54,37.14c0,.85-1.34,1.56-3,1.59s-3-.66-3.05-1.51,1.34-1.56,3-1.59S55.53,36.29,55.54,37.14Z"/><path class="cls-8" d="M74.44,37.14c0,.85-1.34,1.56-3,1.59s-3-.66-3.05-1.51,1.34-1.56,3-1.59S74.43,36.29,74.44,37.14Z"/><path class="cls-6" d="M57.2,44.1s6.51,1,10.69,0c0,0-1.32,4.36-5.49,4.36C58.86,48.46,57.2,44.1,57.2,44.1Z"/><path class="cls-4" d="M57.35,33.73c0,.84-.35,1.54-.82,1.54s-.86-.67-.87-1.51.35-1.54.82-1.54S57.33,32.89,57.35,33.73Z"/><path class="cls-4" d="M67.36,33.73c0,.84.35,1.54.82,1.54s.86-.67.87-1.51-.35-1.54-.82-1.54S67.38,32.89,67.36,33.73Z"/><path class="cls-8" d="M63,41.2A6.94,6.94,0,0,1,61.43,41a.49.49,0,1,1,.23-1,5.24,5.24,0,0,0,1.61.17c0-.8-.57-4.45-1.1-7.7a.5.5,0,0,1,.4-.56.49.49,0,0,1,.56.41c.28,1.73,1.19,7.42,1.11,8.09a.8.8,0,0,1-.33.53A1.75,1.75,0,0,1,63,41.2Z"/><path class="cls-2" d="M19.38,117.87c.81-2,1.79-4.25,2.8-6.43.76-1.66,1.54-3.3,2.29-4.85,2.11-4.43,4.36-9,6.84-13.19.39-6.25.45-15.74-2.43-19.72a8,8,0,0,0-6.32,3.89c-2.15,3.6-4.31,7.23-6.43,10.93S11.92,96,9.94,99.85l-.48.94c-1.8,3.6-3.52,7.3-5,11.14a100.16,100.16,0,0,0-4.19,13v0a8,8,0,0,0,.12,4.25l.06.17.05.13.08.2.15.39.3.71c.2.47.4.91.6,1.34.41.87.82,1.72,1.25,2.55q1.28,2.47,2.67,4.81c1.84,3.13,3.83,6.11,5.91,9,1,1.44,2.12,2.85,3.2,4.25s2.21,2.77,3.35,4.11q3.41,4,7.06,7.8a5.47,5.47,0,0,0,8.32-7.07l0,0q-2.92-3.93-5.56-8c-.89-1.35-1.73-2.73-2.56-4.11s-1.62-2.78-2.38-4.19c-1.52-2.8-2.92-5.66-4.16-8.53-.61-1.44-1.19-2.88-1.71-4.31-.15-.4-.28-.8-.42-1.2l-.15-.47c.06-.23.13-.46.19-.69C17.37,123.29,18.31,120.58,19.38,117.87Z"/><path class="cls-4" d="M25.14,112.15,32.71,98s3.42-5.63,3.64-9.06c.4-6.25.64-9-1.32-15.3-.33-1.07-3.39-5.19-4.37-5.42C21.94,72.94,8.62,94.7,7.16,99,7.16,99,14,108.36,25.14,112.15Z"/><path class="cls-8" d="M9.53,125.3a.56.56,0,0,0,.56.56,23.16,23.16,0,0,1,6.45,1.34l-.15-.47c.06-.23.13-.46.19-.69a23.43,23.43,0,0,0-6.5-1.3A.55.55,0,0,0,9.53,125.3Z"/><path class="cls-8" d="M15,126.69a.5.5,0,0,0,.26-.08.57.57,0,0,0,.18-.77,25.87,25.87,0,0,0-3.56-3.75.55.55,0,0,0-.78,0,.55.55,0,0,0,.05.79,26.1,26.1,0,0,1,3.34,3.5A.57.57,0,0,0,15,126.69Z"/><path class="cls-2" d="M36.7,160.93l-3.62,8.28c-3.94.85-8.64-5.32-8.64-5.32.57-3.4,2.1-6.23,5.59-7.9,0,0,3.48,1.18,5.51,1.89a2.12,2.12,0,0,1,1.19,3Z"/><path class="cls-9" d="M24.58,164.4s1.88-6.78,5.76-9.37a4,4,0,0,1,4,2.25s-5.17,8.17-5.91,10.5A5.3,5.3,0,0,1,24.58,164.4Z"/><path class="cls-9" d="M30.55,158.88A3.63,3.63,0,1,1,25.31,160,3.8,3.8,0,0,1,30.55,158.88Z"/><path class="cls-3" d="M29.92,159.86a2.65,2.65,0,1,1-3.83.84A2.78,2.78,0,0,1,29.92,159.86Z"/><path class="cls-2" d="M35.55,166.05s5.31.49,6,2.29-6.77,1.55-6.77,1.55,3.65.66,3.91,1.57c.6,2.07-4.63,1.67-7,1s-1.51-2.8-.5-2.85c0,0-1.18-2.54.35-4,0,0-1.59-1.71.28-3.93,0,0-1.65-3.23.71-3.86,0,0,.6-3.69,2.13-3.61l-.07,3.52a38.73,38.73,0,0,1,7.14.58c1.92.57,1.63,3.54-5.82,3.35,0,0,6.18.4,7.54,2.23S39.55,166.11,35.55,166.05Z"/><path class="cls-2" d="M126.27,123.92v0a100.16,100.16,0,0,0-4.19-13c-1.52-3.84-3.23-7.54-5-11.14l-.48-.94c-2-3.89-4.06-7.65-6.19-11.35s-4.28-7.33-6.43-10.93a8,8,0,0,0-6.32-3.89c-2.87,4-2.82,13.47-2.42,19.72,2.47,4.2,4.72,8.76,6.84,13.19.74,1.55,1.52,3.19,2.28,4.85,1,2.18,2,4.39,2.8,6.43a83.83,83.83,0,0,1,2.8,8.17c.07.23.13.46.2.69s-.11.31-.16.47q-.19.6-.42,1.2c-.51,1.43-1.09,2.87-1.71,4.31-1.23,2.87-2.64,5.73-4.16,8.53-.76,1.41-1.56,2.8-2.38,4.19s-1.67,2.76-2.55,4.11-1.59,2.41-2.41,3.61v13a5.47,5.47,0,0,0,5.15-1.54q3.64-3.76,7.06-7.8c1.14-1.34,2.24-2.72,3.34-4.11s2.16-2.81,3.2-4.25c2.09-2.9,4.07-5.88,5.92-9q1.38-2.34,2.67-4.81c.42-.83.84-1.68,1.24-2.55.21-.43.41-.87.61-1.34l.29-.71.16-.39.08-.2,0-.13.06-.17A7.94,7.94,0,0,0,126.27,123.92Z"/><path class="cls-4" d="M101.36,111.15,93.8,97s-3.06-5.69-3.89-9c-1.25-5-2.43-9-1.5-15.5.5-3.5,2.77-7,3.75-7.25,8.71,4.68,24.18,26.78,25.64,31.08C117.8,96.34,112.47,107.36,101.36,111.15Z"/><path class="cls-8" d="M117,124.3a.57.57,0,0,1-.57.56A23.32,23.32,0,0,0,110,126.2c.05-.16.1-.31.16-.47s-.13-.46-.2-.69a23.43,23.43,0,0,1,6.5-1.3A.56.56,0,0,1,117,124.3Z"/><path class="cls-8" d="M111.48,125.69a.5.5,0,0,1-.26-.08.55.55,0,0,1-.17-.77,25.41,25.41,0,0,1,3.55-3.75.56.56,0,0,1,.74.84,25.36,25.36,0,0,0-3.35,3.5A.56.56,0,0,1,111.48,125.69Z"/><path class="cls-2" d="M94.07,163.94s-5.31.49-6,2.29,6.77,1.55,6.77,1.55-3.64.66-3.9,1.57c-.6,2.07,4.63,1.67,7,1s1.5-2.8.5-2.86c0,0,1.17-2.53-.35-4.05,0,0,1.58-1.7-.29-3.92,0,0,1.65-3.23-.71-3.86,0,0,.12-4.24-1.41-4.17v4a45,45,0,0,0-7.78.66c-1.93.57-1.63,3.54,5.82,3.35,0,0-6.18.4-7.54,2.23S90.06,164,94.07,163.94Z"/></g></g></svg>