<svg xmlns="http://www.w3.org/2000/svg" viewBox="0 0 186.36 66.73"><defs><style>.cls-1{fill:#2ec4b6;}.cls-2{fill:none;stroke:#fdb833;stroke-miterlimit:8;stroke-width:6px;}.cls-3{fill:#fdb833;fill-rule:evenodd;}</style></defs><g id="Layer_2" data-name="Layer 2"><g id="Layer_1-2" data-name="Layer 1"><rect class="cls-1" x="2.8" y="35.62" width="181" height="31"/><polyline class="cls-2" points="183.36 66.23 183.36 35.62 3 35.62 3 66.73"/><path class="cls-3" d="M67.92,27.84C67.92,12.46,79.55,0,93.9,0s26,12.46,26,27.84-11.63,27.84-26,27.84-26-12.46-26-27.84Z"/><path class="cls-3" d="M71.56,14.57h0V34.49H49.15V33.16h0L49,33c16.36-.37,18.07-4.66,20.21-13.62.16-1.3,2.18-3.54,2.34-4.84Z"/><path class="cls-3" d="M116,14.57h0V34.49h22.53V33.16h0l.19-.13c-16.46-.37-18.18-4.66-20.32-13.62-.16-1.3-2.2-3.54-2.36-4.84Z"/><path d="M91.26,33l-.12-1.17c-.27-2.42.57-5.08,2.8-7.77,2-2.41,3.14-4.15,3.14-6.16,0-2.31-1.42-3.85-4.29-3.87a8,8,0,0,0-4.54,1.39l-1.08-2.84a12,12,0,0,1,6.45-1.81c5.16,0,7.52,3.2,7.52,6.63,0,3-1.72,5.26-3.88,7.79-2,2.37-2.7,4.36-2.55,6.66L94.77,33Zm-1,6.29a2.67,2.67,0,1,1,2.65,2.8A2.65,2.65,0,0,1,90.27,39.29Z"/></g></g></svg>