<svg xmlns="http://www.w3.org/2000/svg" xmlns:xlink="http://www.w3.org/1999/xlink" viewBox="0 0 186.36 166.44"><defs><style>.cls-1,.cls-2,.cls-4{fill:none;}.cls-1{clip-rule:evenodd;}.cls-2,.cls-3,.cls-6{fill-rule:evenodd;}.cls-3{fill:#2ec4b6;}.cls-4{stroke:#fdb833;stroke-miterlimit:8;stroke-width:6px;}.cls-5{clip-path:url(#clip-path);}.cls-6{fill:#fdb833;}</style><clipPath id="clip-path"><polygon class="cls-1" points="0 166.44 186.36 166.44 186.36 0 0 0 0 166.44 0 166.44"/></clipPath></defs><g id="Layer_2" data-name="Layer 2"><g id="Layer_1-2" data-name="Layer 1"><polygon class="cls-3" points="3 38.4 183.36 38.4 183.36 163.44 3 163.44 3 38.4 3 38.4"/><polygon class="cls-4" points="3 38.4 183.36 38.4 183.36 163.44 3 163.44 3 38.4 3 38.4"/><g class="cls-5"><path class="cls-6" d="M67.92,27.84C67.92,12.46,79.55,0,93.9,0s26,12.46,26,27.84-11.63,27.84-26,27.84-26-12.46-26-27.84Z"/><g class="cls-5"><path class="cls-6" d="M70.67,17.64h0V37.56H48.26V36.23h.05l-.19-.13c16.37-.37,18.08-4.66,20.21-13.62.16-1.3,2.18-3.54,2.34-4.84Z"/><g class="cls-5"><path class="cls-6" d="M117,18.24h0V38.16h22.54V36.83h0l.19-.13c-16.45-.37-18.17-4.66-20.32-13.62-.16-1.3-2.19-3.54-2.35-4.84Z"/></g></g></g></g></g></svg>