<?xml version="1.0"?>
<svg xmlns="http://www.w3.org/2000/svg" xmlns:xlink="http://www.w3.org/1999/xlink" xmlns:svgjs="http://svgjs.com/svgjs" version="1.1" width="512" height="512" x="0" y="0" viewBox="0 0 512 512" style="enable-background:new 0 0 512 512" xml:space="preserve" class=""><g><path xmlns="http://www.w3.org/2000/svg" d="m224 0h288v512h-288zm0 0" fill="#e71d36" data-original="#ff8a65" style="" class=""/><path xmlns="http://www.w3.org/2000/svg" d="m224 192h224v320h-224zm0 0" fill="#cf182f" data-original="#ff7043" style="" class=""/><path xmlns="http://www.w3.org/2000/svg" d="m192 224h224v288h-224zm0 0" fill="#fdb833" data-original="#f8e868" style="" class=""/><path xmlns="http://www.w3.org/2000/svg" d="m224 512h-224v-288l112-80 112 80zm0 0" fill="#2ec4b6" data-original="#aed581" style="" class=""/><path xmlns="http://www.w3.org/2000/svg" d="m64 400h96v112h-96zm0 0" fill="#24a397" data-original="#7cb342" style="" class=""/><path xmlns="http://www.w3.org/2000/svg" d="m256 400h96v112h-96zm0 0" fill="#d99e2b" data-original="#e0c938" style="" class=""/><g xmlns="http://www.w3.org/2000/svg" fill="#fff"><path d="m256 336h32v32h-32zm0 0" fill="#ffffff" data-original="#ffffff" style="" class=""/><path d="m320 336h32v32h-32zm0 0" fill="#ffffff" data-original="#ffffff" style="" class=""/><path d="m256 272h32v32h-32zm0 0" fill="#ffffff" data-original="#ffffff" style="" class=""/><path d="m320 272h32v32h-32zm0 0" fill="#ffffff" data-original="#ffffff" style="" class=""/><path d="m64 336h32v32h-32zm0 0" fill="#ffffff" data-original="#ffffff" style="" class=""/><path d="m128 336h32v32h-32zm0 0" fill="#ffffff" data-original="#ffffff" style="" class=""/><path d="m64 272h32v32h-32zm0 0" fill="#ffffff" data-original="#ffffff" style="" class=""/><path d="m128 272h32v32h-32zm0 0" fill="#ffffff" data-original="#ffffff" style="" class=""/><path d="m96 208h32v32h-32zm0 0" fill="#ffffff" data-original="#ffffff" style="" class=""/><path d="m288 80h32v32h-32zm0 0" fill="#ffffff" data-original="#ffffff" style="" class=""/><path d="m352 80h32v32h-32zm0 0" fill="#ffffff" data-original="#ffffff" style="" class=""/><path d="m416 80h32v32h-32zm0 0" fill="#ffffff" data-original="#ffffff" style="" class=""/><path d="m288 144h32v32h-32zm0 0" fill="#ffffff" data-original="#ffffff" style="" class=""/><path d="m352 144h32v32h-32zm0 0" fill="#ffffff" data-original="#ffffff" style="" class=""/><path d="m416 144h32v32h-32zm0 0" fill="#ffffff" data-original="#ffffff" style="" class=""/></g></g></svg>
