<svg xmlns="http://www.w3.org/2000/svg" xmlns:xlink="http://www.w3.org/1999/xlink" viewBox="0 0 131.49 363.11"><defs><style>.cls-1{fill:url(#linear-gradient);}.cls-2{fill:#c0c0ce;}.cls-3{fill:#e4f2f2;}.cls-4{fill:#e69680;}.cls-5{fill:#2e505b;}.cls-6{fill:none;stroke:#1c323e;stroke-linecap:round;stroke-linejoin:round;stroke-width:1.5px;}.cls-7{fill:#42717c;}.cls-8{fill:#33302f;}.cls-9{fill:#7d8585;}.cls-10{fill:#332f2f;}.cls-11{fill:#428596;}.cls-12{fill:#c5ced9;}.cls-13{fill:#e06c5c;}.cls-14{fill:#1c323e;}.cls-15{fill:#f4d9a4;}.cls-16{fill:#495656;}.cls-17{fill:#182118;}.cls-18{fill:#edf4f4;}.cls-19{fill:#aec1be;}.cls-20{fill:#cc3e48;}.cls-21{fill:url(#linear-gradient-2);}.cls-22{fill:#c3c2c4;}</style><linearGradient id="linear-gradient" x1="63.23" x2="63.23" y2="9.86" gradientUnits="userSpaceOnUse"><stop offset="0" stop-color="#f4d9a4"/><stop offset="0.35" stop-color="#f2d5a0"/><stop offset="0.67" stop-color="#edca95"/><stop offset="0.99" stop-color="#e3b882"/><stop offset="1" stop-color="#e3b781"/></linearGradient><linearGradient id="linear-gradient-2" x1="50.08" y1="80.53" x2="50.08" y2="40.67" gradientUnits="userSpaceOnUse"><stop offset="0" stop-color="#f4d9a4"/><stop offset="0.4" stop-color="#f3d6a1"/><stop offset="0.68" stop-color="#eece98"/><stop offset="0.91" stop-color="#e7bf89"/><stop offset="1" stop-color="#e3b781"/></linearGradient></defs><g id="Layer_2" data-name="Layer 2"><g id="Layer_1-2" data-name="Layer 1"><path class="cls-1" d="M62.83,0c3.53-.2,8.24,3.17,8.42,5.68.14,1.87-1.54,2.26-3.32,3C62.12,11.22,55,9.25,55.2,6.41,55.37,4.2,58.26.26,62.83,0Z"/><g id="Layer_2-2" data-name="Layer 2"><g id="OBJECTS"><path class="cls-2" d="M125,359c0,2.3-26.41,4.16-59,4.16S7,361.25,7,359s26.42-4.16,59-4.16S125,356.66,125,359Z"/><path class="cls-3" d="M94.16,165.44c-9.87,12.88-43.68,13.48-53.37,1.09-12.12-12.67.66-5.39,3.16-41.8-.14-2.53-6.79-21.88-7-23.22-.13-.73-.26-1.48-.4-2.23-.22-1.19-.44-2.41-.68-3.63l-.39-2.06c-2.38-12.49-4.82-25.5-1.74-28.08,5.63-4.69,23.46-11.12,23.46-11.12l16,.2s2,.41,4.92,1.14c6.3,1.59,16.6,4.67,18.26,8.1s1.19,17.32.67,30.5C92.51,114.71,92,124.76,91.88,127c0,.18,4,16.42,6.87,22.59C101.89,156.37,96.32,162.62,94.16,165.44Z"/><path class="cls-4" d="M83.44,334.09l1.37,11.27a14.56,14.56,0,0,0,10-1.5V332.61S85.39,331.74,83.44,334.09Z"/><path class="cls-5" d="M98.75,159.72,96.52,273.43l-.33,59.81L81.81,334s-10.09-54-4.92-69.5C69.44,238,67.69,200.76,66.2,160.73Z"/><path class="cls-6" d="M73.19,178.08s0,61.72,8.67,86.19c0,0-6.07,19,3.75,65.83"/><path class="cls-7" d="M97.58,329.71a11,11,0,0,1-.36,7.22l-16.31-.3a17.86,17.86,0,0,1-.7-7.19Z"/><path class="cls-8" d="M80.23,356.9a20.68,20.68,0,0,0,.13,2.46h40.1a6,6,0,0,0-.18-2.46c-2.2-7.48-19.5-7.64-21-11.14-3.14-7.56-5.53-3.11-5.53-3.11S84.68,340.9,82.32,345C81.05,347.21,80.13,353.61,80.23,356.9Z"/><path class="cls-9" d="M105,352.12h-.14a.46.46,0,0,1-.34-.57,3.7,3.7,0,0,1,2-2.61,4.37,4.37,0,0,1,3.2.09.45.45,0,0,1,.29.6.5.5,0,0,1-.64.27l-.08,0h0a3.4,3.4,0,0,0-2.35-.09,2.89,2.89,0,0,0-1.52,2A.5.5,0,0,1,105,352.12Z"/><path class="cls-9" d="M102.59,351.14h-.14a.46.46,0,0,1-.35-.55h0a3.71,3.71,0,0,1,2-2.62,4.47,4.47,0,0,1,3.2.1.47.47,0,0,1,.26.63.54.54,0,0,1-.69.24h0a3.29,3.29,0,0,0-2.35-.09,2.85,2.85,0,0,0-1.52,2A.48.48,0,0,1,102.59,351.14Z"/><path class="cls-9" d="M100.08,350.52H100a.45.45,0,0,1-.36-.56h0a3.81,3.81,0,0,1,2.07-2.62,4.42,4.42,0,0,1,3.2.1.46.46,0,0,1,.25.63.53.53,0,0,1-.69.24h0a3.42,3.42,0,0,0-2.36-.09,2.86,2.86,0,0,0-1.51,2A.48.48,0,0,1,100.08,350.52Z"/><path class="cls-10" d="M80.23,356.9a20.68,20.68,0,0,0,.13,2.46h40.1a6,6,0,0,0-.18-2.46Z"/><path class="cls-4" d="M25,334.09l-.58,11.57s6.57,2.8,11.26,0l.7-13.07S27,331.74,25,334.09Z"/><path class="cls-7" d="M81.76,159.87s2.58,11.69-16.41,26.92L51.39,268l-13,64-14.08-.07s2.82-45.27,6.39-72.75l5.73-98.41Z"/><path class="cls-8" d="M15.48,359.94H42.22a12.74,12.74,0,0,0,.3-2.61,12,12,0,0,0-.3-3.16c-.69-3.05-3.53-2.29-5.95-8.55a9.07,9.07,0,0,0-2.62-3.07,6.28,6.28,0,0,0-8.42-.29l-.32.29c-3.88,3.69-4.9,8.3-7.33,10.18a6.25,6.25,0,0,0-2.23,4.61A9.86,9.86,0,0,0,15.48,359.94Z"/><path class="cls-9" d="M34.08,349.76a.53.53,0,0,1-.45-.26c0-.07-1.14-1.94-4.69-1.94s-4.69,1.93-4.69,1.94a.53.53,0,0,1-.69.15.45.45,0,0,1-.2-.56c.05-.1,1.38-2.45,5.63-2.45s5.57,2.35,5.63,2.45a.44.44,0,0,1-.22.61A.45.45,0,0,1,34.08,349.76Z"/><path class="cls-9" d="M34.08,347.56a.51.51,0,0,1-.45-.25c0-.07-1.14-1.94-4.69-1.94s-4.69,1.92-4.69,1.94a.53.53,0,0,1-.67.21.44.44,0,0,1-.22-.61h0c.05-.11,1.38-2.45,5.63-2.45s5.57,2.34,5.63,2.45a.45.45,0,0,1-.22.62A.58.58,0,0,1,34.08,347.56Z"/><path class="cls-9" d="M34.08,345.55a.51.51,0,0,1-.45-.26c0-.07-1.14-1.94-4.69-1.94s-4.69,1.93-4.69,1.94a.51.51,0,0,1-.67.2.43.43,0,0,1-.22-.6h0c.05-.1,1.38-2.45,5.63-2.45s5.57,2.35,5.63,2.45a.44.44,0,0,1-.22.61A.45.45,0,0,1,34.08,345.55Z"/><path class="cls-10" d="M15.48,359.94H42.22a12.74,12.74,0,0,0,.3-2.61H15.31A10,10,0,0,0,15.48,359.94Z"/><path class="cls-11" d="M39.62,330.21a10.86,10.86,0,0,1-.36,7.22l-17.35-.32a17.36,17.36,0,0,1-.33-7Z"/><path class="cls-12" d="M43.23,85.5A51.4,51.4,0,0,0,38.81,91c-.38.53-.73,1-1.08,1.56-.73,1.08-1.4,2.12-2,3.07l-.39-2.06a66.39,66.39,0,0,1,6.79-9,.77.77,0,0,1,1-.06.63.63,0,0,1,.07.94Z"/><path class="cls-12" d="M70.2,68.53A21.75,21.75,0,0,1,61,66.4,26.89,26.89,0,0,1,54.23,62,.71.71,0,0,1,54,61a.62.62,0,0,1,.89-.21.85.85,0,0,1,.17.16c.09.1,10.05,9.42,21.43,5a.63.63,0,0,1,.82.41.69.69,0,0,1-.38.87h0A18.32,18.32,0,0,1,70.2,68.53Z"/><path class="cls-12" d="M37.53,92.58a.7.7,0,0,1-.76-.63.68.68,0,0,1,.61-.7,44,44,0,0,1,5.73-.71.73.73,0,0,1,.83.57.67.67,0,0,1-.6.77H43.2a44.34,44.34,0,0,0-5.51.68Z"/><path class="cls-4" d="M49.35,28s-4.14-1.68-5.16,3.19,4.1,10,8.2,8.32C52.39,39.52,51.43,30.07,49.35,28Z"/><path class="cls-13" d="M51.32,37.74a.54.54,0,0,1-.52-.45,9,9,0,0,0-3.41-5.55.54.54,0,0,1-.15-.75.55.55,0,0,1,.75-.15h0a10,10,0,0,1,3.88,6.22.56.56,0,0,1-.44.63Z"/><path class="cls-13" d="M47.16,35.06a.54.54,0,0,1-.5-.58.56.56,0,0,1,.26-.42,6.12,6.12,0,0,1,3.25-.68.54.54,0,0,1-.2,1.06,4.91,4.91,0,0,0-2.55.58A.46.46,0,0,1,47.16,35.06Z"/><path class="cls-4" d="M78.55,28s4.12-1.68,5.12,3.19-4.1,10-8.2,8.32C75.51,39.52,76.47,30.07,78.55,28Z"/><path class="cls-13" d="M76.58,37.74a.54.54,0,0,0,.52-.45,9,9,0,0,1,3.41-5.55.53.53,0,0,0,.15-.75.55.55,0,0,0-.75-.15h0A10,10,0,0,0,76,37.06a.56.56,0,0,0,.44.63Z"/><path class="cls-13" d="M80.74,35.06a.52.52,0,0,0,.47-.29A.54.54,0,0,0,81,34h0a6.1,6.1,0,0,0-3.25-.68.55.55,0,0,0-.46.61.53.53,0,0,0,.61.46h.05a4.91,4.91,0,0,1,2.55.58A.58.58,0,0,0,80.74,35.06Z"/><path class="cls-4" d="M73.67,57.36a14,14,0,0,1-17.9,0L56,55l1-12.06H72.21l.72,7Z"/><path class="cls-14" d="M72.93,49.88C71.2,52,66.32,56.36,56,55l1-12.06h15.2Z"/><path class="cls-4" d="M79.18,29c-.18,1.24-.41,2.56-.7,3.9-.36,1.7-.81,3.44-1.35,5.15C74.59,46.08,70,53.48,62.75,52c-6-1.22-9.69-7.47-11.89-14.08-.57-1.7-1-3.43-1.44-5.1-.25-1.08-.46-2.08-.65-3.08-.46-2.45-.75-4.63-.92-6.25A5.23,5.23,0,0,1,50,18.65c12.13-8.58,28.36-2.93,29.47,2A28.51,28.51,0,0,1,79.18,29Z"/><path class="cls-15" d="M68,26.07s0-.77,1.92-.87,5,.82,5.11,1.45Z"/><path class="cls-15" d="M61.33,26.11s-.28-.55-2.25-.68-4.64,1-4.78,1.43Z"/><path class="cls-15" d="M80.24,19.44l-3.58.84.89-2A22.94,22.94,0,0,0,64.27,15c-8.14.45-12.73,3.35-12.73,3.35l1,1.91-5.29-1.87c-.5-3.19,1.46-9.29,8.48-12.56,8.54-4,23.43-1.56,24.47,12.07A10.5,10.5,0,0,1,80.24,19.44Z"/><path class="cls-13" d="M57.74,34.15c0,.85-1.33,1.56-3,1.58s-3-.65-3-1.5,1.33-1.57,3-1.59S57.73,33.29,57.74,34.15Z"/><path class="cls-13" d="M76.67,34.15c0,.85-1.33,1.56-3,1.58s-3-.65-3-1.5,1.33-1.57,3-1.59S76.67,33.29,76.67,34.15Z"/><path class="cls-3" d="M59.4,41.11s6.51,1,10.69,0c0,0-1.31,4.36-5.48,4.36C61.07,45.47,59.4,41.11,59.4,41.11Z"/><path class="cls-14" d="M59.55,30.74c0,.84-.35,1.53-.81,1.54s-.86-.67-.88-1.51.35-1.54.82-1.55S59.54,29.89,59.55,30.74Z"/><path class="cls-14" d="M69.57,30.74c0,.84.35,1.53.82,1.54s.85-.67.87-1.51-.35-1.54-.82-1.55S69.58,29.89,69.57,30.74Z"/><path class="cls-13" d="M65.16,38.2A6.3,6.3,0,0,1,63.67,38a.48.48,0,1,1,.22-.94h0a4.68,4.68,0,0,0,1.62.16c0-.8-.58-4.45-1.1-7.69a.47.47,0,0,1,.37-.55h0a.49.49,0,0,1,.56.4c.28,1.73,1.19,7.43,1.1,8.09a.71.71,0,0,1-.33.54A1.71,1.71,0,0,1,65.16,38.2Z"/><path class="cls-16" d="M100.47,158.12a79.62,79.62,0,0,1-33.22,6.81c-3.09,0-6.18-.15-9.25-.44a115.89,115.89,0,0,1-19.79-3.62c0-2.41.12-4.83.19-7.25a113.76,113.76,0,0,0,19.7,3.63c11.6,1.06,27.26.52,42.15-6.41C100.4,153.29,100.4,155.71,100.47,158.12Z"/><path class="cls-4" d="M131.43,120.93c.55-3.32-2.63-8.57-4.42-12.71-1.6-3.76-3.41-7.4-5.32-10.92l-.5-.92c-2.1-3.81-4.29-7.5-6.57-11.13s-4.52-7.18-6.79-10.71a8.55,8.55,0,0,0-6.67-3.82c-3,3.9-3,13.22-2.55,19.33,2.61,4.13,15.68,32.45,15.74,32.67s-12.82,28.17-13.69,29.33l-.19,12.36c2.67-.78,1.78-.78,5.7-4.69C111.39,154.5,121.34,142.21,131.43,120.93Z"/><path class="cls-3" d="M105.09,108.39l-8-13.83s-2.74-5.67-3.85-8.88c-2.35-6.78-1.88-9-.24-15.69.27-1.06,2.26-6.1,3.29-6.32,9.19,4.6,24.58,26,26.13,30.24C122.49,93.91,116.86,104.68,105.09,108.39Z"/><path class="cls-13" d="M121.62,121.29a.58.58,0,0,1-.6.54,26.74,26.74,0,0,0-6.81,1.31c.06-.15.11-.3.16-.46s-.13-.45-.2-.68a26.48,26.48,0,0,1,6.85-1.27A.58.58,0,0,1,121.62,121.29Z"/><path class="cls-13" d="M115.82,122.67a.83.83,0,0,1-.28-.08.52.52,0,0,1-.19-.75h0a25.53,25.53,0,0,1,3.75-3.67.61.61,0,0,1,.82,0l0,0a.51.51,0,0,1,0,.75l0,0a26.64,26.64,0,0,0-3.53,3.43A.6.6,0,0,1,115.82,122.67Z"/><path class="cls-4" d="M97.43,160.14s-5.63.48-6.29,2.24,7.14,1.53,7.14,1.53-3.84.64-4.12,1.53c-.63,2,4.89,1.64,7.39,1s1.59-2.75.53-2.8c0,0,1.24-2.48-.37-4,0,0,1.67-1.67-.3-3.85,0,0,1.74-3.16-.75-3.78,0,0,.12-4.16-1.49-4.09v3.92a50.17,50.17,0,0,0-8.22.65c-2,.56-1.72,3.48,6.15,3.28,0,0-6.57.4-8,2.19S93.2,160.2,97.43,160.14Z"/><path class="cls-4" d="M20.45,114c.86-2,1.88-4.16,3-6.31.81-1.62,1.62-3.23,2.41-4.75C28.05,98.59,30.43,94.13,33,90c.42-6.1.48-15.43-2.56-19.33a8.57,8.57,0,0,0-6.67,3.82C21.54,78,19.26,81.58,17,85.21s-4.44,7.32-6.57,11.13l-.51.92c-1.87,3.49-3.7,7.16-5.32,10.92A93.6,93.6,0,0,0,.24,120.93h0a7.31,7.31,0,0,0,.13,4.17l.06.17v.12l.08.2.17.39.31.69c.22.46.43.87.64,1.32.43.87.86,1.68,1.31,2.49q1.41,2.43,2.82,4.72c2,3.06,4,6,6.25,8.82,1.09,1.42,2.23,2.81,3.38,4.18s2.32,2.71,3.53,4q3.6,4,7.45,7.65a6.09,6.09,0,0,0,8.16.34,5.09,5.09,0,0,0,.62-7.31h0q-3.09-3.85-5.88-7.84c-.93-1.33-1.82-2.68-2.69-4s-1.71-2.73-2.51-4.11c-1.55-2.76-3.06-5.53-4.37-8.38-.64-1.41-1.25-2.82-1.8-4.22-.16-.39-.3-.79-.44-1.18l-.17-.46c.08-.23.14-.45.21-.68C18.34,119.32,19.33,116.65,20.45,114Z"/><path class="cls-3" d="M26.53,108.39l8-13.83s3.61-5.52,3.85-8.88a47.37,47.37,0,0,0,.13-8.58c-.33-2.91-1.1-3.57-1.53-6.42a23.67,23.67,0,0,1,.06-7.4A81.69,81.69,0,0,0,9.18,93.91S14.81,104.68,26.53,108.39Z"/><path class="cls-13" d="M10.05,121.29a.58.58,0,0,0,.6.54,26.66,26.66,0,0,1,6.81,1.31l-.17-.46c.08-.23.14-.45.21-.68a26.55,26.55,0,0,0-6.86-1.27A.58.58,0,0,0,10.05,121.29Z"/><path class="cls-13" d="M15.86,122.67a.57.57,0,0,0,.56-.59.56.56,0,0,0-.1-.28,27.2,27.2,0,0,0-3.76-3.67.63.63,0,0,0-.83,0,.53.53,0,0,0,0,.78.27.27,0,0,0,.08.07,25.48,25.48,0,0,1,3.53,3.43A.6.6,0,0,0,15.86,122.67Z"/><path class="cls-4" d="M38.73,156.21l-3.82,8.12c-4.15.83-9.12-5.23-9.12-5.23a9.74,9.74,0,0,1,5.91-7.74l5.81,1.85a2.05,2.05,0,0,1,1.4,2.64,2.59,2.59,0,0,1-.14.29Z"/><path class="cls-17" d="M25.94,159.6s2-6.64,6.08-9.17a4.26,4.26,0,0,1,4.25,2.19s-5.47,8-6.24,10.3C30,162.92,26.82,162.34,25.94,159.6Z"/><path class="cls-17" d="M32.25,154.2a3.41,3.41,0,0,1,.91,5,4,4,0,0,1-5.34.84,3.4,3.4,0,0,1-1.11-4.67A4.22,4.22,0,0,1,32.25,154.2Z"/><path class="cls-5" d="M31.58,155.15a2.5,2.5,0,0,1,.69,3.64,3,3,0,0,1-3.92.64,2.5,2.5,0,0,1-.82-3.45A3.09,3.09,0,0,1,31.58,155.15Z"/><path class="cls-4" d="M37.53,161.23s5.63.47,6.3,2.24S36.68,165,36.68,165s3.85.64,4.12,1.53c.64,2-4.89,1.64-7.39,1s-1.59-2.75-.53-2.8c0,0-1.23-2.48.37-4,0,0-1.68-1.67.3-3.85,0,0-1.74-3.16.75-3.78,0,0,.63-3.61,2.25-3.54l-.08,3.49a41.66,41.66,0,0,1,7.51.56c2,.56,1.72,3.49-6.15,3.29,0,0,6.52.39,8,2.19S41.74,161.29,37.53,161.23Z"/><path class="cls-18" d="M23.12,113.85l9.39-14.47L12.9,86.79,3.9,100A33.12,33.12,0,0,0,23.12,113.85Z"/><path class="cls-18" d="M106.41,111.64,97,97.17l19.9-12.79,8.16,14.17S120,107.85,106.41,111.64Z"/><path class="cls-19" d="M64.82,59.79h.86c2,14.94,3.6,30.8,4.69,47.51,1.14,17.67,1.56,34.47,1.47,50.28l-1.25.06Q67.69,108.73,64.82,59.79Z"/><ellipse class="cls-19" cx="71.64" cy="81.07" rx="1.88" ry="1.74"/><ellipse class="cls-19" cx="73.04" cy="102.06" rx="1.88" ry="1.74"/><ellipse class="cls-19" cx="74.7" cy="125.76" rx="1.88" ry="1.74"/><ellipse class="cls-19" cx="75.53" cy="143.47" rx="1.88" ry="1.74"/><polyline class="cls-19" points="46.05 86.02 61.54 84.38 61.54 98.37 54.94 103.26 47.81 101.19"/><polyline class="cls-19" points="91.87 87.5 79.5 85.97 79.5 99 84.78 103.54 90.46 101.62"/><path class="cls-12" d="M95.15,94.1a42.52,42.52,0,0,0-5.51-.68A.71.71,0,0,1,89,92.7a.7.7,0,0,1,.76-.63h0a44,44,0,0,1,5.73.7.68.68,0,0,1,.56.8A.75.75,0,0,1,95.15,94.1Z"/><path class="cls-12" d="M97,94.37c0,.87-.06,1.66-.09,2.49-.56-.87-1.17-1.81-1.81-2.77-.35-.52-.72-1-1.09-1.56A51.67,51.67,0,0,0,89.62,87a.64.64,0,0,1,.06-1h0a.77.77,0,0,1,1,.06h0A62.48,62.48,0,0,1,97,94.37Z"/><path class="cls-14" d="M81.43,57c-1.74,1.84-.89,5.43.06,7.35,1.09,2.19,3.69,5,7.11,4.54,2.94-.41,5.79-3.15,5.63-6.06-.15-3.17-3.75-4.81-5.4-5.56C87.56,56.64,83.51,54.74,81.43,57Z"/><path class="cls-3" d="M78.71,59.21c-.11-.52,4.56-3.48,9.24-2,5.84,1.82,8.1,9.4,7.82,9.6s-2.08-4.78-6.93-7C83.75,57.47,78.82,59.74,78.71,59.21Z"/><path class="cls-15" d="M64.89,15s-11.16,0-13.49,9.2-3.17,3.27-3.17,3.27l-.68-5.6,3.54-7.6,26.18-.88,2.22,7.31-1.34,8.57S78.69,15.68,64.89,15Z"/><path class="cls-20" d="M59.4,41.11l2.39-.81a9.32,9.32,0,0,1,6.19.05l2.11.76s-4,.55-4.92.55C63.68,41.66,59.4,41.11,59.4,41.11Z"/><path class="cls-15" d="M80.24,19.44c-.12,4.92-1.7,14.52-2.45,14.14s-.52-6.48-.52-8.31l-.59-5,.89-2A22.93,22.93,0,0,0,64.3,15c-6.11.34-7.62,3.75-8,5.43a4,4,0,0,1-1.06,1.89l-2.86,2.9c-.17,1.32,0,5.45,0,6.72a3.17,3.17,0,0,1-.06.75c-.41,2.25-3.72,14-4.09,13.84s1.64-8.54,1.28-15c-.24-4.36-1.75-8.4-1.79-9.09a11.42,11.42,0,0,1-.5-4.07c.21-3.46,1.94-8.28,9-11.55,8.55-4,22.55-1.48,24,11.06A13.57,13.57,0,0,1,80.24,19.44Z"/><path class="cls-21" d="M51.88,40.67S41.32,58,44.06,66.82,54.74,80.53,54.74,80.53s-.5-1.11-1.15-2.84c-1.4-3.71-3.52-10.28-3-14.85.76-6.78,5.42-8,5.42-8l.55-6.46Z"/><rect class="cls-22" x="63.23" y="157.89" width="12.24" height="6.71"/></g></g></g></g></svg>