<svg xmlns="http://www.w3.org/2000/svg" xmlns:xlink="http://www.w3.org/1999/xlink" viewBox="0 0 205.79 186.16"><defs><style>.cls-1,.cls-21,.cls-26,.cls-28,.cls-43{fill:none;}.cls-2{isolation:isolate;}.cls-3{fill:#e0e9ef;}.cls-4{fill:#403d35;}.cls-5{fill:#d6e3dd;}.cls-19,.cls-6{fill:#e71d36;}.cls-7{fill:#cc1534;}.cls-8{fill:#111;}.cls-9{fill:#44423f;}.cls-10{clip-path:url(#clip-path);}.cls-11,.cls-16{opacity:0.47;}.cls-12,.cls-16,.cls-24,.cls-25,.cls-38,.cls-39,.cls-40{fill:#fff;}.cls-13{clip-path:url(#clip-path-2);}.cls-14{opacity:0.44;}.cls-15{clip-path:url(#clip-path-3);}.cls-17{fill:#7a1b2d;}.cls-18{fill:#f28781;}.cls-19{mix-blend-mode:multiply;}.cls-20{clip-path:url(#clip-path-4);}.cls-21{stroke:#4c4a47;}.cls-21,.cls-26,.cls-28,.cls-43{stroke-miterlimit:10;}.cls-22{fill:#c4c4b3;}.cls-23{fill:#2a2b28;}.cls-24{opacity:0.62;}.cls-25{opacity:0.57;}.cls-26{stroke:#cc1534;stroke-linecap:round;stroke-width:0.5px;}.cls-27{fill:#595958;}.cls-28{stroke:#fff;}.cls-29{fill:#fdb833;}.cls-30{fill:#3d4039;}.cls-31{fill:#1c1c1c;}.cls-32{fill:#7a7974;}.cls-33{fill:#050505;}.cls-34{fill:#db982c;}.cls-35{fill:#d68607;}.cls-36{fill:#f4c44e;}.cls-37{clip-path:url(#clip-path-5);}.cls-38{opacity:0.54;}.cls-39{opacity:0.56;}.cls-40{opacity:0.49;}.cls-41{fill:#434443;}.cls-42{clip-path:url(#clip-path-6);}.cls-43{stroke:#4b4c4b;}.cls-44{fill:#2a2b2a;}.cls-45{fill:#bfc4c1;}.cls-46{fill:#2e302a;}</style><clipPath id="clip-path"><path class="cls-1" d="M26.51,56.87a1.2,1.2,0,0,1-.85-2.07c4.44-4.2,10-8.93,13.75-10.32a172,172,0,0,1,29.44-2.89c8,0,14.57.8,19.69,2.39a1.21,1.21,0,0,1,.84,1.13,52.91,52.91,0,0,1-.76,10.73,1.19,1.19,0,0,1-1.17.9c-3.45,0-15-.06-27.51-.06C42.57,56.68,32.45,56.76,26.51,56.87Z"/></clipPath><clipPath id="clip-path-2"><path class="cls-1" d="M95,48.88S94,43,96.19,42.42c0,0,1.77-.34,2.07.09a47.59,47.59,0,0,1,7.21,16.31s-4.72,3-6.79,1.4S95,48.88,95,48.88Z"/></clipPath><clipPath id="clip-path-3"><path class="cls-1" d="M100.75,43.77a21.09,21.09,0,0,1,9.38,13.31s-3.64,1.38-4,1.05S103,48.25,100.47,44.6C100.47,44.6,99.81,43.61,100.75,43.77Z"/></clipPath><clipPath id="clip-path-4"><path class="cls-1" d="M75,103.59c-19.72.51-54.43,1.09-69.29-.56l-.15-.3a3.09,3.09,0,0,1,.17-2.27c.54-1.09,1-2.61,1.41-2.86l.08,0c.41-.09,1.24-14.42,8.2-16,0,0,13.68-5.43,15.53-4.58s18.88.11,18.88.11,16.12,2.21,19.87,8.61c0,0,4.16,8,4.42,12.18Z"/></clipPath><clipPath id="clip-path-5"><path class="cls-1" d="M149.21,98.44c-37,.14-53.5-.12-60.79-.4a2.3,2.3,0,0,1-1.91-3.42c4.68-8.42,9.7-16.54,12-18.93A2.35,2.35,0,0,1,100,75c2.35-.19,5.34-.28,9.1-.3,6.9,0,15.74.25,25.1.53,7.51.23,15.27.46,23.28.6a2.25,2.25,0,0,1,1.54.63c2.9,2.75,10.84,10.68,15,18.46a2.3,2.3,0,0,1-2,3.39C166.78,98.36,158.56,98.41,149.21,98.44Z"/></clipPath><clipPath id="clip-path-6"><path class="cls-1" d="M186.36,176.59a1.31,1.31,0,0,1,0,.15,18.62,18.62,0,0,1-5.28,1.75,22.36,22.36,0,0,1-2.82.3s-40.81,9.36-97.07,0a13.69,13.69,0,0,1-3.23-.31,16,16,0,0,1-2.47-.68,19.55,19.55,0,0,1,2-7.77s.64-11.41,6.87-18.49A15.65,15.65,0,0,1,92,146.7s22-6.64,23.45-6.73,25.83-5.94,57.81,7.22a14.63,14.63,0,0,1,4.44,3c3.33,3.11,7.27,9.07,7,19.81C184.68,170,186.59,174.87,186.36,176.59Z"/></clipPath></defs><g class="cls-2"><g id="Layer_2" data-name="Layer 2"><g id="Objects"><path class="cls-3" d="M79,50.21s31.12,5.19,58.42-3.86S129.89,0,129.89,0,184,40.05,157.11,51.87C115.75,70.06,83.53,66,83.53,66Z"/><path class="cls-3" d="M101.73,64.38s31.12,5.2,58.42-3.86,20.17-50.7,20.17-50.7,24.84,43.2-.49,56.23c-40.19,20.66-73.58,14.13-73.58,14.13Z"/><ellipse class="cls-4" cx="51.06" cy="97.56" rx="8.48" ry="11.64"/><ellipse class="cls-5" cx="54.94" cy="97.52" rx="4.35" ry="9.35"/><path class="cls-4" d="M120.26,93.76c0,9.6-3,17.39-6.62,17.39S107,103.36,107,93.76s3-17.38,6.61-17.38S120.26,84.16,120.26,93.76Z"/><path class="cls-5" d="M119,94.13c0,6.43-1.17,11.63-2.6,11.63s-2.61-5.2-2.61-11.63S115,82.5,116.42,82.5,119,87.71,119,94.13Z"/><path class="cls-4" d="M118.86,94.52c0,4.3-.79,7.79-1.75,7.79s-1.75-3.49-1.75-7.79.78-7.8,1.75-7.8S118.86,90.21,118.86,94.52Z"/><ellipse class="cls-4" cx="117.24" cy="95.06" rx="0.95" ry="4.26"/><path class="cls-4" d="M118.82,93.29c0,2.84-.82,5.14-1.84,5.14s-1.84-2.3-1.84-5.14.83-5.15,1.84-5.15S118.82,90.45,118.82,93.29Z"/><ellipse class="cls-4" cx="12.41" cy="97.4" rx="12.07" ry="16.56"/><path class="cls-5" d="M22.56,98.09c0,7.75-3.25,14-7.26,14S8,105.84,8,98.09s3.25-14,7.26-14S22.56,90.34,22.56,98.09Z"/><ellipse class="cls-4" cx="16.62" cy="98.92" rx="4.22" ry="9.5"/><ellipse class="cls-4" cx="90.79" cy="97.18" rx="11" ry="16.56"/><path class="cls-5" d="M100.11,97.09c0,6.51-2.39,11.78-5.33,11.78s-5.34-5.27-5.34-11.78,2.39-11.77,5.34-11.77S100.11,90.59,100.11,97.09Z"/><path class="cls-4" d="M99.42,97.07c0,5.17-1.9,9.37-4.24,9.37s-4.25-4.2-4.25-9.37,1.9-9.37,4.25-9.37S99.42,91.89,99.42,97.07Z"/><path class="cls-5" d="M97.82,97.83l2,.62,0-3.15L98.14,95l1.39-1.81-.61-2.9L97.5,92.44a4.67,4.67,0,0,0-1.2-2.08L96,86.1l-2.54.05.76,4.32a5.23,5.23,0,0,0-1.19,2.34l-2.31-2.44-.61,3.25,2.54,2.17v0c0,.19,0,.37,0,.55L90,96.16v2.7l3-.2,0,.16-2.81,2.43,1,2.59,2.63-3.11a2.78,2.78,0,0,0,.37.45l-.82,5.63,3.08.12-.09-5.74a3.44,3.44,0,0,0,.51-.68L99,103l.72-3.2-2-1.45Z"/><path class="cls-5" d="M118,96.82l.83.59.09-3.69-.8.66.73-3.14-.3-3.5-.71,2.56c-.15-1.12-.51-6.87-.51-6.87L116,83.5s-.22,6-.36,7.25l-1.15-3-.3,3.93s1.65,3.38,1.66,3.6l-1.71-.52v3.25l1.47-.24c.34-.43-1.15,3.17-1.15,3.17l.76,2.77,1.36-5c.06.2-.53,5.84-.53,5.84l1.29-.31.14-5.29a29.62,29.62,0,0,1,.55,3.29l.62-3.33S118,97,118,96.82Z"/><path class="cls-6" d="M120.22,95.65s.89-17.13-1.51-15.39c0,0-3,2.79-2.81,10.6,0,0,.16,9.35-3.73,10.1l-10.89,1.09a24,24,0,0,0-1.71-14.88s-.28-13.7-4.25-8.15a7.37,7.37,0,0,0-.69,1.56,45.38,45.38,0,0,0-3.21,18.28l0,.07c0,.18-.17.64-.37,1.22v0a8.22,8.22,0,0,1-1.7,3s-5.75.21-14.35.43c-19.72.51-54.43,1.09-69.29-.56C4.26,102.88,3,102.7,2,102.5a16.34,16.34,0,0,1-1.75-4A6.31,6.31,0,0,1,0,96.32S.07,81.25,3.88,75.13c0,0-.34-8.95,8-11.43,0,0,1.86-1.77,4.62-4.31,6.79-6.25,19-17.17,22-17.88A132.68,132.68,0,0,1,91.31,39s8.83-.78,16,8.61a34.28,34.28,0,0,1,3,5,24.9,24.9,0,0,1,2.49,7.76l.06.06c.45.49,3.58,3.9,4.14,5.19.64,1.48,2.21,9,2.92,12.3C120,77.94,124,90.6,120.22,95.65Z"/><path class="cls-7" d="M112.76,60.42a63.09,63.09,0,0,1-16.58,5h0c-.2.1-6.65.74-10.43-1.9a.1.1,0,0,1,0-.18c.75-.46,4.1-2.63,3.74-4.57a.12.12,0,0,0-.11-.09l-72.6.71a.11.11,0,0,1-.08-.19c6.82-6.28,18.8-17,21.82-17.69A132.58,132.58,0,0,1,91.29,39s8.91-.78,16,8.61c0,0,4.65,6.07,5.5,12.67A.1.1,0,0,1,112.76,60.42Z"/><path class="cls-8" d="M16.3,59.39l-2,1.83-1.33-.45L13.26,59c2.62-4.33,6.51-2.87,6.51-2.87Z"/><path d="M16.21,59.46l-2,1.76s-1.34-.1-1.33-.45A3.75,3.75,0,0,1,13.27,59C13.86,58.46,16.21,59.46,16.21,59.46Z"/><path class="cls-9" d="M101.91,43s-8.7-6.43-8.53.69c0,0,1.53,18.51,4.56,21.49,0,0,12.89-2.52,14.78-4.62C113.4,59.78,107.46,46.15,101.91,43Z"/><path class="cls-5" d="M95,48.88S94,43,96.19,42.42c0,0,1.77-.34,2.07.09a47.59,47.59,0,0,1,7.21,16.31s-4.72,3-6.79,1.4S95,48.88,95,48.88Z"/><path class="cls-5" d="M100.75,43.77a21.09,21.09,0,0,1,9.38,13.31s-3.64,1.38-4,1.05S103,48.25,100.47,44.6C100.47,44.6,99.81,43.61,100.75,43.77Z"/><path class="cls-9" d="M39,42.54c2.18-.43,33.36-6.38,51.42,0a1.38,1.38,0,0,1,.92,1.28c.08,3.61.14,16.08-2.84,14.94,0,0-52.06-.25-66.44.24A1.41,1.41,0,0,1,21,56.58c4.13-4.17,12.35-12,17.76-14A1,1,0,0,1,39,42.54Z"/><path class="cls-5" d="M26.51,56.87a1.2,1.2,0,0,1-.85-2.07c4.44-4.2,10-8.93,13.75-10.32a172,172,0,0,1,29.44-2.89c8,0,14.57.8,19.69,2.39a1.21,1.21,0,0,1,.84,1.13,52.91,52.91,0,0,1-.76,10.73,1.19,1.19,0,0,1-1.17.9c-3.45,0-15-.06-27.51-.06C42.57,56.68,32.45,56.76,26.51,56.87Z"/><g class="cls-10"><g class="cls-11"><rect class="cls-12" x="58.74" y="31.4" width="3.4" height="38.73" transform="translate(48.57 -27.26) rotate(41.32)"/><rect class="cls-12" x="66.03" y="33.61" width="8.84" height="38.73" transform="translate(52.52 -33.33) rotate(41.32)"/></g></g><g class="cls-13"><g class="cls-14"><rect class="cls-12" x="94.51" y="41.1" width="3.3" height="20.08" transform="translate(26.06 -32.22) rotate(21.93)"/><rect class="cls-12" x="99.73" y="41.15" width="1.84" height="20.08" transform="translate(26.41 -33.89) rotate(21.93)"/></g></g><g class="cls-15"><rect class="cls-16" x="103.69" y="44.34" width="1.57" height="11.3" transform="translate(23.49 -32.81) rotate(20.06)"/><rect class="cls-16" x="105.71" y="45.9" width="3.32" height="12.6" transform="translate(20.5 -29.69) rotate(17.38)"/></g><path class="cls-8" d="M96.3,61.38l.69,2s11.35,1.3,14.3-2.32c0,0,.77-8.22-11.48-5.46-1.35.3-.06,5.52-.06,5.52A7.83,7.83,0,0,1,96.3,61.38Z"/><path class="cls-8" d="M118,81.06s1.21-3.9,2.13,1.72.2,11.37-.11,11.37S120.22,88,118,81.06Z"/><path class="cls-8" d="M94,81.52s2.78.7,5.57,5.64c0,0,.46-9.62-2.29-9.62C97.28,77.54,95.12,77.4,94,81.52Z"/><path class="cls-7" d="M120.16,95.68s.85-16.37-1.44-15.42c0,0-1.22.85-2.41,5.18,0,0-.62-4.3,1.79-6.49a1.43,1.43,0,0,1,2.33.73C121.35,83.34,123,91.79,120.16,95.68Z"/><path class="cls-9" d="M75,103.59c-19.72.51-54.43,1.09-69.29-.56l-.15-.3a3.09,3.09,0,0,1,.17-2.27c.54-1.09,1-2.61,1.41-2.86l.08,0c.41-.09,1.24-14.42,8.2-16,0,0,13.68-5.43,15.53-4.58s18.88.11,18.88.11,16.12,2.21,19.87,8.61c0,0,4.16,8,4.42,12.18Z"/><path class="cls-4" d="M84.6,82.49s4.72,12.34,0,15.24c0,0-7.53,3.31-7.95-5.63C76.51,89,80.3,86.8,84.6,82.49Z"/><path class="cls-17" d="M84.73,82.33s5,11.88-.13,15.4c0,0-7.53,3.31-7.95-5.63C76.51,89,80.42,86.63,84.73,82.33Z"/><path class="cls-4" d="M84.73,82.33s4.92,11.84.2,14.74c0,0-7.23,3.72-7.64-5.22C77.14,88.74,80.48,87.74,84.73,82.33Z"/><path class="cls-7" d="M2,83C1.74,84.93.41,95.91,1,96.78c0,0,3.1,2.52,5-.33S5.47,86.39,2.21,83A.13.13,0,0,0,2,83Z"/><path class="cls-4" d="M2.14,85.19c-.35,3-1.1,9.83-.8,11.35a.61.61,0,0,0,.25.36c.68.48,3.2,2,4.84-.45s-.3-8.09-3.17-11.6A.64.64,0,0,0,2.14,85.19Z"/><path class="cls-18" d="M13,65.74s71.42-5.31,74-3.22c0,0,3.17-2.24,2.43-3.84l-72.83.63s-4.86,4.06-4.77,4.39S12.43,65.72,13,65.74Z"/><path class="cls-7" d="M115.89,90.86s.18,9.36-3.72,10.1l-10.89,1.09.51-4.22,10.55-1.26s1.57-.17,3.47-7.53a5.63,5.63,0,0,1,.33-1A17.29,17.29,0,0,0,115.89,90.86Z"/><path class="cls-19" d="M92.68,86.66s.9-12.37,5.79-9.92c1,.51,2.14,2.89,1.12,10.3,0,0-.48-10.06-2.82-9.3C96.77,77.74,95.4,77.4,92.68,86.66Z"/><g class="cls-20"><line class="cls-21" x1="0.69" y1="77.48" x2="86.37" y2="78.29"/><line class="cls-21" x1="0.69" y1="79.22" x2="86.37" y2="80.03"/><line class="cls-21" x1="0.69" y1="80.96" x2="86.37" y2="81.77"/><line class="cls-21" x1="0.69" y1="82.7" x2="86.37" y2="83.51"/><line class="cls-21" x1="0.69" y1="84.44" x2="86.37" y2="85.25"/><line class="cls-21" x1="0.69" y1="86.18" x2="86.37" y2="86.99"/><line class="cls-21" x1="0.69" y1="87.92" x2="86.37" y2="88.73"/><line class="cls-21" x1="0.69" y1="89.66" x2="86.37" y2="90.47"/><line class="cls-21" x1="0.69" y1="91.4" x2="86.37" y2="92.21"/><line class="cls-21" x1="0.69" y1="93.14" x2="86.37" y2="93.95"/><line class="cls-21" x1="0.69" y1="94.88" x2="86.37" y2="95.69"/><line class="cls-21" x1="0.69" y1="96.62" x2="86.37" y2="97.43"/><line class="cls-21" x1="0.69" y1="98.36" x2="86.37" y2="99.17"/></g><path class="cls-7" d="M75,103.59c-19.72.51-54.43,1.09-69.29-.56l-.15-.3a3.09,3.09,0,0,1,.17-2.27c.54-1.09,1-2.61,1.41-2.86l.08,0L16,100.13s44.37,1,45.53.66S74.09,97.9,74.09,97.9l.49,3.06Z"/><path class="cls-19" d="M91.42,98.86l0,.07L91,100.15v0a8.36,8.36,0,0,1-1.7,3s-5.75.21-14.35.43c-19.72.51-54.43,1.09-69.29-.56C4.26,102.88,3,102.7,2,102.5a16.34,16.34,0,0,1-1.75-4c2.2.9,14.88,5.67,34.1,4.16,0,0,41.06.25,45.7-2.2,1.59-.84,6.51-3.1,6.51-3.1s.85,1.85,1.44,2.1C88.79,99.76,91.42,98.86,91.42,98.86Z"/><path class="cls-22" d="M51.35,91.46H26.73a4,4,0,0,1-4-4h0a4,4,0,0,1,4-4H51.35a4,4,0,0,1,4,4h0A4,4,0,0,1,51.35,91.46Z"/><path class="cls-18" d="M117,65.64s-4.31,7.41-27.54,2a9.15,9.15,0,0,0-1-2.77s8.54,2.66,24.28-4.38l.17-.08C113.34,60.94,116.47,64.35,117,65.64Z"/><path class="cls-7" d="M3.88,75.13S2.44,81.42,12.38,83c0,0,14.35-5.85,17.11-5.85C29.49,77.11,10.17,72.92,3.88,75.13Z"/><path class="cls-23" d="M5.7,100.9c.54-1.09,1-2.61,1.41-2.87l.08,0c.41-.08,1.24-14.41,8.2-16,0,0,13.68-5.44,15.53-4.58s18.88.11,18.88.11,16.12,2.2,19.87,8.61c0,0,4.16,8,4.42,12.17l.88,5.26H76.2l-.8-5.42c-.3-4.47-4.38-12.3-4.59-12.69-4-6.88-20.15-9.16-20.83-9.25l-.12,0h-.12c-.07,0-6.89.3-12.28.3-4.93,0-5.87-.25-6-.29A2.76,2.76,0,0,0,30.34,76c-3.27,0-13.75,4.1-15.35,4.73-6.37,1.54-8,11.34-8.77,15.54-.06.32-.12.67-.17.91a6.64,6.64,0,0,0-1,1.93c-.17.41-.34.83-.52,1.18a3.15,3.15,0,0,0-.38,2.56l1.52.15A2.4,2.4,0,0,1,5.7,100.9Z"/><path class="cls-7" d="M63.49,80.76s14.9-.89,21.64-4.64c0,0-15.35-7-35.33,1Z"/><path class="cls-9" d="M17,70.22s15.69.68,16.93.27c0,0,5.47-5.22,13.08-.08,0,0,20.95-.17,22.81-.5,0,0-4.55,3.82-5.21,6.25,0,0-12.27-.37-14.81,1s-10.87,10-19.26.21c0,0-10-2.08-11.87-1.86C18.67,75.46,18.11,73.53,17,70.22Z"/><path class="cls-5" d="M18,73.51l13.39,1.84s7.4,11.59,17.66.11L66,73.76l1.09-1.23s-18.75,1.6-19.66,2.1c0,0-7.62,10.21-13.91.08l-16-2.91Z"/><ellipse class="cls-5" cx="40.09" cy="75.62" rx="4.53" ry="3.26"/><path class="cls-5" d="M18.78,77S8.29,74.8,6.08,75.79c0,0-1.76-.12-2.2-.66A13.17,13.17,0,0,1,6.69,67a10.52,10.52,0,0,1,5.14-3.28,32.54,32.54,0,0,0,3.42,4.91h0a3.37,3.37,0,0,0,2,1.33S19.89,76.23,18.78,77Z"/><path class="cls-5" d="M89.49,67.68S87.83,78.27,82,75.79c0,0-12.41.16-17.88.83a15,15,0,0,1,7.61-8.17,20.22,20.22,0,0,1,5.14-1.77s8.06-2.37,8.67-3.26c0,0,3.32.69,3.89,2.93A2.81,2.81,0,0,1,89.49,67.68Z"/><path class="cls-24" d="M15.25,68.61C15,68.62,9.32,69,6.69,67a10.52,10.52,0,0,1,5.14-3.28A32.54,32.54,0,0,0,15.25,68.61Z"/><path class="cls-25" d="M89.46,66.35l0,.08s-8.38,4.94-17.66,2a20.22,20.22,0,0,1,5.14-1.77s8.06-2.37,8.67-3.26C85.57,63.42,88.89,64.11,89.46,66.35Z"/><path class="cls-26" d="M107.87,62.87s6.45,12.84.82,34.69"/><path class="cls-19" d="M115.66,94.61c-.37,2.69-1.26,5.92-3.49,6.35l-10.89,1.09s.72-4.34.42-6l2.85-2.86s9.2,5,10.27,1.33C115,93.87,115.3,94,115.66,94.61Z"/><rect class="cls-27" x="70.33" y="154.09" width="28.57" height="32.06" rx="12" transform="translate(-0.61 0.31) rotate(-0.21)"/><rect class="cls-27" x="162.14" y="153.76" width="28.57" height="32.06" rx="12" transform="translate(-0.62 0.64) rotate(-0.21)"/><path class="cls-28" d="M84.75,115S88.66,102.9,97,101.61c0,0,25.92-4.28,34.56-3,0,0,21-.87,38.4,13.45,0,0,9.87,7.76,11,9.55,0,0,12.25,6.8,13.54,14.59,0,0,3.81,3.88,2.78,10.94,0,0,.44,5.32-.29,6.22a7.1,7.1,0,0,0,.79,2.47s-.41,2.53-6,2c0,0-21.31,5-28.9,3.43a38.91,38.91,0,0,1-22.86.5s.48-13.27-5.86-18.52c0,0-10.68-10.28-8.79,15.31,0,0-31.26-8.31-32.46-9.73,0,0,.22-19.44-8.3-17.51,0,0-3.61.33-2.3,11.94,0,0-2.37-.47-.38-15.88,0,0,1.81-3.48,1.8-5.85A16.61,16.61,0,0,1,84.75,115Z"/><path class="cls-29" d="M196.51,162.8s-2.79,15.3-18.28,16c0,0-40.81,9.36-97.07,0,0,0-17.55,1-17.64-23,0,0-3.05-15.91,2.87-30.93l0-.07s-.18-7,5.8-14.72c0,0,5.27-8.52,5.26-8.87,0,0,11.42-24.83,20.77-29a130.77,130.77,0,0,1,24.65-2.46s20.48-.16,32.34,2.25c.13,0,7.61,0,19.83,19.61,0,0,10.66,17.2,11.45,18.3,0,0,9.53,8.13,8.7,18.74a.49.49,0,0,1,0,.12,0,0,0,0,1,0,0C195.45,129.63,200.75,148.41,196.51,162.8Z"/><path class="cls-30" d="M65.49,151.15s-1.85-3.09-1.84.46c0,0-2,14.75,4.77,19.47,0,0,4.36,2.75,4.82-1.83a13.64,13.64,0,0,0-3.52-10.66S65.63,151.84,65.49,151.15Z"/><path class="cls-31" d="M77.41,103.59a6.65,6.65,0,0,1-1.23,1.64,16.11,16.11,0,0,1-8-2.76s-.3-2.73-.06-2.85,1-4.45,11-3.72C79.11,95.9,79.16,100.44,77.41,103.59Z"/><path class="cls-31" d="M188.92,99.24l-.07.06a16,16,0,0,1-7.92,2.75,12.22,12.22,0,0,1-1.8-2.18,32.51,32.51,0,0,1-3.27-6.75l.35,0c10.31-1.31,12.53,3.2,12.76,3.32S188.92,99.24,188.92,99.24Z"/><path class="cls-32" d="M189,96.4l-8.94.29-3.81-3.54s0-.05,0-.07C186.52,91.77,188.74,96.28,189,96.4Z"/><path class="cls-33" d="M188.85,99.3a16,16,0,0,1-7.92,2.75,12.22,12.22,0,0,1-1.8-2.18C180.62,99.92,187.68,100.09,188.85,99.3Z"/><path class="cls-32" d="M79.11,95.9A18.64,18.64,0,0,1,75.78,100c-1.73,1.43-7.68-.41-7.68-.41C68.33,99.5,69.14,95.17,79.11,95.9Z"/><path class="cls-33" d="M77.41,103.59a6.65,6.65,0,0,1-1.23,1.64,16.11,16.11,0,0,1-8-2.76s8.27,1.27,9,1A.21.21,0,0,1,77.41,103.59Z"/><path class="cls-34" d="M196.51,162.8s-1.75,9.6-10.18,13.94a19.42,19.42,0,0,1-8.1,2s-40.81,9.36-97.07,0a15.79,15.79,0,0,1-5.7-1c-5.13-1.87-11.88-7.14-11.94-22,0,0-3.05-15.91,2.87-30.93-.3.9-3.6,11.05-.74,16.93,0,0,14.38,9.48,18.71,9.77h.06s59.87,8.15,93.23-1.41c7.72-2.21,14-5.37,17.83-9.79,0,0,.43-8.88-.26-11.56C195.57,130.05,200.7,148.57,196.51,162.8Z"/><path class="cls-35" d="M67.51,133.23s-2.23,5.5-1.86,8.58c0,0-3.25-6.49.74-16.93A16.5,16.5,0,0,0,67.51,133.23Z"/><path class="cls-35" d="M193.56,133.44s2,4.16,1.92,6.95c0,0,.74-9.5-.1-10.86A33.85,33.85,0,0,1,193.56,133.44Z"/><path class="cls-30" d="M194.73,146.62s1.83-3.11,1.84.45c0,0,2.15,14.73-4.63,19.5,0,0-4.34,2.78-4.83-1.8a13.67,13.67,0,0,1,3.44-10.69S194.6,147.31,194.73,146.62Z"/><path class="cls-35" d="M192.81,163.86s-4.34,2.78-4.83-1.8a13.09,13.09,0,0,1,.22-4.39,13.82,13.82,0,0,0-1.09,7.1c.49,4.58,4.83,1.8,4.83,1.8,2.25-1.58,3.51-4.25,4.2-7.12A10,10,0,0,1,192.81,163.86Z"/><path class="cls-5" d="M194.59,161.12c-1.58,2-4,2.64-5.4,1.51s-1.26-3.63.32-5.6,4-2.64,5.4-1.51S196.17,159.16,194.59,161.12Z"/><path class="cls-35" d="M73,165.08a11.1,11.1,0,0,1-.07,1.19c-.46,4.58-4.82,1.83-4.82,1.83-2.9-2-4.19-5.84-4.73-9.57.23,4.5,1.32,10,5,12.55,0,0,4.36,2.75,4.82-1.83A13.25,13.25,0,0,0,73,165.08Z"/><path class="cls-5" d="M66.21,165.26c1.6,2,3.91,2.7,5.18,1.67s1-3.45-.61-5.4-3.91-2.7-5.17-1.67S64.62,163.31,66.21,165.26Z"/><path class="cls-5" d="M94.13,137.92s-22-6.09-26.62-4.69c0,0-2-5.52-1.1-8.42.6-1.83.24-4,1.51-7.36a28.44,28.44,0,0,1,4.29-7.36,34,34,0,0,1,3.64-.15s3.35,8,13.21,14.59C89.06,124.53,94.12,136.57,94.13,137.92Z"/><path class="cls-5" d="M193.56,133.44c-4.59-1.36-24.57,5-24.57,5,0-1.35,4.85-13.5,4.85-13.5,9.82-6.62,11-14.47,11-14.47a12.7,12.7,0,0,1,1.82-.24,19.72,19.72,0,0,1,6.16,8,65,65,0,0,1,2.65,8.29C196.45,129.44,193.56,133.44,193.56,133.44Z"/><path class="cls-30" d="M99,73.47c11.06-1.07,35,.39,60,.77,0,0,15.82,14.17,18.71,25.66,0,0-94.62.82-95.46-.84C82.24,99.06,95.66,73.79,99,73.47Z"/><path class="cls-5" d="M149.21,98.44c-37,.14-53.5-.12-60.79-.4a2.3,2.3,0,0,1-1.91-3.42c4.68-8.42,9.7-16.54,12-18.93A2.35,2.35,0,0,1,100,75c2.35-.19,5.34-.28,9.1-.3,6.9,0,15.74.25,25.1.53,7.51.23,15.27.46,23.28.6a2.25,2.25,0,0,1,1.54.63c2.9,2.75,10.84,10.68,15,18.46a2.3,2.3,0,0,1-2,3.39C166.78,98.36,158.56,98.41,149.21,98.44Z"/><path class="cls-36" d="M82.24,99.06s-4.88,6.9-4.4,8.48c0,0,57.68-7.48,78.42.35,0,0,26.88.21,29.34,2.58s-6-10.57-7.9-10.57S83.52,102,82.24,99.06Z"/><g class="cls-37"><rect class="cls-25" x="110.15" y="42.83" width="18.14" height="84.52" transform="translate(90.76 -58.59) rotate(43.28)"/><rect class="cls-38" x="129.58" y="56.66" width="8.67" height="84.52" transform="translate(104.24 -64.9) rotate(43.28)"/></g><path class="cls-39" d="M89.06,124.53c-14.55,1.25-20.79-6.62-21.14-7.08a28.44,28.44,0,0,1,4.29-7.36,34,34,0,0,1,3.64-.15S79.2,118,89.06,124.53Z"/><path class="cls-40" d="M192.84,118.27l-.12.11c-7.65,6.71-18.88,6.56-18.88,6.56,9.82-6.62,11-14.47,11-14.47a12.7,12.7,0,0,1,1.82-.24A19.72,19.72,0,0,1,192.84,118.27Z"/><path class="cls-41" d="M186.36,176.59a1.31,1.31,0,0,1,0,.15,18.62,18.62,0,0,1-5.28,1.75,22.36,22.36,0,0,1-2.82.3s-40.81,9.36-97.07,0a13.69,13.69,0,0,1-3.23-.31,16,16,0,0,1-2.47-.68,19.55,19.55,0,0,1,2-7.77s.64-11.41,6.87-18.49A15.65,15.65,0,0,1,92,146.7s22-6.64,23.45-6.73,25.83-5.94,57.81,7.22a14.63,14.63,0,0,1,4.44,3c3.33,3.11,7.27,9.07,7,19.81C184.68,170,186.59,174.87,186.36,176.59Z"/><g class="cls-42"><line class="cls-43" x1="68.07" y1="142.84" x2="203.7" y2="142.35"/><line class="cls-43" x1="68.33" y1="146.8" x2="203.96" y2="146.31"/><line class="cls-43" x1="68.59" y1="150.76" x2="204.22" y2="150.27"/><line class="cls-43" x1="68.85" y1="154.72" x2="204.48" y2="154.23"/><line class="cls-43" x1="69.12" y1="158.68" x2="204.74" y2="158.19"/><line class="cls-43" x1="69.38" y1="162.64" x2="205.01" y2="162.14"/><line class="cls-43" x1="69.64" y1="166.6" x2="205.27" y2="166.1"/><line class="cls-43" x1="69.9" y1="170.56" x2="205.53" y2="170.06"/><line class="cls-43" x1="70.16" y1="174.51" x2="205.79" y2="174.02"/><path class="cls-44" d="M184.68,170c.24-10.74-3.7-16.7-7-19.81a17.18,17.18,0,0,0-3.17-2.37h0a9.71,9.71,0,0,0-1.27-.62c-32-13.16-56.31-7.31-57.81-7.22l-.21,0-.1,0-.24,0-.14,0-.31.08-.16,0-.41.1-.17,0-.5.13-.15,0-.62.16-.12,0-.75.2-.07,0c-6.72,1.87-19.5,5.74-19.5,5.74a15.65,15.65,0,0,0-7.59,4.88c-6.23,7.08-6.87,18.49-6.87,18.49a19.55,19.55,0,0,0-2,7.77,15.84,15.84,0,0,0,2.25.63,20.18,20.18,0,0,1,2-7.39s.64-11.41,6.87-18.49a15.7,15.7,0,0,1,7.59-4.89s22-6.64,23.45-6.72a91.54,91.54,0,0,1,22.55-1.13,112.94,112.94,0,0,1,30.79,8,14.63,14.63,0,0,1,4.44,3c3.33,3.11,6.71,9,6.48,19.74,0,0,2,1.71,2,7.24a10,10,0,0,0,2.41-1,1.31,1.31,0,0,0,0-.15C186.59,174.87,184.68,170,184.68,170Z"/></g><rect class="cls-45" x="106.62" y="153.78" width="51.11" height="11.74" rx="4.17" transform="translate(-0.58 0.48) rotate(-0.21)"/><path class="cls-34" d="M183.88,177.63a21.59,21.59,0,0,1-2.83.84,15.21,15.21,0,0,1-2.82.32s-40.81,9.36-97.07,0a13.69,13.69,0,0,1-3.23-.31l-.06-.23c-.72-3.08,1.87-7.6,1.87-7.6,2.37-1.61,4.87,1,4.87,1,40.29,12.2,82.29,2.81,94.09-.31,2.11-.55,3.25-.91,3.25-.91C183.82,172.29,183.94,176.73,183.88,177.63Z"/><path class="cls-44" d="M84.57,171.67s-2.84.27-3.43,7.19a19.06,19.06,0,0,1-3.43-.39c-.92-3.12,2-7.81,2-7.81C82.07,169.05,84.57,171.67,84.57,171.67Z"/><path class="cls-44" d="M183.92,177.78a17.61,17.61,0,0,1-2.87.69c1.08-3.15-1.87-6.55-2.35-7.08,2.11-.55,3.25-.91,3.25-.91C183.82,172.29,184,176.89,183.92,177.78Z"/><path class="cls-35" d="M178.7,171.39c-10.44,13.19-75.33,7.75-75.33,7.75-13.4-1.37-18.76-7.44-18.76-7.44C124.9,183.9,166.9,174.51,178.7,171.39Z"/><path class="cls-34" d="M89.06,124.53s22.31,4.78,30.25,4.28a48.11,48.11,0,0,1,27,.14s22.52-1.86,27.49-4l-1,2.41s-32.3,6.76-32.38,7-5.83-5.71-15.89-.34L90,126.9Z"/><path class="cls-46" d="M89.67,126.52l34.43,7.86s8.23-6.53,16.24.08L173.22,127l-4,8.68-20.84,4.14s-12.77,24.15-34.26-.28l-20.46-4.13Z"/><path class="cls-5" d="M91.31,129.63l27.78,6.26s3.53,1.34,3.4,3.65c0,0,9.12,12.28,19.36-.21,0,0,.39-3.66,5.54-3.68l24-5.64-.68,1.5-22.45,5.77a22.63,22.63,0,0,0-4.05,3.8s-12.41,13.72-23.83-.39c0,0-2.79-3-4.21-3.37s-24-6.07-24-6.07Z"/><path class="cls-5" d="M139.78,138.42c0,2.75-3.3,5-7.39,5s-7.42-2.2-7.43-5,3.3-5,7.39-5S139.77,135.67,139.78,138.42Z"/></g></g></g></svg>