<svg xmlns="http://www.w3.org/2000/svg" viewBox="0 0 512 382.16"><defs><style>.cls-1{fill:#2ec4b6;}.cls-2{fill:#2aab9f;}.cls-3{fill:#8f5041;}.cls-4{fill:#773941;}.cls-5{fill:#5f2241;}.cls-6{fill:#404a4a;}.cls-7{fill:#00a858;}.cls-8{fill:#009148;}.cls-9{fill:#20b269;}.cls-10{fill:#00a854;}.cls-11{fill:#eb4d60;}.cls-12{fill:#e71d36;}.cls-13{fill:#ffd572;}.cls-14{fill:#fdb833;}</style></defs><g id="Layer_2" data-name="Layer 2"><g id="Layer_1-2" data-name="Layer 1"><path class="cls-1" d="M397.63,382.16H374.16a32,32,0,0,1-30.71-40.87l3.29-11.37a1.18,1.18,0,0,0-.2-1.12,1.11,1.11,0,0,0-1-.49c-33.61-.68-65.34-4.5-89.34-10.76a347.3,347.3,0,0,1-36.58-11.75l1.06,43.61a32,32,0,0,1-32,32.75H162.4a32,32,0,0,1-31.53-37.29l6.4-38a69.93,69.93,0,0,0-23.38-64.7c-25-21.85-106.71-79.43-107.53-80A15,15,0,0,1,0,149.48c.12-4.81,2.05-47.62,30-69.5,9.85-7.72,27-15.73,53-10.06,43.45,9.46,52.89,34.71,62,59.12,5.32,14.22,10.8,28.88,23.3,44.44L455.51,237.3a15.06,15.06,0,0,1,3.86,1.43l44.75,24.12a15,15,0,0,1-1.85,27.25c-8.09,3-17,7.61-26.4,12.46-14.54,7.48-30.6,15.74-47.51,20.12l1.21,26a32,32,0,0,1-31.94,33.45Z"/><path class="cls-2" d="M504.12,262.85l-44.75-24.12a15,15,0,0,0-3.86-1.43L256,193V317.48l.25.07c24,6.26,55.73,10.08,89.35,10.76a1.11,1.11,0,0,1,.94.49,1.18,1.18,0,0,1,.2,1.12l-3.29,11.37a32,32,0,0,0,30.71,40.87h23.47a32,32,0,0,0,31.94-33.45l-1.21-26c16.91-4.37,33-12.63,47.5-20.11,9.43-4.85,18.32-9.43,26.41-12.46a15,15,0,0,0,1.85-27.25Z"/><path class="cls-3" d="M266,149l-67.73,66.91C183.62,208.1,169,199.14,154,189.08a15,15,0,0,1-5.83-17.2,126,126,0,0,1,22.66-40.32c16.38-19.64,42.83-39.24,85.22-47.47Z"/><path class="cls-4" d="M318.67,161.73l-18.84,89.21c-36.43-5.79-69-17.59-101.56-35L256,139Z"/><path class="cls-5" d="M256,240.57a301.1,301.1,0,0,0,43.83,10.37l18.84-89.21L256,139Z"/><path class="cls-5" d="M450.6,251.15l-51.51,3.94L358.34,150.94l21.16-47.73c53.19,35.17,76.1,98.46,84.43,129.08a15,15,0,0,1-13.33,18.86Z"/><path class="cls-6" d="M79.81,147.94c7.85,0,15.37-6.9,15-15s-6.59-15-15-15c-7.84,0-15.36,6.9-15,15S71.41,147.94,79.81,147.94Z"/><path class="cls-3" d="M399.09,255.09h-44.4a347.51,347.51,0,0,1-54.86-4.15l8.84-79.21,31-6.61,28.65-4.18Z"/><path class="cls-4" d="M379.5,103.21l-11.16,57.73-59.67,10.79L256,139V84.09c10.58-1.52,32.1-4,44.57-4,31.68,0,57.66,9.11,78.93,23.17Z"/><path class="cls-7" d="M15.12,76.71a3.27,3.27,0,0,0-3.32,3l-.52,4.59a3,3,0,0,0,2.62,3.29L141.24,101.9a84.23,84.23,0,0,1-13.87-12.53L16,76.81l-.92-.1Z"/><path class="cls-8" d="M14.57,81.53A3,3,0,0,1,12,79a3.5,3.5,0,0,0-.17.71l-.52,4.59a3,3,0,0,0,2.62,3.29L141.24,101.9a83.83,83.83,0,0,1-8.56-7.05L14.57,81.53Z"/><path class="cls-9" d="M63,.24A38.06,38.06,0,0,0,20.89,33.78L16.05,76.67a.48.48,0,0,0,.43.53l107.7,12.15a5,5,0,0,1,3,1.48c5.4,5.56,27.92,27,44.56,17.1C194.8,94.17,157.64,11,63,.24Z"/><path class="cls-10" d="M147.78,106.55c7.78,4,16.48,5.86,24,1.38C194.8,94.17,157.64,11,63,.24A37.88,37.88,0,0,0,55.88.11c83.72,17.09,115.83,92.33,94,105.35A17.85,17.85,0,0,1,147.78,106.55Z"/><path class="cls-7" d="M110.13,78l8.65,10.74,5.4.61a5,5,0,0,1,2.24.83L114.06,74.83A2.52,2.52,0,0,0,110.13,78Z"/><circle class="cls-11" cx="59.75" cy="39.92" r="23.73"/><path class="cls-12" d="M71.82,41.28a23.73,23.73,0,0,1-20.4,20.86,24.09,24.09,0,0,0,5.67,1.36,23.73,23.73,0,0,0,5.32-47.16,23.17,23.17,0,0,0-5.83.06A23.72,23.72,0,0,1,71.82,41.28Z"/><path class="cls-13" d="M52.47,41.3a1,1,0,0,1,.2,1l-1.85,6.38a1.06,1.06,0,0,0,1.39,1.28L58.4,47.5a1.08,1.08,0,0,1,1,.11l5.5,3.73a1.05,1.05,0,0,0,1.64-.93l-.38-6.63a1,1,0,0,1,.4-.89l5.25-4.07A1.05,1.05,0,0,0,71.4,37L65,35.28a1.05,1.05,0,0,1-.73-.66L62,28.37a1,1,0,0,0-1.87-.21l-3.59,5.59a1.06,1.06,0,0,1-.85.48l-6.64.22a1,1,0,0,0-.78,1.71Z"/><path class="cls-14" d="M58.37,47.4a.82.82,0,0,1,.2.12L63,51.13c.59.48,1.4-.09,1.37-1l-.18-6.61a1.18,1.18,0,0,1,.35-.89L69,38.5a1.13,1.13,0,0,0-.28-1.84l-5.25-1.55a.91.91,0,0,1-.58-.65l-1.72-6.19a.81.81,0,0,0-1.54-.17l-3.06,5.65-.12.17.54,2a.9.9,0,0,0,.58.65l5.25,1.55a1.13,1.13,0,0,1,.28,1.84l-4.4,4.17a1.2,1.2,0,0,0-.35.9l.07,2.41Z"/></g></g></svg>