<?xml version="1.0"?>
<svg xmlns="http://www.w3.org/2000/svg" xmlns:xlink="http://www.w3.org/1999/xlink" xmlns:svgjs="http://svgjs.com/svgjs" version="1.1" width="512" height="512" x="0" y="0" viewBox="0 0 497 497" style="enable-background:new 0 0 512 512" xml:space="preserve" class=""><g><g xmlns="http://www.w3.org/2000/svg"><g><g><g><path d="m481.092 235.004h-292.949l-19.199 19.199v76.308l90.687 90.687h23.534c77.711-7.518 153.442-40.367 213.836-98.57-.001-30.845-5.637-60.371-15.909-87.624z" fill="#2ec4b6" data-original="#1cbbea" style="" class=""/></g><path d="m187.457 247.028c.102-4.03.336-8.039.686-12.023h-172.235c-10.272 27.252-15.908 56.778-15.908 87.623 78.309 75.469 182.401 108.318 283.164 98.57-60.94-36.584-97.499-103.114-95.707-174.17z" fill="#29b1a5" data-original="#08a5d6" style="" class=""/></g><g><g><path d="m292.591 78.031-123.648 45.22v182.63l45.08 45.08c11.305 1.348 22.809 2.046 34.476 2.046 95.504 0 180.144-46.462 232.592-118.002-30.42-80.708-101.629-141.416-188.5-156.974z" fill="#c8f5f1" data-original="#b9f0ff" style="" class=""/></g><path d="m187.457 247.028c1.79-70.968 42.558-135.496 105.134-168.997-14.31-2.563-29.044-3.902-44.091-3.902-106.397 0-197.16 66.874-232.592 160.876 46.04 62.8 116.889 106.27 198.115 115.956-17.971-31.006-27.501-66.848-26.566-103.933z" fill="#78e3d9" data-original="#7ce3ff" style="" class=""/></g></g><path d="m300.494 178.505 13.006-22.527c2.711-4.696 2.711-10.304 0-15s-7.567-7.5-12.99-7.5h-26.013l-13.007-22.528c-2.711-4.696-7.567-7.5-12.99-7.5s-10.279 2.804-12.99 7.5l-13.007 22.528h-26.013c-5.423 0-10.279 2.804-12.99 7.5s-2.711 10.304 0 15l13.006 22.527-13.006 22.528c-2.711 4.696-2.711 10.304 0 15s7.567 7.5 12.99 7.5h26.013l13.007 22.528c2.711 4.696 7.567 7.5 12.99 7.5s10.279-2.804 12.99-7.5l13.007-22.528h26.013c5.423 0 10.279-2.804 12.99-7.5s2.711-10.304 0-15zm.016-30.027-8.676 15.027-8.676-15.027zm-17.337 30.027-17.336 30.027h-34.674l-17.336-30.027 17.336-30.027h34.674zm-34.673-60.055 8.677 15.028h-17.353zm-52.01 30.028h17.352l-8.676 15.027zm0 60.055 8.676-15.027 8.676 15.027zm52.01 30.028-8.677-15.028h17.353zm34.657-30.028 8.676-15.027 8.676 15.027z" fill="#29b1a5" data-original="#08a5d6" style="" class=""/><g><g><g><ellipse cx="168.943" cy="303.135" fill="#ff9daa" rx="29.355" ry="23.377" data-original="#ff8e9e" style="" class=""/></g><g><ellipse cx="328.057" cy="303.135" fill="#ff9daa" rx="29.355" ry="23.377" data-original="#ff8e9e" style="" class=""/></g></g></g><g fill="#313d40"><path d="m186.051 261.131c-4.142 0-7.5 3.357-7.5 7.5v12c0 4.143 3.358 7.5 7.5 7.5s7.5-3.357 7.5-7.5v-12c0-4.142-3.358-7.5-7.5-7.5z" fill="#313d40" data-original="#313d40" style="" class=""/><path d="m310.949 261.131c-4.142 0-7.5 3.357-7.5 7.5v12c0 4.143 3.358 7.5 7.5 7.5s7.5-3.357 7.5-7.5v-12c0-4.142-3.358-7.5-7.5-7.5z" fill="#313d40" data-original="#313d40" style="" class=""/><path d="m269.892 274.62c-3.123-2.722-7.861-2.396-10.582.727-2.729 3.133-6.669 4.929-10.81 4.929s-8.081-1.796-10.81-4.929c-2.721-3.122-7.459-3.447-10.582-.727-3.123 2.722-3.448 7.459-.727 10.582 5.579 6.401 13.641 10.073 22.119 10.073s16.54-3.672 22.119-10.073c2.721-3.123 2.396-7.861-.727-10.582z" fill="#313d40" data-original="#313d40" style="" class=""/></g></g></g></svg>
