<svg xmlns="http://www.w3.org/2000/svg" viewBox="0 0 542.7 606.47"><defs><style>.cls-1{fill:#2ec4b6;}.cls-2{fill:#2aab9f;}.cls-3{fill:#8f5041;}.cls-4{fill:#773941;}.cls-5{fill:#5f2241;}.cls-6{fill:#404a4a;}.cls-7{fill:#eb4d60;}.cls-8{fill:#e71d36;}.cls-9{fill:#ffd572;}.cls-10{fill:#fdb833;}.cls-11{font-size:72px;fill:#fff;font-family:GanCLM-Bold, Gan CLM;font-weight:700;}</style></defs><g id="Layer_2" data-name="Layer 2"><g id="Layer_1-2" data-name="Layer 1"><path class="cls-1" d="M397.63,606.47H374.16a32,32,0,0,1-30.71-40.86l3.29-11.37a1.18,1.18,0,0,0-.2-1.12,1.13,1.13,0,0,0-1-.5c-33.61-.67-65.34-4.49-89.34-10.76a347.24,347.24,0,0,1-36.58-11.74l1.06,43.6a32,32,0,0,1-32,32.75H162.4a32,32,0,0,1-31.53-37.28l6.4-38a70,70,0,0,0-23.38-64.71c-25-21.85-106.71-79.42-107.53-80A15,15,0,0,1,0,373.8c.12-4.81,2.05-47.62,30-69.5,9.85-7.72,27-15.73,53-10.07,43.45,9.47,52.89,34.71,62,59.13,5.32,14.21,10.8,28.88,23.3,44.43l287.18,63.82a15.08,15.08,0,0,1,3.86,1.44l44.75,24.12a15,15,0,0,1-1.85,27.25c-8.09,3-17,7.61-26.4,12.46-14.54,7.47-30.6,15.74-47.51,20.11l1.21,26a32,32,0,0,1-31.94,33.45Z"/><path class="cls-2" d="M504.12,487.17l-44.75-24.12a15,15,0,0,0-3.86-1.44L256,417.28V541.8l.25.06c24,6.27,55.73,10.09,89.35,10.76a1.13,1.13,0,0,1,.94.5,1.18,1.18,0,0,1,.2,1.12l-3.29,11.37a32,32,0,0,0,30.71,40.86h23.47A32,32,0,0,0,429.57,573l-1.21-26c16.91-4.37,33-12.64,47.5-20.12,9.43-4.84,18.32-9.42,26.41-12.45a15,15,0,0,0,1.85-27.25Z"/><path class="cls-3" d="M266,373.35l-67.73,66.9C183.62,432.42,169,423.46,154,413.4a15,15,0,0,1-5.83-17.21,126.12,126.12,0,0,1,22.66-40.32c16.38-19.63,42.83-39.24,85.22-47.47Z"/><path class="cls-4" d="M318.67,386l-18.84,89.21c-36.43-5.79-69-17.59-101.56-35L256,363.35Z"/><path class="cls-5" d="M256,464.89a301.09,301.09,0,0,0,43.83,10.36L318.67,386,256,363.35Z"/><path class="cls-5" d="M450.6,475.47l-51.51,3.94L358.34,375.26l21.16-47.73c53.19,35.16,76.1,98.46,84.43,129.07a15,15,0,0,1-13.33,18.87Z"/><path class="cls-6" d="M79.81,372.25c7.85,0,15.37-6.9,15-15s-6.59-15-15-15c-7.84,0-15.36,6.9-15,15S71.41,372.25,79.81,372.25Z"/><path class="cls-3" d="M399.09,479.4h-44.4a347.51,347.51,0,0,1-54.86-4.15L308.67,396l31-6.61,28.65-4.18Z"/><path class="cls-4" d="M379.5,327.53l-11.16,57.73-59.67,10.79L256,363.35v-55c10.58-1.52,32.1-4,44.57-4,31.68,0,57.66,9.11,78.93,23.17Z"/><path class="cls-7" d="M500.58,97.42,326.7,22.71a5.18,5.18,0,0,0-7.23,4.76V176.89a5.19,5.19,0,0,0,7.23,4.76l173.88-74.71a5.18,5.18,0,0,0,0-9.52Z"/><path class="cls-8" d="M343.32,29.85,326.7,22.71a5.18,5.18,0,0,0-7.23,4.76V176.89a5.19,5.19,0,0,0,7.23,4.76l16.61-7.14V29.85Z"/><path class="cls-9" d="M312,0a17.59,17.59,0,0,0-17.57,17.57V321.8a5.18,5.18,0,0,0,5.19,5.18h24.76a5.18,5.18,0,0,0,5.19-5.18V17.57A17.59,17.59,0,0,0,312,0Z"/><path class="cls-10" d="M312,327h12.38a5.18,5.18,0,0,0,5.19-5.18V17.57A17.59,17.59,0,0,0,312,0h0Z"/><text class="cls-11" transform="translate(369.9 126.81)">1</text></g></g></svg>