<svg xmlns="http://www.w3.org/2000/svg" viewBox="0 0 1287.06 482.51"><defs><style>.cls-1{fill:#fdb833;}.cls-2{fill:#e9eff4;}.cls-3{fill:#2ec4b6;}.cls-4{fill:#5b5f63;}.cls-5{fill:#fff;}.cls-6{fill:#997960;}.cls-7{fill:#238e81;}</style></defs><g id="Layer_2" data-name="Layer 2"><g id="Capa_1" data-name="Capa 1"><circle class="cls-1" cx="361.22" cy="63.5" r="54.51"/><path class="cls-2" d="M351.7,111.41a10.93,10.93,0,0,0-5,1.18,21.84,21.84,0,0,0-1.67-2.25,15.24,15.24,0,0,0-13-7.24H332a23.05,23.05,0,0,0-2.91-.2c-.4,0-.78,0-1.18,0a20.8,20.8,0,0,0-22.24-14.39c0-.7.09-1.4.09-2.11a26.67,26.67,0,1,0-53.34,0c0,.31,0,.61,0,.91a22.67,22.67,0,0,0-28.56,21.86,22.07,22.07,0,0,0,.36,3.92,17.55,17.55,0,1,0,12.16,30.94,34.44,34.44,0,0,0,50.49,2.58,17.87,17.87,0,0,0,28.79-6.54,21,21,0,0,0,32.4-7.17,11.07,11.07,0,1,0,3.68-21.52Z"/><path class="cls-2" d="M201.22,54.1A11.38,11.38,0,0,0,196,55.33,24.06,24.06,0,0,0,194.29,53a16,16,0,0,0-13.57-7.57h-.16a21.86,21.86,0,0,0-3-.21c-.42,0-.83,0-1.23,0A21.8,21.8,0,0,0,155.52,30a22.89,22.89,0,0,0-2.51.14c0-.72.05-1.45.05-2.2a27.93,27.93,0,1,0-55.86,0c0,.32,0,.64,0,1A24,24,0,0,0,91,28.08,23.72,23.72,0,0,0,67.31,51.79a23.18,23.18,0,0,0,.37,4.11A18.38,18.38,0,1,0,80.43,88.29,36.06,36.06,0,0,0,133.31,91a18.69,18.69,0,0,0,30.13-6.85,22,22,0,0,0,33.92-7.5,11.6,11.6,0,1,0,3.86-22.54Z"/><rect class="cls-3" y="304" width="1287.06" height="178.51"/><polygon class="cls-4" points="179.39 304 73.5 482.51 438.5 482.51 332.61 304 179.39 304"/><polygon class="cls-5" points="262.51 318.74 249.49 318.74 250.22 309.02 261.78 309.02 262.51 318.74"/><polygon class="cls-5" points="264.21 341.41 247.79 341.41 248.91 326.37 263.07 326.37 264.21 341.41"/><polygon class="cls-5" points="267.14 380.24 244.86 380.24 246.85 353.86 265.15 353.86 267.14 380.24"/><polygon class="cls-5" points="273.31 462.06 238.69 462.06 243.06 404.11 268.94 404.11 273.31 462.06"/><rect class="cls-6" x="357.73" y="244.35" width="14.69" height="59.66"/><polygon class="cls-7" points="397.74 266.18 365.07 141.81 332.4 266.18 397.74 266.18"/><rect class="cls-6" x="449.12" y="244.35" width="14.69" height="59.66"/><path class="cls-7" d="M456.48,270.56h0a32.76,32.76,0,0,1-32.67-32.67V174.5a32.77,32.77,0,0,1,32.67-32.68h0a32.77,32.77,0,0,1,32.67,32.68v63.39A32.76,32.76,0,0,1,456.48,270.56Z"/><rect class="cls-6" x="48.16" y="244.35" width="14.69" height="59.66"/><path class="cls-7" d="M55.52,270.56h0a32.76,32.76,0,0,1-32.67-32.67V174.5a32.77,32.77,0,0,1,32.67-32.68h0A32.77,32.77,0,0,1,88.19,174.5v63.39A32.76,32.76,0,0,1,55.52,270.56Z"/><rect class="cls-6" x="139.6" y="244.35" width="14.69" height="59.66"/><polygon class="cls-7" points="179.6 266.18 146.93 141.81 114.26 266.18 179.6 266.18"/></g></g></svg>