<svg xmlns="http://www.w3.org/2000/svg" viewBox="0 0 512 181.68"><defs><style>.cls-1{fill:#e71d36;}.cls-2{fill:#c9152b;}.cls-3{fill:#911e2c;}.cls-4{fill:#caf1ed;}.cls-5{fill:#a1d7d3;}.cls-6{fill:#6f6571;}.cls-7{fill:#ff9a9f;}.cls-8{fill:#5d5360;}.cls-9{fill:#b6b1b7;}.cls-10{fill:#9b959d;}.cls-11{fill:#dad8db;}.cls-12{fill:#857e87;}.cls-13{fill:#fdb833;}</style></defs><g id="Layer_2" data-name="Layer 2"><g id="Layer_1-2" data-name="Layer 1"><g id="Layer_2-2" data-name="Layer 2"><g id="Layer_1-2-2" data-name="Layer 1-2"><path class="cls-1" d="M0,101.82v38.57a16.51,16.51,0,0,0,16.52,16.46H421.16v-8.26l77.28-14A16.52,16.52,0,0,0,512,118.34V66a16.51,16.51,0,0,0-16.52-16.5h-6.34a49.62,49.62,0,0,1-19.52-4L374.26,4.68A57.67,57.67,0,0,0,351.49,0H259.64a90.89,90.89,0,0,0-38.42,8.52L115.61,57.8h-8.25c-53.57,0-82.81,13.9-96.75,23.67A24.81,24.81,0,0,0,0,101.82Z"/><path class="cls-2" d="M363.77,19.49l24.23,11c14,6.36,9.45,27.31-5.93,27.31H282.92V16.52h67.17A32.93,32.93,0,0,1,363.77,19.49Z"/><path class="cls-2" d="M0,123.87v16.52a16.51,16.51,0,0,0,16.52,16.44H404.6l16.52-8.26,77.28-14A16.51,16.51,0,0,0,511,123.85h0a17.15,17.15,0,0,0,.75-2.63,17,17,0,0,0,.25-2.85V90.87H457.81a26.32,26.32,0,0,1-11.56-2.41,56.71,56.71,0,0,0-50.17,0,26.19,26.19,0,0,1-11.53,2.41h-79v33H140.78a17,17,0,0,1-15-9.67,57.77,57.77,0,0,0-103,0,17,17,0,0,1-15,9.67Z"/><path class="cls-3" d="M16.51,156.9A16.51,16.51,0,0,1,0,140.39H388.13V156.9H16.51Z"/><path class="cls-4" d="M115.61,57.81H294.19A24.79,24.79,0,0,0,313,49.16l16.08-18.8a8.39,8.39,0,0,0-6.37-13.84H204.09L115.61,57.8Z"/><path class="cls-5" d="M168.7,33,115.61,57.8H294.19A24.77,24.77,0,0,0,313,49.15L326.78,33Z"/><path class="cls-6" d="M292.34,97.45l-13.68,18.23a5.12,5.12,0,0,0,4.1,8.19h22.79a16.53,16.53,0,0,0,13.21-6.6L332.44,99a5.12,5.12,0,0,0-4.1-8.19H305.55A16.51,16.51,0,0,0,292.34,97.45Z"/><path class="cls-7" d="M487.22,82.58a8.26,8.26,0,0,0,8.26,8.26H512V74.32H495.48A8.26,8.26,0,0,0,487.22,82.58Z"/><path class="cls-8" d="M33,140.36a41.29,41.29,0,1,1,41.29,41.32A41.29,41.29,0,0,1,33,140.36Z"/><path class="cls-9" d="M49.55,140.38a24.77,24.77,0,0,1,24.77-24.77h0a24.78,24.78,0,1,1-24.78,24.78Z"/><path class="cls-10" d="M74.32,115.61a24.78,24.78,0,0,0-12.89,45.93,24.78,24.78,0,0,1,34.05-34,24.73,24.73,0,0,0-21.16-11.88Z"/><path class="cls-11" d="M66.07,140.38a8.25,8.25,0,0,1,8.25-8.25h0a8.26,8.26,0,1,1-8.26,8.26Z"/><path class="cls-8" d="M379.87,140.39a41.29,41.29,0,1,1,41.29,41.29,41.29,41.29,0,0,1-41.29-41.29Z"/><path class="cls-9" d="M396.39,140.38a24.77,24.77,0,1,1,24.78,24.77,24.77,24.77,0,0,1-24.78-24.77Z"/><path class="cls-10" d="M400,127.48a24.78,24.78,0,0,0,8.24,34.06,24.77,24.77,0,0,1,34.05-34,24.76,24.76,0,0,0-42.29,0Z"/><path class="cls-11" d="M412.9,140.37a8.25,8.25,0,0,1,8.26-8.24h0a8.26,8.26,0,1,1-8.26,8.26Z"/><path class="cls-12" d="M310.52,16.52H288.78L253.39,57.8h21.74Z"/><path class="cls-6" d="M274.62,33,253.39,57.8h21.74L296.36,33Z"/><path class="cls-13" d="M16.53,99.1a8.26,8.26,0,1,0,0-16.52H9.15a24.54,24.54,0,0,0-9,16.52H16.53Z"/><path class="cls-8" d="M288.45,123.87h17.1a16.53,16.53,0,0,0,13.21-6.6L332.44,99a5.12,5.12,0,0,0-4.1-8.19h-9.42l-21.36,28.47A11.38,11.38,0,0,1,288.45,123.87Z"/></g></g></g></g></svg>