<svg xmlns="http://www.w3.org/2000/svg" viewBox="0 0 129.35 411.55"><defs><style>.cls-1{fill:#c0c0ce;}.cls-2{fill:#e69680;}.cls-3{fill:#c53b39;}.cls-4{fill:#a02424;}.cls-5{fill:#df644a;}.cls-6{fill:#42717c;}.cls-7{fill:#f4f5f5;}.cls-8{fill:#2e505b;}.cls-9{fill:#df8475;}.cls-10{fill:#1c323e;}.cls-11{fill:#d0d5db;}.cls-12{fill:#e06c5c;}</style></defs><g id="Layer_2" data-name="Layer 2"><g id="OBJECTS"><path class="cls-1" d="M127.91,406.78c0,2.63-28.16,4.77-62.89,4.77s-62.88-2.14-62.88-4.77S30.29,402,65,402,127.91,404.14,127.91,406.78Z"/><path class="cls-2" d="M84.1,378.24l1.45,12.95a14.61,14.61,0,0,0,10.63-1.74v-12.9S86.2,375.56,84.1,378.24Z"/><path class="cls-3" d="M100.4,178.15,98,308.64l-.37,68.63-15.32.9s-10.75-62-5.25-79.75C69.17,268,67.3,225.25,65.71,179.31Z"/><path class="cls-4" d="M85.65,378a.76.76,0,0,1-.75-.66c0-.27-3-26.81-5.17-41.63-2.11-14.35.27-36.33.48-38.22-7.22-31.9-9.89-98.12-9.92-98.79a.76.76,0,0,1,.72-.78.74.74,0,0,1,.78.72c0,.67,2.7,66.92,9.91,98.64a.76.76,0,0,1,0,.26c0,.23-2.67,23.22-.51,37.95s5.15,41.41,5.18,41.68a.75.75,0,0,1-.66.83Z"/><path class="cls-5" d="M99.12,373.22a13.43,13.43,0,0,1-.39,8.29l-17.38-.34a22.43,22.43,0,0,1-.75-8.25Z"/><path class="cls-6" d="M80.66,404.43c0,1.69.14,2.82.14,2.82h42.74a7.43,7.43,0,0,0-.19-2.82c-2.35-8.59-20.78-8.77-22.34-12.8-3.34-8.66-5.88-3.57-5.88-3.57s-9.71-2-12.24,2.7C81.54,393.3,80.56,400.63,80.66,404.43Z"/><path class="cls-7" d="M107.08,398.93h-.14a.53.53,0,0,1-.37-.65,4.25,4.25,0,0,1,2.2-3,4.42,4.42,0,0,1,3.4.11.53.53,0,0,1-.46,1h0a3.32,3.32,0,0,0-2.51-.1,3.29,3.29,0,0,0-1.61,2.29A.52.52,0,0,1,107.08,398.93Z"/><path class="cls-7" d="M104.49,397.82l-.14,0a.53.53,0,0,1-.37-.65,4.21,4.21,0,0,1,2.2-3,4.33,4.33,0,0,1,3.4.11.54.54,0,0,1,.25.71.53.53,0,0,1-.71.24h0a3.34,3.34,0,0,0-2.51-.09,3.25,3.25,0,0,0-1.61,2.29A.54.54,0,0,1,104.49,397.82Z"/><path class="cls-7" d="M101.83,397.11l-.14,0a.54.54,0,0,1-.38-.65,4.26,4.26,0,0,1,2.2-3,4.35,4.35,0,0,1,3.41.11.52.52,0,0,1,.24.7.51.51,0,0,1-.7.25,3.34,3.34,0,0,0-2.51-.1,3.26,3.26,0,0,0-1.61,2.3A.54.54,0,0,1,101.83,397.11Z"/><path class="cls-8" d="M80.66,404.43c0,1.69.14,2.82.14,2.82h42.74a7.43,7.43,0,0,0-.19-2.82Z"/><path class="cls-2" d="M21.85,378.24l-.61,13.29s7,3.2,12,0l.74-15S24,375.56,21.85,378.24Z"/><path class="cls-5" d="M82.31,178.34s2.73,13.41-17.5,30.88L49.94,302.35,36.06,375.76l-15-.08s3-51.95,6.81-83.48l7.26-112.95Z"/><path class="cls-7" d="M42.27,224.36a3.88,3.88,0,0,1-2.58-1c-6.07-5.21-5.19-30.39-5.15-31.46l1.25,0c0,.26-.9,25.65,4.71,30.47a2.67,2.67,0,0,0,2.33.65c7-1.35,7.55-22.92,7.17-31.11l1.25-.06a119,119,0,0,1-.45,15.31c-1.07,10.55-3.67,16.3-7.73,17.08A3.68,3.68,0,0,1,42.27,224.36Z"/><path class="cls-6" d="M11.67,407.92H40.13a15.84,15.84,0,0,0,.32-3,15.31,15.31,0,0,0-.32-3.62c-.73-3.49-3.77-2.62-6.34-9.81a10.07,10.07,0,0,0-2.8-3.52,6.35,6.35,0,0,0-9.31,0c-4.14,4.23-5.22,9.54-7.8,11.69a7.36,7.36,0,0,0-2.39,5.28A12.09,12.09,0,0,0,11.67,407.92Z"/><path class="cls-7" d="M31.48,396.23a.55.55,0,0,1-.48-.29c0-.09-1.21-2.23-5-2.23s-5,2.2-5,2.23a.53.53,0,0,1-.94-.48c.06-.12,1.47-2.81,6-2.81s5.93,2.69,6,2.81a.53.53,0,0,1-.47.77Z"/><path class="cls-7" d="M31.48,393.71a.55.55,0,0,1-.48-.29c0-.09-1.21-2.23-5-2.23s-5,2.21-5,2.23a.53.53,0,0,1-.94-.48c.05-.11,1.47-2.81,6-2.81s5.93,2.7,6,2.81a.53.53,0,0,1-.47.77Z"/><path class="cls-7" d="M31.48,391.4a.54.54,0,0,1-.48-.3c0-.08-1.21-2.22-5-2.22s-5,2.2-5,2.22a.53.53,0,1,1-.94-.47c.06-.12,1.47-2.81,6-2.81s5.93,2.69,6,2.81a.53.53,0,0,1-.47.77Z"/><path class="cls-8" d="M11.67,407.92H40.13a15.84,15.84,0,0,0,.32-3h-29A12.09,12.09,0,0,0,11.67,407.92Z"/><path class="cls-9" d="M37.39,373.79a13.36,13.36,0,0,1-.39,8.29l-18.49-.36a21.33,21.33,0,0,1-.39-8.11Z"/><path class="cls-10" d="M46.47,65.8s-9.72-2-5.07-10.15,13-12.75,23.17-12.09c20.19,1.32,24.77,16.91,18.89,21S46.47,65.8,46.47,65.8Z"/><path class="cls-7" d="M96.67,188.18C92,192.06,85.21,192.62,65.92,194c-15.13,1.07-18.54,1.46-27-1.72-2.25-.85-5.79-3-6-8.77-.47-14.14,4.15-48.39,4.67-64,.17-5.13-.79-11.47-2-18-.14-.77-.29-1.54-.43-2.31-2.37-12.45-5.2-25-2.26-30.16,4.67-8.23,21-10.37,21-10.37l13.79-1.63s20.55,4.53,25.47,10.06-.87,21.49.7,37.61C95.82,124.93,101.33,184.3,96.67,188.18Z"/><path class="cls-11" d="M84.52,162.09h0c-7.58.38-16.23-3.33-25.72-11a95.33,95.33,0,0,1-11.94-11.61.78.78,0,1,1,1.2-1c.19.23,19.18,22.92,36.38,22.07a.78.78,0,0,1,.13,1.55Z"/><path class="cls-11" d="M75.61,165.57c-9.9,1.12-22.25-8.42-22.77-8.83a.78.78,0,0,1-.14-1.09.77.77,0,0,1,1.09-.13c.13.09,12.38,9.55,21.65,8.51l.19,0a.78.78,0,1,1,.2,1.54Z"/><path class="cls-11" d="M74.07,83.13c-9.9,1.12-22.24-8.42-22.77-8.83a.78.78,0,1,1,1-1.22c.12.09,12.37,9.55,21.64,8.51l.19,0a.78.78,0,0,1,.2,1.54Z"/><path class="cls-10" d="M105.63,194.74c-5.3.78-17,3.07-22.36,2.25-1.89-.3-3-1-2.7-2.25,2.27-10.68.7-26.8-.78-44.59-1.31-15.63-2.18-48.29-1.68-61.85S75,59,75,59s.85.12,2.24.37c5.05.94,17.23,3.72,21.5,9.35,5.45,7.18,3.89,52.19,4.67,67.23S110.85,194,105.63,194.74Z"/><path class="cls-10" d="M129,121.35v0a112.67,112.67,0,0,0-5.54-14.07c-2.12-4.51-4.48-8.82-7-13s-5-8.2-7.64-12.14-5.25-7.82-7.88-11.66a8.93,8.93,0,0,0-14.73,10.1h0c5.49,6.16,10.27,14.34,14.62,22.15,2.16,3.87,4.59,8.27,6.42,12.15,1.37,2.91,2.6,5.86,3.66,8.84.09.25.18.5.26.75s-.09.36-.13.54c-.12.45-.25.9-.38,1.36-.48,1.61-1,3.25-1.6,4.88-1.17,3.27-2.52,6.53-4,9.75-.74,1.61-1.53,3.2-2.34,4.8s-1.66,3.16-2.55,4.73q-2.62,4.69-5.6,9.25l0,0a6.07,6.07,0,0,0,9.7,7.26q3.78-4.42,7.28-9.13c1.17-1.57,2.3-3.17,3.42-4.78s2.2-3.27,3.25-4.94c2.11-3.34,4.1-6.79,5.93-10.38.91-1.79,1.79-3.62,2.62-5.52.41-.94.81-1.91,1.2-2.9.2-.49.39-1,.58-1.52.09-.26.18-.54.28-.81l.14-.44.08-.24,0-.14.05-.19A8.83,8.83,0,0,0,129,121.35Z"/><path class="cls-8" d="M118.68,122.42a.62.62,0,0,1-.58.65,26.09,26.09,0,0,0-7,1.94c0-.18.09-.36.13-.54s-.17-.5-.26-.75a26,26,0,0,1,7.11-1.89A.63.63,0,0,1,118.68,122.42Z"/><path class="cls-8" d="M112.7,124.34a.64.64,0,0,1-.3-.08.62.62,0,0,1-.25-.84,28.87,28.87,0,0,1,3.68-4.39.63.63,0,0,1,.88,0,.62.62,0,0,1,0,.88,28.69,28.69,0,0,0-3.46,4.11A.62.62,0,0,1,112.7,124.34Z"/><path class="cls-2" d="M90.14,166.49,98.53,174c3.69-1.36,5.54-8.92,5.54-8.92-1.83-3.35-4.47-5.76-8.73-6.24,0,0-3.21,2.5-5.09,4a2.35,2.35,0,0,0-.15,3.57Z"/><path class="cls-8" d="M98.49,135a.89.89,0,0,1-.65-.29c-6.67-7-10.08-25.12-10.22-25.89a.91.91,0,0,1,1.79-.33c0,.18,3.45,18.35,9.74,25a.91.91,0,0,1,0,1.29A1,1,0,0,1,98.49,135Z"/><path class="cls-8" d="M83.27,197c-1.89-.3-3-1-2.7-2.25,2.27-10.68.7-26.8-.78-44.59-1.31-15.63-2.18-48.29-1.68-61.85S75,59,75,59s.85.12,2.24.37a118,118,0,0,1,3.18,29c-.21,18,.27,44.88,1,52.84C82.07,148.58,85.89,185.29,83.27,197Z"/><path class="cls-7" d="M83.64,141h0a.52.52,0,0,1-.52-.52C83.32,112.15,81,66.36,81,65.9a.52.52,0,0,1,1-.05c0,.46,2.34,46.28,2.15,74.61A.52.52,0,0,1,83.64,141Z"/><path class="cls-8" d="M100.79,178.1a.89.89,0,0,1-.61-.24L85.33,164.32A.91.91,0,1,1,86.56,163l14.84,13.54a.91.91,0,0,1-.61,1.58Z"/><path class="cls-10" d="M55.33,197.49l-1.35.16c-9.5,1-13.85-.23-20.86-1-9.35-.95-4.36-45.62-3.58-60.66S25.48,76,30.92,68.77c4-5.27,12.32-7.85,16.46-8.85,1.5-.36,2.45-.52,2.45-.52s2,15.11,2.46,28.67,1.61,45.82,1.61,61.5C53.9,171.5,60.6,196.83,55.33,197.49Z"/><path class="cls-8" d="M55.33,197.49l-1.35.16c0-2.75,0-6-.08-9.47-.19-9.46-2.63-21.16-2.9-55.38-.24-31.1-3.1-66.66-3.62-72.88,1.5-.36,2.45-.52,2.45-.52s2,15.11,2.46,28.67,1.61,45.82,1.61,61.5C53.9,171.5,60.6,196.83,55.33,197.49Z"/><path class="cls-7" d="M48.32,141.7a.53.53,0,0,1-.52-.49c-1.78-28.27-2-74.16-2-74.62a.53.53,0,0,1,.52-.52h0a.52.52,0,0,1,.52.52c0,.46.26,46.31,2,74.55a.51.51,0,0,1-.49.55Z"/><path class="cls-8" d="M31.67,178.1a.91.91,0,0,1-.61-1.58L45.9,163a.91.91,0,1,1,1.23,1.34L32.29,177.86A.93.93,0,0,1,31.67,178.1Z"/><path class="cls-10" d="M.31,128.61l.06.19,0,.14.08.23.16.44.3.8c.21.52.41,1,.62,1.5.42,1,.85,1.94,1.3,2.87.88,1.86,1.82,3.67,2.79,5.43,1.94,3.53,4,6.92,6.24,10.19,1.1,1.64,2.25,3.25,3.4,4.84s2.35,3.14,3.57,4.67q3.64,4.59,7.56,8.9a6.07,6.07,0,0,0,9.47-7.55l0,0q-3.11-4.46-5.89-9.07c-.93-1.54-1.82-3.09-2.69-4.65s-1.7-3.14-2.49-4.73c-1.59-3.16-3.05-6.38-4.32-9.61-.63-1.61-1.22-3.23-1.74-4.84-.15-.44-.29-.89-.42-1.34-.06-.18-.11-.35-.16-.53l.24-.76a95.32,95.32,0,0,1,3.39-9c1.7-3.94,4-8.41,6-12.34,4.11-7.94,8.63-16.27,13.93-22.6h0a8.93,8.93,0,0,0-15-9.63c-2.52,3.91-5,7.86-7.52,11.89S14.3,92.19,12,96.43s-4.56,8.63-6.54,13.21a109.72,109.72,0,0,0-5.1,14.23v0A9,9,0,0,0,.31,128.61Z"/><path class="cls-8" d="M10.62,124.64a.63.63,0,0,0,.61.64A25.92,25.92,0,0,1,18.34,127c-.06-.18-.11-.35-.16-.53l.24-.76A26.1,26.1,0,0,0,11.26,124,.64.64,0,0,0,10.62,124.64Z"/><path class="cls-8" d="M16.66,126.37a.61.61,0,0,0,.3-.08.63.63,0,0,0,.22-.85,28.6,28.6,0,0,0-3.81-4.28.62.62,0,0,0-.85.91,27.56,27.56,0,0,1,3.59,4A.62.62,0,0,0,16.66,126.37Z"/><path class="cls-2" d="M40.51,167.8l-8.15,7.81c-3.73-1.24-5.81-8.74-5.81-8.74,1.73-3.41,4.29-5.9,8.54-6.51,0,0,3.28,2.4,5.21,3.83a2.35,2.35,0,0,1,.26,3.56Z"/><path class="cls-10" d="M46.12,20.09S38,11.5,40.81,9.67s4.95,1,4.95,1-3-7.88.36-8,6.25,3.52,6.25,3.52S49.79.17,53.72,0s5.33,4.84,5.33,4.84,6.5-1.5,12.13.16a9.65,9.65,0,0,1,6.7,6.75s2.59.59,3.39,4.36a10.47,10.47,0,0,1-1,6.24Z"/><path class="cls-2" d="M48.84,30.91s-4.13-1.68-5.16,3.19,4.1,10,8.2,8.33C51.88,42.43,50.92,33,48.84,30.91Z"/><path class="cls-12" d="M50.81,40.6a.54.54,0,0,1-.52-.44,9,9,0,0,0-3.41-5.51.55.55,0,0,1-.15-.75.54.54,0,0,1,.75-.15A10,10,0,0,1,51.36,40a.54.54,0,0,1-.44.62Z"/><path class="cls-12" d="M46.65,38a.57.57,0,0,1-.47-.29.54.54,0,0,1,.23-.73,6,6,0,0,1,3.25-.69.54.54,0,1,1-.2,1.07,4.89,4.89,0,0,0-2.55.58A.58.58,0,0,1,46.65,38Z"/><path class="cls-2" d="M78,30.91s4.14-1.68,5.16,3.19-4.1,10-8.2,8.33C75,42.43,76,33,78,30.91Z"/><path class="cls-12" d="M76.07,40.6a.53.53,0,0,0,.52-.44A9,9,0,0,1,80,34.65a.54.54,0,0,0-.6-.9A10,10,0,0,0,75.52,40a.54.54,0,0,0,.44.62Z"/><path class="cls-12" d="M80.23,38a.55.55,0,0,0,.47-.29.53.53,0,0,0-.23-.73,6,6,0,0,0-3.25-.69.55.55,0,0,0-.43.64.54.54,0,0,0,.63.43,4.86,4.86,0,0,1,2.55.58A.62.62,0,0,0,80.23,38Z"/><path class="cls-2" d="M73.19,60.27a14,14,0,0,1-17.9,0l.21-2.41,1-12.06H71.7l.72,7Z"/><path class="cls-10" d="M72.42,52.78c-1.73,2.14-6.61,6.48-16.92,5.08l1-12.06H71.7Z"/><path class="cls-2" d="M78.67,31.85c-.18,1.25-.41,2.56-.7,3.91-.36,1.69-.81,3.43-1.35,5.14-2.54,8.09-7.13,15.49-14.38,14-6-1.22-9.69-7.47-11.89-14.08-.57-1.7-1-3.43-1.43-5.1-.25-1.08-.47-2.13-.66-3.13-.46-2.45-.75-4.63-.92-6.25a5.23,5.23,0,0,1,2.17-4.84C61.64,13,77.87,18.6,79,23.49A28.63,28.63,0,0,1,78.67,31.85Z"/><path class="cls-10" d="M67.66,29.7s.27-2.5,2.25-2.63,4.91.83,4.78,3.38Z"/><path class="cls-10" d="M60.75,29.7s-.27-2.5-2.24-2.63-4.92.83-4.79,3.38Z"/><path class="cls-8" d="M80.29,22.35c-.13,4.91-2.3,14.51-3.07,14.13s0-6.48,0-8.31l-.61-5,.92-1.95a24.25,24.25,0,0,0-13.72-3.3c-8.42.45-13.16,3.34-13.16,3.34l1,1.91c-.15,1.53-1.49,7.45-1.49,7.45-.11.69-.39,5.61-.81,5.48-.81-.26-2-9.2-2.61-10.77a10.92,10.92,0,0,1-.49-4.06c.21-3.47,2-8.28,9.28-11.55,8.83-4,23.3-1.48,24.77,11.06A10.71,10.71,0,0,1,80.29,22.35Z"/><path class="cls-10" d="M80.29,22.35l-3.71.83.92-1.95a24.25,24.25,0,0,0-13.72-3.3c-8.42.45-13.16,3.34-13.16,3.34l1,1.91-5.4-1.9C45.67,18.08,47.69,12,55,8.71c8.83-4,24.22-1.55,25.29,12.08A14.57,14.57,0,0,1,80.29,22.35Z"/><path class="cls-12" d="M57.23,37.05c0,.86-1.33,1.57-3,1.59s-3-.65-3-1.51,1.33-1.56,3-1.58S57.22,36.2,57.23,37.05Z"/><path class="cls-12" d="M76.14,37.05c0,.86-1.34,1.57-3,1.59s-3-.65-3-1.51,1.33-1.56,3-1.58S76.12,36.2,76.14,37.05Z"/><path class="cls-7" d="M58.9,44s6.5,1,10.68,0c0,0-1.31,4.36-5.48,4.36C60.56,48.37,58.9,44,58.9,44Z"/><path class="cls-10" d="M59,33.64c0,.85-.35,1.54-.81,1.55s-.86-.67-.87-1.52.35-1.53.81-1.54S59,32.8,59,33.64Z"/><path class="cls-10" d="M69.06,33.64c0,.85.35,1.54.82,1.55s.86-.67.87-1.52-.35-1.53-.82-1.54S69.08,32.8,69.06,33.64Z"/><path class="cls-12" d="M64.65,41.11a7.13,7.13,0,0,1-1.53-.21.49.49,0,0,1,.23-.95,5,5,0,0,0,1.62.17c0-.8-.57-4.45-1.1-7.69a.49.49,0,0,1,.4-.56.47.47,0,0,1,.56.4c.28,1.73,1.19,7.42,1.11,8.09a.74.74,0,0,1-.34.53A1.72,1.72,0,0,1,64.65,41.11Z"/></g></g></svg>