<?xml version="1.0" encoding="UTF-8"?>
<svg xmlns="http://www.w3.org/2000/svg" xmlns:xlink="http://www.w3.org/1999/xlink" xmlns:svgjs="http://svgjs.com/svgjs" version="1.1" width="512" height="512" x="0" y="0" viewBox="0 0 512 512" style="enable-background:new 0 0 512 512" xml:space="preserve" class="">
  <g>
    <g xmlns="http://www.w3.org/2000/svg">
      <path d="m0 256.063v-.063c0-141.385 114.615-256 256-256 141.279 0 255.829 114.444 256 255.683.018 15.103-1.285 29.912-3.8 44.316h-447.438c-15.112-15.842-33.851-28.194-54.883-35.726-3.49-1.248-5.878-4.504-5.879-8.21z" fill="#2ec4b6" data-original="#40c1fa" style="" class=""/>
      <path d="m509.741 290c-6.288 46.992-25.419 90.381-53.741 125.815-1.56 1.952-7.516 1.371-9.128 3.27-9.384 11.061-16.628 20.453-27.745 29.787-1.541 1.294-1.739 5.867-3.313 7.128-43.204 34.622-97.934 55.421-157.312 55.988-61.556.588-118.157-20.551-162.603-56.217-3.565-2.861-4.913-7.668-3.44-11.996 4.889-14.362 7.541-29.759 7.541-45.775 0-43.234-19.322-81.955-49.801-108z" fill="#0c9d90" data-original="#07a9f0" style="" class=""/>
      <path d="m456 125v290.815c-11.868 14.833-25.352 28.317-40.185 40.185h-319.63c-14.771-11.819-28.205-25.24-40.037-40-.776-.968 2.455-5.942 1.693-6.921-3.404-4.375-6.669-8.863-9.789-13.458-.691-1.018-5.375 1.959-6.052.931-17.256-26.221-29.718-55.824-36.506-87.55-4.494-21.002-5.494-31.918-5.494-34.002v-150c0-8.284 6.716-15 15-15h426c8.284 0 15 6.716 15 15z" fill="#c92136" data-original="#453d83" style="" class=""/>
      <path d="m456 125v174c0 8.285-6.716 15-15 15h-10c-8.284 0-15-6.715-15-15v-149h-217c-8.284 0-15-6.716-15-15v-10c0-8.284 6.716-15 15-15h242c8.284 0 15 6.716 15 15z" fill="#e71d36" data-original="#5f55af" style="" class=""/>
      <path d="m45.489 186h370.511v225c0 2.761-2.239 5-5 5h-354.852c-5.01-6.25-9.733-12.739-14.148-19.449v-207.062c0-1.927 1.562-3.489 3.489-3.489z" fill="#e7e7e7" data-original="#e7e7e7" style="" class=""/>
      <path d="m416 186v225c0 2.761-2.239 5-5 5h-211.362v-230z" fill="#fff5f5" data-original="#fff5f5" style="" class=""/>
      <path d="m416 155v35h-374v-35c0-2.761 2.239-5 5-5h364c2.761 0 5 2.239 5 5z" fill="#ff9100" data-original="#ff9100" style="" class=""/>
      <path d="m416 155v35h-214c-11.046 0-20-8.954-20-20 0-11.046 8.954-20 20-20h209c2.761 0 5 2.239 5 5z" fill="#fdb833" data-original="#ffb52d" style="" class=""/>
      <path d="m97.01 175h-30.02c-2.756 0-4.99-2.234-4.99-4.99v-.02c0-2.756 2.234-4.99 4.99-4.99h30.02c2.756 0 4.99 2.234 4.99 4.99v.02c0 2.756-2.234 4.99-4.99 4.99z" fill="#f55468" data-original="#f95f00" style="" class=""/>
      <path d="m190 225c0 2.761-2.239 5-5 5h-80c-2.761 0-5-2.239-5-5s2.239-5 5-5h80c2.761 0 5 2.239 5 5zm-115-5h-10c-2.761 0-5 2.238-5 5 0 2.761 2.239 5 5 5h10c2.761 0 5-2.239 5-5 0-2.762-2.239-5-5-5z" fill="#e56272" data-original="#8078bf" style="" class=""/>
      <path d="m90 265v20c0 2.761-2.239 5-5 5h-20c-2.761 0-5-2.239-5-5v-20c0-2.762 2.239-5 5-5h20c2.761 0 5 2.238 5 5zm-5 45h-20c-2.761 0-5 2.238-5 5v20c0 2.761 2.239 5 5 5h20c2.761 0 5-2.239 5-5v-20c0-2.762-2.239-5-5-5zm0 50h-20c-2.761 0-5 2.238-5 5v20c0 2.761 2.239 5 5 5h20c2.761 0 5-2.239 5-5v-20c0-2.762-2.239-5-5-5zm180-100h-20c-2.761 0-5 2.238-5 5v20c0 2.761 2.239 5 5 5h20c2.761 0 5-2.239 5-5v-20c0-2.762-2.239-5-5-5zm0 50h-20c-2.761 0-5 2.238-5 5v20c0 2.761 2.239 5 5 5h20c2.761 0 5-2.239 5-5v-20c0-2.762-2.239-5-5-5zm0 50h-20c-2.761 0-5 2.238-5 5v20c0 2.761 2.239 5 5 5h20c2.761 0 5-2.239 5-5v-20c0-2.762-2.239-5-5-5z" fill="#cecece" data-original="#cecece" style="" class=""/>
      <path d="m210 265c0 2.761-2.239 5-5 5h-100c-2.761 0-5-2.239-5-5s2.239-5 5-5h100c2.761 0 5 2.239 5 5zm-105 25h45c2.761 0 5-2.239 5-5s-2.239-5-5-5h-45c-2.761 0-5 2.239-5 5s2.239 5 5 5zm0 30h76.842c2.761 0 5-2.239 5-5s-2.239-5-5-5h-76.842c-2.761 0-5 2.239-5 5s2.239 5 5 5zm0 20h33.421c2.761 0 5-2.239 5-5s-2.239-5-5-5h-33.421c-2.761 0-5 2.239-5 5s2.239 5 5 5zm100 20h-100c-2.761 0-5 2.239-5 5s2.239 5 5 5h100c2.761 0 5-2.239 5-5s-2.239-5-5-5zm-55 20h-45c-2.761 0-5 2.239-5 5s2.239 5 5 5h45c2.761 0 5-2.239 5-5s-2.239-5-5-5zm135-110h100c2.761 0 5-2.239 5-5s-2.239-5-5-5h-100c-2.761 0-5 2.239-5 5s2.239 5 5 5zm0 20h45c2.761 0 5-2.239 5-5s-2.239-5-5-5h-45c-2.761 0-5 2.239-5 5s2.239 5 5 5zm0 30h76.842c2.761 0 5-2.239 5-5s-2.239-5-5-5h-76.842c-2.761 0-5 2.239-5 5s2.239 5 5 5zm0 20h33.421c2.761 0 5-2.239 5-5s-2.239-5-5-5h-33.421c-2.761 0-5 2.239-5 5s2.239 5 5 5zm100 20h-100c-2.761 0-5 2.239-5 5s2.239 5 5 5h100c2.761 0 5-2.239 5-5s-2.239-5-5-5zm-55 20h-45c-2.761 0-5 2.239-5 5s2.239 5 5 5h45c2.761 0 5-2.239 5-5s-2.239-5-5-5z" fill="#ebb3ba" data-original="#c1bde0" style="" class=""/>
      <path d="m89.397 317.103-19 24c-.946 1.194-2.384 1.893-3.908 1.896h-.013c-1.519 0-2.955-.69-3.904-1.876l-8-10c-1.725-2.156-1.375-5.303.781-7.028 2.157-1.724 5.303-1.375 7.028.781l4.075 5.094 15.1-19.074c1.714-2.164 4.859-2.53 7.024-.817 2.165 1.715 2.531 4.859.817 7.024zm180 51-19 24c-.946 1.194-2.384 1.893-3.908 1.896h-.013c-1.519 0-2.955-.69-3.904-1.876l-8-10c-1.725-2.156-1.375-5.303.781-7.028 2.157-1.724 5.303-1.375 7.028.781l4.075 5.094 15.1-19.074c1.714-2.164 4.859-2.53 7.024-.817 2.165 1.715 2.531 4.859.817 7.024z" fill="#f55468" data-original="#f95f00" style="" class=""/>
      <path d="m230 225v-160c0-8.284 6.716-15 15-15h39c8.284 0 15 6.716 15 15v160c0 8.284-6.716 15-15 15h-39c-8.284 0-15-6.716-15-15z" fill="#f55468" data-original="#f95f00" style="" class=""/>
      <path d="m512 65v160c0 8.284-6.716 15-15 15h-143.268c-1.315 0-2.576.518-3.512 1.441l-44.596 44.01c-2.613 2.578-7.02 1.557-8.232-1.908l-14.058-40.193c-.702-2.006-2.595-3.349-4.72-3.349h-7.614c-8.284 0-15-6.716-15-15v-160.001c0-8.284 6.716-15 15-15h226c8.284 0 15 6.716 15 15z" fill="#ef8390" data-original="#f77026" style="" class=""/>
      <path d="m386 105c0-2.761 2.239-5 5-5h90c2.761 0 5 2.239 5 5s-2.239 5-5 5h-90c-2.761 0-5-2.239-5-5zm95 35h-90c-2.761 0-5 2.239-5 5s2.239 5 5 5h90c2.761 0 5-2.239 5-5s-2.239-5-5-5zm0 20h-90c-2.761 0-5 2.239-5 5s2.239 5 5 5h90c2.761 0 5-2.239 5-5s-2.239-5-5-5zm0 20h-90c-2.761 0-5 2.239-5 5s2.239 5 5 5h90c2.761 0 5-2.239 5-5s-2.239-5-5-5zm-90-50h70c2.761 0 5-2.239 5-5s-2.239-5-5-5h-70c-2.761 0-5 2.239-5 5s2.239 5 5 5z" fill="#ffebcf" data-original="#ff9d60" style="" class=""/>
      <path d="m370 130v30c0 27.614-22.386 50-50 50-27.614 0-50-22.386-50-50v-30c0-27.614 22.386-50 50-50 27.614 0 50 22.386 50 50z" fill="#f55468" data-original="#ea552d" style="" class=""/>
      <path d="m324.847 203.546c0 3.911-3.17 7.081-7.081 7.081s-7.081-3.17-7.081-7.081 3.17-7.081 7.081-7.081 7.081 3.171 7.081 7.081zm27.644-90.946c-.939-18.096-15.878-32.558-34.01-32.924-17.579-.351-32.723 12.51-35.153 29.923-.222 1.592-.335 3.222-.335 4.844 0 2.762 2.239 5 5 5s5-2.238 5-5c0-1.161.081-2.325.239-3.461 1.73-12.4 12.52-21.569 25.047-21.308 12.916.261 23.557 10.559 24.226 23.444.357 6.872-2.049 13.398-6.774 18.375-4.728 4.98-11.108 7.723-17.965 7.723-2.761 0-5 2.238-5 5v31.134c0 2.762 2.239 5 5 5s5-2.238 5-5v-26.486c7.7-1.096 14.747-4.724 20.217-10.485 6.632-6.986 10.009-16.142 9.508-25.779z" fill="#fff5f5" data-original="#fff5f5" style="" class=""/>
    </g>
  </g>
</svg>
