<svg xmlns="http://www.w3.org/2000/svg" viewBox="0 0 512 459.19"><defs><style>.cls-1{fill:#fdb833;}.cls-2{fill:#ffa416;}.cls-3{fill:#35495e;}.cls-4{fill:#2c3e50;}</style></defs><g id="Layer_2" data-name="Layer 2"><g id="Layer_1-2" data-name="Layer 1"><path class="cls-1" d="M439.36,459.19H72.63a72.62,72.62,0,0,1-65-105.1L191,40.15a72.63,72.63,0,0,1,129.92,0L504.32,354.09a72.62,72.62,0,0,1-65,105.1Z"/><path class="cls-2" d="M439.41,459.19H256V0a71.94,71.94,0,0,1,65,40.18L504.31,354.11a72.57,72.57,0,0,1-64.9,105.08Z"/><path class="cls-3" d="M291.32,379.72A35.33,35.33,0,1,1,256,344.4,35.32,35.32,0,0,1,291.32,379.72Z"/><path class="cls-4" d="M291.32,379.72A35.3,35.3,0,0,1,256,415V344.4a35.3,35.3,0,0,1,35.32,35.32Z"/><path class="cls-3" d="M256,70.65A35.32,35.32,0,0,1,291.32,106V273.75a35.33,35.33,0,0,1-70.65,0V106A35.32,35.32,0,0,1,256,70.65Z"/><path class="cls-4" d="M291.32,106V273.75A35.3,35.3,0,0,1,256,309.07V70.65A35.27,35.27,0,0,1,291.32,106Z"/></g></g></svg>