<svg version="1.1" width="512" height="512" viewBox="0 0 512 512" xmlns="http://www.w3.org/2000/svg" xmlns:xlink="http://www.w3.org/1999/xlink" overflow="hidden"><g><g><g><g><g><path d=" M 205.666 298.038 L 180.444 272.816 L 8.746 431.316 C -2.6 441.79 -2.956 459.599 7.963 470.518 C 18.882 481.437 36.691 481.081 47.165 469.735 Z" fill="#FFFFFF"/><path d=" M 46.407 470.528 C 35.85 481.085 18.621 481.175 7.966 470.52 C 4.814 467.368 2.606 463.645 1.335 459.686 C 10.752 462.749 21.496 460.509 28.925 453.08 C 29.186 452.819 29.446 452.542 29.699 452.274 L 188.203 280.573 L 205.668 298.038 L 47.165 469.738 C 46.912 470.006 46.66 470.275 46.407 470.528 Z" fill="#FFFFFF"/></g><path d=" M 230.504 213.053 L 172.424 282.333 L 196.15 306.058 L 265.43 247.979 Z" fill="#FFFFFF"/><path d=" M 230.504 213.053 L 211.737 235.44 L 217.368 241.071 C 221.513 245.216 221.513 251.936 217.368 256.08 L 181.77 291.678 L 196.15 306.058 L 265.43 247.979 Z" fill="#FFFFFF"/><g><path d=" M 182.043 319.471 L 159.012 296.44 C 152.354 289.782 152.354 278.986 159.012 272.328 C 165.67 265.67 176.466 265.67 183.124 272.328 L 206.155 295.359 C 212.813 302.017 212.813 312.812 206.155 319.471 C 199.497 326.129 188.701 326.129 182.043 319.471 Z" fill="#FFFFFF"/><path d=" M 206.148 319.47 C 202.816 322.802 198.45 324.463 194.1 324.464 C 189.734 324.464 185.368 322.802 182.036 319.47 L 164.579 302.013 C 167.911 305.345 172.277 307.007 176.635 306.998 C 180.993 307.006 185.359 305.344 188.691 302.013 C 195.354 295.35 195.346 284.556 188.691 277.901 L 206.148 295.358 C 212.811 302.022 212.812 312.807 206.148 319.47 Z" fill="#FFFFFF"/></g></g><g><g><path d=" M 209.872 63.681 L 282.203 63.681 L 282.203 177.238 L 209.872 177.238 Z" fill="#FFFFFF" transform="matrix(0.707,0.707,-0.707,0.707,157.241,-138.693)"/></g><g><path d=" M 321.858 175.666 L 394.189 175.666 L 394.189 289.223 L 321.858 289.223 Z" fill="#FFFFFF" transform="matrix(-0.707,-0.707,0.707,-0.707,446.821,649.969)"/></g></g><g><path d=" M 165.925 152.617 L 164.149 150.841 C 157.413 144.105 157.413 133.184 164.149 126.447 L 252.026 38.57 C 258.762 31.834 269.683 31.834 276.42 38.57 L 278.196 40.346 C 284.932 47.082 284.932 58.003 278.196 64.74 L 190.319 152.617 C 183.583 159.353 172.662 159.353 165.925 152.617 Z" fill="#FFFFFF"/><path d=" M 325.866 312.557 L 327.642 314.333 C 334.378 321.069 345.299 321.069 352.036 314.333 L 439.913 226.456 C 446.649 219.72 446.649 208.799 439.913 202.062 L 438.137 200.286 C 431.401 193.55 420.48 193.55 413.743 200.286 L 325.866 288.163 C 319.129 294.9 319.129 305.821 325.866 312.557 Z" fill="#FFFFFF"/><g><path d=" M 261.417 90.7 L 342.644 90.7 L 342.644 262.205 L 261.417 262.205 Z" fill="#FFFFFF" transform="matrix(0.707,0.707,-0.707,0.707,213.233,-161.886)"/><path d=" M 230.461 170.079 L 401.966 170.079 L 401.966 211.191 L 230.461 211.191 Z" fill="#FFFFFF" transform="matrix(0.707,-0.707,0.707,0.707,-42.183,279.433)"/><path d=" M 334.208 84.646 L 320.138 78.894 C 315.315 76.922 309.779 78.036 306.095 81.721 L 207.299 180.517 C 203.614 184.202 202.5 189.737 204.472 194.56 L 210.224 208.63 C 212.556 214.335 219.947 215.823 224.305 211.465 L 337.042 98.727 C 341.401 94.369 339.913 86.978 334.208 84.646 Z" fill="#FFFFFF"/><path d=" M 393.837 144.275 L 399.589 158.345 C 401.561 163.168 400.447 168.704 396.762 172.388 L 297.966 271.184 C 294.281 274.869 288.746 275.983 283.923 274.011 L 269.853 268.259 C 264.148 265.927 262.66 258.536 267.018 254.178 L 379.756 141.44 C 384.114 137.082 391.505 138.57 393.837 144.275 Z" fill="#FFFFFF"/></g></g></g><g><g><path d=" M 445.921 420.777 L 236.44 420.777 L 236.44 391.38 C 236.44 385.311 241.36 380.391 247.429 380.391 L 434.932 380.391 C 441.001 380.391 445.921 385.311 445.921 391.38 Z" fill="#FFFFFF"/><path d=" M 445.918 391.382 L 445.918 420.777 L 422.93 420.777 L 422.93 391.382 C 422.93 385.316 418.007 380.393 411.941 380.393 L 434.93 380.393 C 440.995 380.393 445.918 385.316 445.918 391.382 Z" fill="#FFFFFF"/></g><path d=" M 492.089 478.478 L 190.272 478.478 C 182.266 478.478 176.948 470.192 180.281 462.914 L 190.951 439.617 C 200.193 419.437 220.352 406.497 242.548 406.497 L 439.813 406.497 C 462.009 406.497 482.168 419.437 491.41 439.617 L 502.08 462.914 C 505.413 470.192 500.094 478.478 492.089 478.478 Z" fill="#FFFFFF"/><path d=" M 492.093 478.479 L 462.709 478.479 C 470.709 478.479 476.027 470.193 472.698 462.919 L 462.028 439.612 C 452.786 419.436 432.622 406.492 410.435 406.492 L 439.808 406.492 C 462.005 406.492 482.17 419.437 491.412 439.612 L 502.082 462.919 C 505.412 470.194 500.093 478.479 492.093 478.479 Z" fill="#FFFFFF"/><g><g id="XMLID_233_"><path d=" M 476.084 362.195 C 474.128 362.195 472.174 361.446 470.686 359.95 C 467.723 356.968 467.737 352.149 470.718 349.185 L 478.955 340.997 C 481.937 338.034 486.756 338.049 489.72 341.029 C 492.683 344.011 492.669 348.83 489.688 351.794 L 481.451 359.982 C 479.966 361.458 478.024 362.195 476.084 362.195 Z" fill="#FFFFFF"/></g><g id="XMLID_232_"><path d=" M 452.063 345.171 C 451.45 345.171 450.827 345.096 450.205 344.94 C 446.128 343.917 443.652 339.783 444.674 335.706 L 447.531 324.316 C 448.554 320.238 452.691 317.763 456.765 318.785 C 460.842 319.808 463.318 323.942 462.296 328.019 L 459.439 339.409 C 458.573 342.865 455.471 345.171 452.063 345.171 Z" fill="#FFFFFF"/></g><g id="XMLID_153_"><path d=" M 492.971 386.315 C 489.545 386.315 486.434 383.986 485.584 380.51 C 484.585 376.426 487.085 372.306 491.169 371.308 L 502.579 368.517 C 506.665 367.517 510.782 370.018 511.781 374.102 C 512.78 378.186 510.28 382.306 506.196 383.304 L 494.786 386.095 C 494.178 386.243 493.57 386.315 492.971 386.315 Z" fill="#FFFFFF"/></g></g></g></g></g></svg>